M48
; DRILL file {KiCad 6.0.9-8da3e8f707~116~ubuntu20.04.1} date ned 12 mar 2023 20:11:42
; FORMAT={-:-/ absolute / metric / decimal}
; #@! TF.CreationDate,2023-03-12T20:11:42+01:00
; #@! TF.GenerationSoftware,Kicad,Pcbnew,6.0.9-8da3e8f707~116~ubuntu20.04.1
; #@! TF.FileFunction,Plated,1,2,PTH
FMAT,2
METRIC
; #@! TA.AperFunction,Plated,PTH,ViaDrill
T1C0.400
; #@! TA.AperFunction,Plated,PTH,ComponentDrill
T2C1.000
; #@! TA.AperFunction,Plated,PTH,ComponentDrill
T3C1.016
; #@! TA.AperFunction,Plated,PTH,ComponentDrill
T4C1.500
; #@! TA.AperFunction,Plated,PTH,ComponentDrill
T5C2.159
%
G90
G05
T1
X105.233Y-116.499
X115.624Y-100.067
X116.3Y-120.65
X116.828Y-125.743
X116.922Y-71.767
X117.475Y-101.6
X118.442Y-99.041
X120.102Y-78.098
X123.19Y-71.755
X172.085Y-71.755
X175.113Y-123.179
X176.588Y-90.17
X180.251Y-98.858
X183.593Y-113.288
X193.923Y-97.543
X194.22Y-74.847
T2
X101.6Y-71.12
X101.6Y-73.66
X101.6Y-101.6
X101.6Y-104.14
X101.6Y-132.08
X101.6Y-134.62
X104.14Y-71.12
X104.14Y-73.66
X104.14Y-101.6
X104.14Y-104.14
X104.14Y-132.08
X104.14Y-134.62
X106.68Y-71.12
X106.68Y-73.66
X106.68Y-101.6
X106.68Y-104.14
X106.68Y-132.08
X106.68Y-134.62
X109.22Y-71.12
X109.22Y-73.66
X109.22Y-101.6
X109.22Y-104.14
X109.22Y-132.08
X109.22Y-134.62
X111.76Y-71.12
X111.76Y-73.66
X111.76Y-101.6
X111.76Y-104.14
X111.76Y-132.08
X111.76Y-134.62
X114.3Y-71.12
X114.3Y-73.66
X114.3Y-101.6
X114.3Y-104.14
X114.3Y-132.08
X114.3Y-134.62
X180.34Y-71.12
X180.34Y-73.66
X180.34Y-101.6
X180.34Y-104.14
X180.34Y-132.08
X180.34Y-134.62
X182.88Y-71.12
X182.88Y-73.66
X182.88Y-101.6
X182.88Y-104.14
X182.88Y-132.08
X182.88Y-134.62
X185.42Y-71.12
X185.42Y-73.66
X185.42Y-101.6
X185.42Y-104.14
X185.42Y-132.08
X185.42Y-134.62
X187.96Y-71.12
X187.96Y-73.66
X187.96Y-101.6
X187.96Y-104.14
X187.96Y-132.08
X187.96Y-134.62
X190.5Y-71.12
X190.5Y-73.66
X190.5Y-101.6
X190.5Y-104.14
X190.5Y-132.08
X190.5Y-134.62
X193.04Y-71.12
X193.04Y-73.66
X193.04Y-101.6
X193.04Y-104.14
X193.04Y-132.08
X193.04Y-134.62
T3
X107.95Y-57.15
X107.95Y-59.69
X107.95Y-87.63
X107.95Y-90.17
X107.95Y-118.11
X107.95Y-120.65
X186.69Y-57.15
X186.69Y-59.69
X186.69Y-87.63
X186.69Y-90.17
X186.69Y-118.11
X186.69Y-120.65
T4
X102.87Y-54.61
X102.87Y-85.09
X102.87Y-115.57
X113.03Y-64.77
X113.03Y-95.25
X113.03Y-125.73
X181.61Y-54.61
X181.61Y-85.09
X181.61Y-115.57
X191.77Y-64.77
X191.77Y-95.25
X191.77Y-125.73
T5
X102.87Y-64.77
X102.87Y-95.25
X102.87Y-125.73
X113.03Y-54.61
X113.03Y-85.09
X113.03Y-115.57
X181.61Y-64.77
X181.61Y-95.25
X181.61Y-125.73
X191.77Y-54.61
X191.77Y-85.09
X191.77Y-115.57
T0
M30
