G04 #@! TF.GenerationSoftware,KiCad,Pcbnew,6.0.9-8da3e8f707~116~ubuntu20.04.1*
G04 #@! TF.CreationDate,2023-03-12T20:11:02+01:00*
G04 #@! TF.ProjectId,six_to_six_vertical,7369785f-746f-45f7-9369-785f76657274,rev?*
G04 #@! TF.SameCoordinates,Original*
G04 #@! TF.FileFunction,Legend,Bot*
G04 #@! TF.FilePolarity,Positive*
%FSLAX46Y46*%
G04 Gerber Fmt 4.6, Leading zero omitted, Abs format (unit mm)*
G04 Created by KiCad (PCBNEW 6.0.9-8da3e8f707~116~ubuntu20.04.1) date 2023-03-12 20:11:02*
%MOMM*%
%LPD*%
G01*
G04 APERTURE LIST*
%ADD10C,0.150000*%
%ADD11C,0.152400*%
%ADD12C,0.120000*%
%ADD13R,1.700000X1.700000*%
%ADD14O,1.700000X1.700000*%
%ADD15C,2.000000*%
%ADD16C,3.000000*%
G04 APERTURE END LIST*
D10*
X119713333Y-59142380D02*
X119713333Y-59856666D01*
X119760952Y-59999523D01*
X119856190Y-60094761D01*
X119999047Y-60142380D01*
X120094285Y-60142380D01*
X118713333Y-60142380D02*
X119284761Y-60142380D01*
X118999047Y-60142380D02*
X118999047Y-59142380D01*
X119094285Y-59285238D01*
X119189523Y-59380476D01*
X119284761Y-59428095D01*
X175593333Y-59142380D02*
X175593333Y-59856666D01*
X175640952Y-59999523D01*
X175736190Y-60094761D01*
X175879047Y-60142380D01*
X175974285Y-60142380D01*
X175164761Y-59237619D02*
X175117142Y-59190000D01*
X175021904Y-59142380D01*
X174783809Y-59142380D01*
X174688571Y-59190000D01*
X174640952Y-59237619D01*
X174593333Y-59332857D01*
X174593333Y-59428095D01*
X174640952Y-59570952D01*
X175212380Y-60142380D01*
X174593333Y-60142380D01*
X119713333Y-89622380D02*
X119713333Y-90336666D01*
X119760952Y-90479523D01*
X119856190Y-90574761D01*
X119999047Y-90622380D01*
X120094285Y-90622380D01*
X119332380Y-89622380D02*
X118713333Y-89622380D01*
X119046666Y-90003333D01*
X118903809Y-90003333D01*
X118808571Y-90050952D01*
X118760952Y-90098571D01*
X118713333Y-90193809D01*
X118713333Y-90431904D01*
X118760952Y-90527142D01*
X118808571Y-90574761D01*
X118903809Y-90622380D01*
X119189523Y-90622380D01*
X119284761Y-90574761D01*
X119332380Y-90527142D01*
X175593333Y-89622380D02*
X175593333Y-90336666D01*
X175640952Y-90479523D01*
X175736190Y-90574761D01*
X175879047Y-90622380D01*
X175974285Y-90622380D01*
X174688571Y-89955714D02*
X174688571Y-90622380D01*
X174926666Y-89574761D02*
X175164761Y-90289047D01*
X174545714Y-90289047D01*
X175593333Y-120102380D02*
X175593333Y-120816666D01*
X175640952Y-120959523D01*
X175736190Y-121054761D01*
X175879047Y-121102380D01*
X175974285Y-121102380D01*
X174688571Y-120102380D02*
X174879047Y-120102380D01*
X174974285Y-120150000D01*
X175021904Y-120197619D01*
X175117142Y-120340476D01*
X175164761Y-120530952D01*
X175164761Y-120911904D01*
X175117142Y-121007142D01*
X175069523Y-121054761D01*
X174974285Y-121102380D01*
X174783809Y-121102380D01*
X174688571Y-121054761D01*
X174640952Y-121007142D01*
X174593333Y-120911904D01*
X174593333Y-120673809D01*
X174640952Y-120578571D01*
X174688571Y-120530952D01*
X174783809Y-120483333D01*
X174974285Y-120483333D01*
X175069523Y-120530952D01*
X175117142Y-120578571D01*
X175164761Y-120673809D01*
X119713333Y-120102380D02*
X119713333Y-120816666D01*
X119760952Y-120959523D01*
X119856190Y-121054761D01*
X119999047Y-121102380D01*
X120094285Y-121102380D01*
X118760952Y-120102380D02*
X119237142Y-120102380D01*
X119284761Y-120578571D01*
X119237142Y-120530952D01*
X119141904Y-120483333D01*
X118903809Y-120483333D01*
X118808571Y-120530952D01*
X118760952Y-120578571D01*
X118713333Y-120673809D01*
X118713333Y-120911904D01*
X118760952Y-121007142D01*
X118808571Y-121054761D01*
X118903809Y-121102380D01*
X119141904Y-121102380D01*
X119237142Y-121054761D01*
X119284761Y-121007142D01*
D11*
X99771200Y-52171600D02*
X116128800Y-52171600D01*
X116128800Y-67208400D02*
X107950000Y-67208400D01*
X116128800Y-52171600D02*
X116128800Y-67208400D01*
X107950000Y-67208400D02*
X99771200Y-67208400D01*
X99771200Y-67208400D02*
X99771200Y-52171600D01*
D12*
X104140000Y-66039999D02*
G75*
G03*
X111252000Y-66294000I3785887J6309808D01*
G01*
X114554001Y-62992000D02*
G75*
G03*
X114300000Y-55880000I-6563798J3326114D01*
G01*
X111760000Y-53340001D02*
G75*
G03*
X104140000Y-53340001I-3810000J-6349999D01*
G01*
X101600001Y-55880000D02*
G75*
G03*
X101600001Y-63500000I6349999J-3810000D01*
G01*
D11*
X178511200Y-52171600D02*
X194868800Y-52171600D01*
X178511200Y-67208400D02*
X178511200Y-52171600D01*
X186690000Y-67208400D02*
X178511200Y-67208400D01*
X194868800Y-67208400D02*
X186690000Y-67208400D01*
X194868800Y-52171600D02*
X194868800Y-67208400D01*
D12*
X180340001Y-55880000D02*
G75*
G03*
X180340001Y-63500000I6349999J-3810000D01*
G01*
X190500000Y-53340001D02*
G75*
G03*
X182880000Y-53340001I-3810000J-6349999D01*
G01*
X193294001Y-62992000D02*
G75*
G03*
X193040000Y-55880000I-6563798J3326114D01*
G01*
X182880000Y-66039999D02*
G75*
G03*
X189992000Y-66294000I3785887J6309808D01*
G01*
D11*
X99771200Y-97688400D02*
X99771200Y-82651600D01*
X99771200Y-82651600D02*
X116128800Y-82651600D01*
X116128800Y-97688400D02*
X107950000Y-97688400D01*
X107950000Y-97688400D02*
X99771200Y-97688400D01*
X116128800Y-82651600D02*
X116128800Y-97688400D01*
D12*
X101600001Y-86360000D02*
G75*
G03*
X101600001Y-93980000I6349999J-3810000D01*
G01*
X111760000Y-83820001D02*
G75*
G03*
X104140000Y-83820001I-3810000J-6349999D01*
G01*
X104140000Y-96519999D02*
G75*
G03*
X111252000Y-96774000I3785887J6309808D01*
G01*
X114554001Y-93472000D02*
G75*
G03*
X114300000Y-86360000I-6563798J3326114D01*
G01*
D11*
X186690000Y-97688400D02*
X178511200Y-97688400D01*
X194868800Y-97688400D02*
X186690000Y-97688400D01*
X178511200Y-82651600D02*
X194868800Y-82651600D01*
X194868800Y-82651600D02*
X194868800Y-97688400D01*
X178511200Y-97688400D02*
X178511200Y-82651600D01*
D12*
X182880000Y-96519999D02*
G75*
G03*
X189992000Y-96774000I3785887J6309808D01*
G01*
X180340001Y-86360000D02*
G75*
G03*
X180340001Y-93980000I6349999J-3810000D01*
G01*
X193294001Y-93472000D02*
G75*
G03*
X193040000Y-86360000I-6563798J3326114D01*
G01*
X190500000Y-83820001D02*
G75*
G03*
X182880000Y-83820001I-3810000J-6349999D01*
G01*
D11*
X194868800Y-128168400D02*
X186690000Y-128168400D01*
X194868800Y-113131600D02*
X194868800Y-128168400D01*
X178511200Y-128168400D02*
X178511200Y-113131600D01*
X178511200Y-113131600D02*
X194868800Y-113131600D01*
X186690000Y-128168400D02*
X178511200Y-128168400D01*
D12*
X193294001Y-123952000D02*
G75*
G03*
X193040000Y-116840000I-6563798J3326114D01*
G01*
X182880000Y-126999999D02*
G75*
G03*
X189992000Y-127254000I3785887J6309808D01*
G01*
X180340001Y-116840000D02*
G75*
G03*
X180340001Y-124460000I6349999J-3810000D01*
G01*
X190500000Y-114300001D02*
G75*
G03*
X182880000Y-114300001I-3810000J-6349999D01*
G01*
D11*
X116128800Y-113131600D02*
X116128800Y-128168400D01*
X99771200Y-128168400D02*
X99771200Y-113131600D01*
X99771200Y-113131600D02*
X116128800Y-113131600D01*
X107950000Y-128168400D02*
X99771200Y-128168400D01*
X116128800Y-128168400D02*
X107950000Y-128168400D01*
D12*
X101600001Y-116840000D02*
G75*
G03*
X101600001Y-124460000I6349999J-3810000D01*
G01*
X114554001Y-123952000D02*
G75*
G03*
X114300000Y-116840000I-6563798J3326114D01*
G01*
X111760000Y-114300001D02*
G75*
G03*
X104140000Y-114300001I-3810000J-6349999D01*
G01*
X104140000Y-126999999D02*
G75*
G03*
X111252000Y-127254000I3785887J6309808D01*
G01*
%LPC*%
D13*
X101600000Y-101600000D03*
D14*
X101600000Y-104140000D03*
X104140000Y-101600000D03*
X104140000Y-104140000D03*
X106680000Y-101600000D03*
X106680000Y-104140000D03*
X109220000Y-101600000D03*
X109220000Y-104140000D03*
X111760000Y-101600000D03*
X111760000Y-104140000D03*
X114300000Y-101600000D03*
X114300000Y-104140000D03*
D13*
X101600000Y-71120000D03*
D14*
X101600000Y-73660000D03*
X104140000Y-71120000D03*
X104140000Y-73660000D03*
X106680000Y-71120000D03*
X106680000Y-73660000D03*
X109220000Y-71120000D03*
X109220000Y-73660000D03*
X111760000Y-71120000D03*
X111760000Y-73660000D03*
X114300000Y-71120000D03*
X114300000Y-73660000D03*
D13*
X180340000Y-132080000D03*
D14*
X180340000Y-134620000D03*
X182880000Y-132080000D03*
X182880000Y-134620000D03*
X185420000Y-132080000D03*
X185420000Y-134620000D03*
X187960000Y-132080000D03*
X187960000Y-134620000D03*
X190500000Y-132080000D03*
X190500000Y-134620000D03*
X193040000Y-132080000D03*
X193040000Y-134620000D03*
D13*
X101600000Y-132080000D03*
D14*
X101600000Y-134620000D03*
X104140000Y-132080000D03*
X104140000Y-134620000D03*
X106680000Y-132080000D03*
X106680000Y-134620000D03*
X109220000Y-132080000D03*
X109220000Y-134620000D03*
X111760000Y-132080000D03*
X111760000Y-134620000D03*
X114300000Y-132080000D03*
X114300000Y-134620000D03*
D13*
X180340000Y-71120000D03*
D14*
X180340000Y-73660000D03*
X182880000Y-71120000D03*
X182880000Y-73660000D03*
X185420000Y-71120000D03*
X185420000Y-73660000D03*
X187960000Y-71120000D03*
X187960000Y-73660000D03*
X190500000Y-71120000D03*
X190500000Y-73660000D03*
X193040000Y-71120000D03*
X193040000Y-73660000D03*
D13*
X180340000Y-101600000D03*
D14*
X180340000Y-104140000D03*
X182880000Y-101600000D03*
X182880000Y-104140000D03*
X185420000Y-101600000D03*
X185420000Y-104140000D03*
X187960000Y-101600000D03*
X187960000Y-104140000D03*
X190500000Y-101600000D03*
X190500000Y-104140000D03*
X193040000Y-101600000D03*
X193040000Y-104140000D03*
D15*
X107950000Y-59690000D03*
D16*
X102870000Y-64770000D03*
X113030000Y-64770000D03*
D15*
X107950000Y-57150000D03*
D16*
X102870000Y-54610000D03*
X113030000Y-54610000D03*
D15*
X186690000Y-59690000D03*
D16*
X181610000Y-64770000D03*
X191770000Y-64770000D03*
X191770000Y-54610000D03*
X181610000Y-54610000D03*
D15*
X186690000Y-57150000D03*
X107950000Y-90170000D03*
D16*
X102870000Y-95250000D03*
X102870000Y-85090000D03*
X113030000Y-85090000D03*
X113030000Y-95250000D03*
D15*
X107950000Y-87630000D03*
X186690000Y-90170000D03*
X186690000Y-87630000D03*
D16*
X191770000Y-95250000D03*
X181610000Y-95250000D03*
X181610000Y-85090000D03*
X191770000Y-85090000D03*
D15*
X186690000Y-120650000D03*
D16*
X181610000Y-115570000D03*
D15*
X186690000Y-118110000D03*
D16*
X191770000Y-115570000D03*
X181610000Y-125730000D03*
X191770000Y-125730000D03*
D15*
X107950000Y-120650000D03*
D16*
X102870000Y-115570000D03*
X102870000Y-125730000D03*
D15*
X107950000Y-118110000D03*
D16*
X113030000Y-125730000D03*
X113030000Y-115570000D03*
M02*
