G04 #@! TF.GenerationSoftware,KiCad,Pcbnew,6.0.9-8da3e8f707~116~ubuntu20.04.1*
G04 #@! TF.CreationDate,2023-03-20T21:31:30+01:00*
G04 #@! TF.ProjectId,six_to_six_vertical,7369785f-746f-45f7-9369-785f76657274,rev?*
G04 #@! TF.SameCoordinates,Original*
G04 #@! TF.FileFunction,Legend,Top*
G04 #@! TF.FilePolarity,Positive*
%FSLAX46Y46*%
G04 Gerber Fmt 4.6, Leading zero omitted, Abs format (unit mm)*
G04 Created by KiCad (PCBNEW 6.0.9-8da3e8f707~116~ubuntu20.04.1) date 2023-03-20 21:31:30*
%MOMM*%
%LPD*%
G01*
G04 APERTURE LIST*
%ADD10C,0.150000*%
%ADD11C,0.300000*%
%ADD12C,0.120000*%
%ADD13R,1.700000X1.700000*%
%ADD14O,1.700000X1.700000*%
%ADD15C,2.000000*%
%ADD16C,3.000000*%
G04 APERTURE END LIST*
D10*
X138869285Y-61087714D02*
X138983571Y-61144857D01*
X139212142Y-61144857D01*
X139326428Y-61087714D01*
X139383571Y-60973428D01*
X139383571Y-60916285D01*
X139326428Y-60802000D01*
X139212142Y-60744857D01*
X139040714Y-60744857D01*
X138926428Y-60687714D01*
X138869285Y-60573428D01*
X138869285Y-60516285D01*
X138926428Y-60402000D01*
X139040714Y-60344857D01*
X139212142Y-60344857D01*
X139326428Y-60402000D01*
X139897857Y-61144857D02*
X139897857Y-60344857D01*
X139897857Y-59944857D02*
X139840714Y-60002000D01*
X139897857Y-60059142D01*
X139955000Y-60002000D01*
X139897857Y-59944857D01*
X139897857Y-60059142D01*
X140355000Y-61144857D02*
X140983571Y-60344857D01*
X140355000Y-60344857D02*
X140983571Y-61144857D01*
X142183571Y-60344857D02*
X142640714Y-60344857D01*
X142355000Y-59944857D02*
X142355000Y-60973428D01*
X142412142Y-61087714D01*
X142526428Y-61144857D01*
X142640714Y-61144857D01*
X143212142Y-61144857D02*
X143097857Y-61087714D01*
X143040714Y-61030571D01*
X142983571Y-60916285D01*
X142983571Y-60573428D01*
X143040714Y-60459142D01*
X143097857Y-60402000D01*
X143212142Y-60344857D01*
X143383571Y-60344857D01*
X143497857Y-60402000D01*
X143555000Y-60459142D01*
X143612142Y-60573428D01*
X143612142Y-60916285D01*
X143555000Y-61030571D01*
X143497857Y-61087714D01*
X143383571Y-61144857D01*
X143212142Y-61144857D01*
X144983571Y-61087714D02*
X145097857Y-61144857D01*
X145326428Y-61144857D01*
X145440714Y-61087714D01*
X145497857Y-60973428D01*
X145497857Y-60916285D01*
X145440714Y-60802000D01*
X145326428Y-60744857D01*
X145155000Y-60744857D01*
X145040714Y-60687714D01*
X144983571Y-60573428D01*
X144983571Y-60516285D01*
X145040714Y-60402000D01*
X145155000Y-60344857D01*
X145326428Y-60344857D01*
X145440714Y-60402000D01*
X146012142Y-61144857D02*
X146012142Y-60344857D01*
X146012142Y-59944857D02*
X145955000Y-60002000D01*
X146012142Y-60059142D01*
X146069285Y-60002000D01*
X146012142Y-59944857D01*
X146012142Y-60059142D01*
X146469285Y-61144857D02*
X147097857Y-60344857D01*
X146469285Y-60344857D02*
X147097857Y-61144857D01*
X148469285Y-61144857D02*
X148469285Y-59944857D01*
X148469285Y-60402000D02*
X148583571Y-60344857D01*
X148812142Y-60344857D01*
X148926428Y-60402000D01*
X148983571Y-60459142D01*
X149040714Y-60573428D01*
X149040714Y-60916285D01*
X148983571Y-61030571D01*
X148926428Y-61087714D01*
X148812142Y-61144857D01*
X148583571Y-61144857D01*
X148469285Y-61087714D01*
X150069285Y-61144857D02*
X150069285Y-60516285D01*
X150012142Y-60402000D01*
X149897857Y-60344857D01*
X149669285Y-60344857D01*
X149555000Y-60402000D01*
X150069285Y-61087714D02*
X149955000Y-61144857D01*
X149669285Y-61144857D01*
X149555000Y-61087714D01*
X149497857Y-60973428D01*
X149497857Y-60859142D01*
X149555000Y-60744857D01*
X149669285Y-60687714D01*
X149955000Y-60687714D01*
X150069285Y-60630571D01*
X151155000Y-61087714D02*
X151040714Y-61144857D01*
X150812142Y-61144857D01*
X150697857Y-61087714D01*
X150640714Y-61030571D01*
X150583571Y-60916285D01*
X150583571Y-60573428D01*
X150640714Y-60459142D01*
X150697857Y-60402000D01*
X150812142Y-60344857D01*
X151040714Y-60344857D01*
X151155000Y-60402000D01*
X151669285Y-61144857D02*
X151669285Y-59944857D01*
X151783571Y-60687714D02*
X152126428Y-61144857D01*
X152126428Y-60344857D02*
X151669285Y-60802000D01*
X152640714Y-60344857D02*
X152640714Y-61544857D01*
X152640714Y-60402000D02*
X152755000Y-60344857D01*
X152983571Y-60344857D01*
X153097857Y-60402000D01*
X153155000Y-60459142D01*
X153212142Y-60573428D01*
X153212142Y-60916285D01*
X153155000Y-61030571D01*
X153097857Y-61087714D01*
X152983571Y-61144857D01*
X152755000Y-61144857D01*
X152640714Y-61087714D01*
X153897857Y-61144857D02*
X153783571Y-61087714D01*
X153726428Y-60973428D01*
X153726428Y-59944857D01*
X154869285Y-61144857D02*
X154869285Y-60516285D01*
X154812142Y-60402000D01*
X154697857Y-60344857D01*
X154469285Y-60344857D01*
X154355000Y-60402000D01*
X154869285Y-61087714D02*
X154755000Y-61144857D01*
X154469285Y-61144857D01*
X154355000Y-61087714D01*
X154297857Y-60973428D01*
X154297857Y-60859142D01*
X154355000Y-60744857D01*
X154469285Y-60687714D01*
X154755000Y-60687714D01*
X154869285Y-60630571D01*
X155440714Y-60344857D02*
X155440714Y-61144857D01*
X155440714Y-60459142D02*
X155497857Y-60402000D01*
X155612142Y-60344857D01*
X155783571Y-60344857D01*
X155897857Y-60402000D01*
X155955000Y-60516285D01*
X155955000Y-61144857D01*
X156983571Y-61087714D02*
X156869285Y-61144857D01*
X156640714Y-61144857D01*
X156526428Y-61087714D01*
X156469285Y-60973428D01*
X156469285Y-60516285D01*
X156526428Y-60402000D01*
X156640714Y-60344857D01*
X156869285Y-60344857D01*
X156983571Y-60402000D01*
X157040714Y-60516285D01*
X157040714Y-60630571D01*
X156469285Y-60744857D01*
X144726428Y-63076857D02*
X144726428Y-62276857D01*
X144726428Y-62505428D02*
X144783571Y-62391142D01*
X144840714Y-62334000D01*
X144955000Y-62276857D01*
X145069285Y-62276857D01*
X145926428Y-63019714D02*
X145812142Y-63076857D01*
X145583571Y-63076857D01*
X145469285Y-63019714D01*
X145412142Y-62905428D01*
X145412142Y-62448285D01*
X145469285Y-62334000D01*
X145583571Y-62276857D01*
X145812142Y-62276857D01*
X145926428Y-62334000D01*
X145983571Y-62448285D01*
X145983571Y-62562571D01*
X145412142Y-62676857D01*
X146383571Y-62276857D02*
X146669285Y-63076857D01*
X146955000Y-62276857D01*
X147412142Y-62962571D02*
X147469285Y-63019714D01*
X147412142Y-63076857D01*
X147355000Y-63019714D01*
X147412142Y-62962571D01*
X147412142Y-63076857D01*
X147412142Y-62334000D02*
X147469285Y-62391142D01*
X147412142Y-62448285D01*
X147355000Y-62391142D01*
X147412142Y-62334000D01*
X147412142Y-62448285D01*
X149526428Y-63076857D02*
X148840714Y-63076857D01*
X149183571Y-63076857D02*
X149183571Y-61876857D01*
X149069285Y-62048285D01*
X148955000Y-62162571D01*
X148840714Y-62219714D01*
X150040714Y-62962571D02*
X150097857Y-63019714D01*
X150040714Y-63076857D01*
X149983571Y-63019714D01*
X150040714Y-62962571D01*
X150040714Y-63076857D01*
X150840714Y-61876857D02*
X150955000Y-61876857D01*
X151069285Y-61934000D01*
X151126428Y-61991142D01*
X151183571Y-62105428D01*
X151240714Y-62334000D01*
X151240714Y-62619714D01*
X151183571Y-62848285D01*
X151126428Y-62962571D01*
X151069285Y-63019714D01*
X150955000Y-63076857D01*
X150840714Y-63076857D01*
X150726428Y-63019714D01*
X150669285Y-62962571D01*
X150612142Y-62848285D01*
X150555000Y-62619714D01*
X150555000Y-62334000D01*
X150612142Y-62105428D01*
X150669285Y-61991142D01*
X150726428Y-61934000D01*
X150840714Y-61876857D01*
X143726428Y-65008857D02*
X143040714Y-65008857D01*
X143383571Y-65008857D02*
X143383571Y-63808857D01*
X143269285Y-63980285D01*
X143155000Y-64094571D01*
X143040714Y-64151714D01*
X144183571Y-63923142D02*
X144240714Y-63866000D01*
X144355000Y-63808857D01*
X144640714Y-63808857D01*
X144755000Y-63866000D01*
X144812142Y-63923142D01*
X144869285Y-64037428D01*
X144869285Y-64151714D01*
X144812142Y-64323142D01*
X144126428Y-65008857D01*
X144869285Y-65008857D01*
X145383571Y-64894571D02*
X145440714Y-64951714D01*
X145383571Y-65008857D01*
X145326428Y-64951714D01*
X145383571Y-64894571D01*
X145383571Y-65008857D01*
X146183571Y-63808857D02*
X146297857Y-63808857D01*
X146412142Y-63866000D01*
X146469285Y-63923142D01*
X146526428Y-64037428D01*
X146583571Y-64266000D01*
X146583571Y-64551714D01*
X146526428Y-64780285D01*
X146469285Y-64894571D01*
X146412142Y-64951714D01*
X146297857Y-65008857D01*
X146183571Y-65008857D01*
X146069285Y-64951714D01*
X146012142Y-64894571D01*
X145955000Y-64780285D01*
X145897857Y-64551714D01*
X145897857Y-64266000D01*
X145955000Y-64037428D01*
X146012142Y-63923142D01*
X146069285Y-63866000D01*
X146183571Y-63808857D01*
X146983571Y-63808857D02*
X147726428Y-63808857D01*
X147326428Y-64266000D01*
X147497857Y-64266000D01*
X147612142Y-64323142D01*
X147669285Y-64380285D01*
X147726428Y-64494571D01*
X147726428Y-64780285D01*
X147669285Y-64894571D01*
X147612142Y-64951714D01*
X147497857Y-65008857D01*
X147155000Y-65008857D01*
X147040714Y-64951714D01*
X146983571Y-64894571D01*
X148240714Y-64894571D02*
X148297857Y-64951714D01*
X148240714Y-65008857D01*
X148183571Y-64951714D01*
X148240714Y-64894571D01*
X148240714Y-65008857D01*
X148755000Y-63923142D02*
X148812142Y-63866000D01*
X148926428Y-63808857D01*
X149212142Y-63808857D01*
X149326428Y-63866000D01*
X149383571Y-63923142D01*
X149440714Y-64037428D01*
X149440714Y-64151714D01*
X149383571Y-64323142D01*
X148697857Y-65008857D01*
X149440714Y-65008857D01*
X150183571Y-63808857D02*
X150297857Y-63808857D01*
X150412142Y-63866000D01*
X150469285Y-63923142D01*
X150526428Y-64037428D01*
X150583571Y-64266000D01*
X150583571Y-64551714D01*
X150526428Y-64780285D01*
X150469285Y-64894571D01*
X150412142Y-64951714D01*
X150297857Y-65008857D01*
X150183571Y-65008857D01*
X150069285Y-64951714D01*
X150012142Y-64894571D01*
X149955000Y-64780285D01*
X149897857Y-64551714D01*
X149897857Y-64266000D01*
X149955000Y-64037428D01*
X150012142Y-63923142D01*
X150069285Y-63866000D01*
X150183571Y-63808857D01*
X151040714Y-63923142D02*
X151097857Y-63866000D01*
X151212142Y-63808857D01*
X151497857Y-63808857D01*
X151612142Y-63866000D01*
X151669285Y-63923142D01*
X151726428Y-64037428D01*
X151726428Y-64151714D01*
X151669285Y-64323142D01*
X150983571Y-65008857D01*
X151726428Y-65008857D01*
X152126428Y-63808857D02*
X152869285Y-63808857D01*
X152469285Y-64266000D01*
X152640714Y-64266000D01*
X152755000Y-64323142D01*
X152812142Y-64380285D01*
X152869285Y-64494571D01*
X152869285Y-64780285D01*
X152812142Y-64894571D01*
X152755000Y-64951714D01*
X152640714Y-65008857D01*
X152297857Y-65008857D01*
X152183571Y-64951714D01*
X152126428Y-64894571D01*
X139612142Y-66940857D02*
X139612142Y-65740857D01*
X139612142Y-66883714D02*
X139497857Y-66940857D01*
X139269285Y-66940857D01*
X139155000Y-66883714D01*
X139097857Y-66826571D01*
X139040714Y-66712285D01*
X139040714Y-66369428D01*
X139097857Y-66255142D01*
X139155000Y-66198000D01*
X139269285Y-66140857D01*
X139497857Y-66140857D01*
X139612142Y-66198000D01*
X140640714Y-66883714D02*
X140526428Y-66940857D01*
X140297857Y-66940857D01*
X140183571Y-66883714D01*
X140126428Y-66769428D01*
X140126428Y-66312285D01*
X140183571Y-66198000D01*
X140297857Y-66140857D01*
X140526428Y-66140857D01*
X140640714Y-66198000D01*
X140697857Y-66312285D01*
X140697857Y-66426571D01*
X140126428Y-66540857D01*
X141155000Y-66883714D02*
X141269285Y-66940857D01*
X141497857Y-66940857D01*
X141612142Y-66883714D01*
X141669285Y-66769428D01*
X141669285Y-66712285D01*
X141612142Y-66598000D01*
X141497857Y-66540857D01*
X141326428Y-66540857D01*
X141212142Y-66483714D01*
X141155000Y-66369428D01*
X141155000Y-66312285D01*
X141212142Y-66198000D01*
X141326428Y-66140857D01*
X141497857Y-66140857D01*
X141612142Y-66198000D01*
X142183571Y-66940857D02*
X142183571Y-66140857D01*
X142183571Y-65740857D02*
X142126428Y-65798000D01*
X142183571Y-65855142D01*
X142240714Y-65798000D01*
X142183571Y-65740857D01*
X142183571Y-65855142D01*
X143269285Y-66140857D02*
X143269285Y-67112285D01*
X143212142Y-67226571D01*
X143155000Y-67283714D01*
X143040714Y-67340857D01*
X142869285Y-67340857D01*
X142755000Y-67283714D01*
X143269285Y-66883714D02*
X143155000Y-66940857D01*
X142926428Y-66940857D01*
X142812142Y-66883714D01*
X142755000Y-66826571D01*
X142697857Y-66712285D01*
X142697857Y-66369428D01*
X142755000Y-66255142D01*
X142812142Y-66198000D01*
X142926428Y-66140857D01*
X143155000Y-66140857D01*
X143269285Y-66198000D01*
X143840714Y-66140857D02*
X143840714Y-66940857D01*
X143840714Y-66255142D02*
X143897857Y-66198000D01*
X144012142Y-66140857D01*
X144183571Y-66140857D01*
X144297857Y-66198000D01*
X144355000Y-66312285D01*
X144355000Y-66940857D01*
X145383571Y-66883714D02*
X145269285Y-66940857D01*
X145040714Y-66940857D01*
X144926428Y-66883714D01*
X144869285Y-66769428D01*
X144869285Y-66312285D01*
X144926428Y-66198000D01*
X145040714Y-66140857D01*
X145269285Y-66140857D01*
X145383571Y-66198000D01*
X145440714Y-66312285D01*
X145440714Y-66426571D01*
X144869285Y-66540857D01*
X146469285Y-66940857D02*
X146469285Y-65740857D01*
X146469285Y-66883714D02*
X146355000Y-66940857D01*
X146126428Y-66940857D01*
X146012142Y-66883714D01*
X145955000Y-66826571D01*
X145897857Y-66712285D01*
X145897857Y-66369428D01*
X145955000Y-66255142D01*
X146012142Y-66198000D01*
X146126428Y-66140857D01*
X146355000Y-66140857D01*
X146469285Y-66198000D01*
X147955000Y-66940857D02*
X147955000Y-65740857D01*
X147955000Y-66198000D02*
X148069285Y-66140857D01*
X148297857Y-66140857D01*
X148412142Y-66198000D01*
X148469285Y-66255142D01*
X148526428Y-66369428D01*
X148526428Y-66712285D01*
X148469285Y-66826571D01*
X148412142Y-66883714D01*
X148297857Y-66940857D01*
X148069285Y-66940857D01*
X147955000Y-66883714D01*
X148926428Y-66140857D02*
X149212142Y-66940857D01*
X149497857Y-66140857D02*
X149212142Y-66940857D01*
X149097857Y-67226571D01*
X149040714Y-67283714D01*
X148926428Y-67340857D01*
X149955000Y-66826571D02*
X150012142Y-66883714D01*
X149955000Y-66940857D01*
X149897857Y-66883714D01*
X149955000Y-66826571D01*
X149955000Y-66940857D01*
X149955000Y-66198000D02*
X150012142Y-66255142D01*
X149955000Y-66312285D01*
X149897857Y-66255142D01*
X149955000Y-66198000D01*
X149955000Y-66312285D01*
X151383571Y-66883714D02*
X151555000Y-66940857D01*
X151840714Y-66940857D01*
X151955000Y-66883714D01*
X152012142Y-66826571D01*
X152069285Y-66712285D01*
X152069285Y-66598000D01*
X152012142Y-66483714D01*
X151955000Y-66426571D01*
X151840714Y-66369428D01*
X151612142Y-66312285D01*
X151497857Y-66255142D01*
X151440714Y-66198000D01*
X151383571Y-66083714D01*
X151383571Y-65969428D01*
X151440714Y-65855142D01*
X151497857Y-65798000D01*
X151612142Y-65740857D01*
X151897857Y-65740857D01*
X152069285Y-65798000D01*
X153155000Y-65740857D02*
X152583571Y-65740857D01*
X152526428Y-66312285D01*
X152583571Y-66255142D01*
X152697857Y-66198000D01*
X152983571Y-66198000D01*
X153097857Y-66255142D01*
X153155000Y-66312285D01*
X153212142Y-66426571D01*
X153212142Y-66712285D01*
X153155000Y-66826571D01*
X153097857Y-66883714D01*
X152983571Y-66940857D01*
X152697857Y-66940857D01*
X152583571Y-66883714D01*
X152526428Y-66826571D01*
X153783571Y-66940857D02*
X154012142Y-66940857D01*
X154126428Y-66883714D01*
X154183571Y-66826571D01*
X154297857Y-66655142D01*
X154355000Y-66426571D01*
X154355000Y-65969428D01*
X154297857Y-65855142D01*
X154240714Y-65798000D01*
X154126428Y-65740857D01*
X153897857Y-65740857D01*
X153783571Y-65798000D01*
X153726428Y-65855142D01*
X153669285Y-65969428D01*
X153669285Y-66255142D01*
X153726428Y-66369428D01*
X153783571Y-66426571D01*
X153897857Y-66483714D01*
X154126428Y-66483714D01*
X154240714Y-66426571D01*
X154297857Y-66369428D01*
X154355000Y-66255142D01*
X154869285Y-66940857D02*
X154869285Y-65740857D01*
X155269285Y-66598000D01*
X155669285Y-65740857D01*
X155669285Y-66940857D01*
X156126428Y-65740857D02*
X156926428Y-65740857D01*
X156126428Y-66940857D01*
X156926428Y-66940857D01*
D11*
X118713333Y-101774761D02*
X118713333Y-103203333D01*
X118618095Y-103489047D01*
X118427619Y-103679523D01*
X118141904Y-103774761D01*
X117951428Y-103774761D01*
X119475238Y-101774761D02*
X120713333Y-101774761D01*
X120046666Y-102536666D01*
X120332380Y-102536666D01*
X120522857Y-102631904D01*
X120618095Y-102727142D01*
X120713333Y-102917619D01*
X120713333Y-103393809D01*
X120618095Y-103584285D01*
X120522857Y-103679523D01*
X120332380Y-103774761D01*
X119760952Y-103774761D01*
X119570476Y-103679523D01*
X119475238Y-103584285D01*
X118713333Y-70074761D02*
X118713333Y-71503333D01*
X118618095Y-71789047D01*
X118427619Y-71979523D01*
X118141904Y-72074761D01*
X117951428Y-72074761D01*
X120713333Y-72074761D02*
X119570476Y-72074761D01*
X120141904Y-72074761D02*
X120141904Y-70074761D01*
X119951428Y-70360476D01*
X119760952Y-70550952D01*
X119570476Y-70646190D01*
X174593333Y-133474761D02*
X174593333Y-134903333D01*
X174498095Y-135189047D01*
X174307619Y-135379523D01*
X174021904Y-135474761D01*
X173831428Y-135474761D01*
X176402857Y-133474761D02*
X176021904Y-133474761D01*
X175831428Y-133570000D01*
X175736190Y-133665238D01*
X175545714Y-133950952D01*
X175450476Y-134331904D01*
X175450476Y-135093809D01*
X175545714Y-135284285D01*
X175640952Y-135379523D01*
X175831428Y-135474761D01*
X176212380Y-135474761D01*
X176402857Y-135379523D01*
X176498095Y-135284285D01*
X176593333Y-135093809D01*
X176593333Y-134617619D01*
X176498095Y-134427142D01*
X176402857Y-134331904D01*
X176212380Y-134236666D01*
X175831428Y-134236666D01*
X175640952Y-134331904D01*
X175545714Y-134427142D01*
X175450476Y-134617619D01*
X118713333Y-133474761D02*
X118713333Y-134903333D01*
X118618095Y-135189047D01*
X118427619Y-135379523D01*
X118141904Y-135474761D01*
X117951428Y-135474761D01*
X120618095Y-133474761D02*
X119665714Y-133474761D01*
X119570476Y-134427142D01*
X119665714Y-134331904D01*
X119856190Y-134236666D01*
X120332380Y-134236666D01*
X120522857Y-134331904D01*
X120618095Y-134427142D01*
X120713333Y-134617619D01*
X120713333Y-135093809D01*
X120618095Y-135284285D01*
X120522857Y-135379523D01*
X120332380Y-135474761D01*
X119856190Y-135474761D01*
X119665714Y-135379523D01*
X119570476Y-135284285D01*
X174593333Y-70074761D02*
X174593333Y-71503333D01*
X174498095Y-71789047D01*
X174307619Y-71979523D01*
X174021904Y-72074761D01*
X173831428Y-72074761D01*
X175450476Y-70265238D02*
X175545714Y-70170000D01*
X175736190Y-70074761D01*
X176212380Y-70074761D01*
X176402857Y-70170000D01*
X176498095Y-70265238D01*
X176593333Y-70455714D01*
X176593333Y-70646190D01*
X176498095Y-70931904D01*
X175355238Y-72074761D01*
X176593333Y-72074761D01*
X174593333Y-101774761D02*
X174593333Y-103203333D01*
X174498095Y-103489047D01*
X174307619Y-103679523D01*
X174021904Y-103774761D01*
X173831428Y-103774761D01*
X176402857Y-102441428D02*
X176402857Y-103774761D01*
X175926666Y-101679523D02*
X175450476Y-103108095D01*
X176688571Y-103108095D01*
D12*
X100270000Y-100270000D02*
X101600000Y-100270000D01*
X115630000Y-105470000D02*
X115630000Y-100270000D01*
X100270000Y-105470000D02*
X100270000Y-102870000D01*
X100270000Y-101600000D02*
X100270000Y-100270000D01*
X102870000Y-102870000D02*
X102870000Y-100270000D01*
X100270000Y-105470000D02*
X115630000Y-105470000D01*
X100270000Y-102870000D02*
X102870000Y-102870000D01*
X102870000Y-100270000D02*
X115630000Y-100270000D01*
X100270000Y-71170000D02*
X102870000Y-71170000D01*
X102870000Y-68570000D02*
X115630000Y-68570000D01*
X100270000Y-69900000D02*
X100270000Y-68570000D01*
X115630000Y-73770000D02*
X115630000Y-68570000D01*
X100270000Y-73770000D02*
X100270000Y-71170000D01*
X100270000Y-68570000D02*
X101600000Y-68570000D01*
X100270000Y-73770000D02*
X115630000Y-73770000D01*
X102870000Y-71170000D02*
X102870000Y-68570000D01*
X179010000Y-137170000D02*
X194370000Y-137170000D01*
X181610000Y-131970000D02*
X194370000Y-131970000D01*
X194370000Y-137170000D02*
X194370000Y-131970000D01*
X181610000Y-134570000D02*
X181610000Y-131970000D01*
X179010000Y-137170000D02*
X179010000Y-134570000D01*
X179010000Y-133300000D02*
X179010000Y-131970000D01*
X179010000Y-134570000D02*
X181610000Y-134570000D01*
X179010000Y-131970000D02*
X180340000Y-131970000D01*
X100270000Y-137170000D02*
X115630000Y-137170000D01*
X102870000Y-134570000D02*
X102870000Y-131970000D01*
X100270000Y-131970000D02*
X101600000Y-131970000D01*
X100270000Y-134570000D02*
X102870000Y-134570000D01*
X100270000Y-137170000D02*
X100270000Y-134570000D01*
X100270000Y-133300000D02*
X100270000Y-131970000D01*
X102870000Y-131970000D02*
X115630000Y-131970000D01*
X115630000Y-137170000D02*
X115630000Y-131970000D01*
X194370000Y-73770000D02*
X194370000Y-68570000D01*
X179010000Y-69900000D02*
X179010000Y-68570000D01*
X179010000Y-73770000D02*
X179010000Y-71170000D01*
X181610000Y-71170000D02*
X181610000Y-68570000D01*
X181610000Y-68570000D02*
X194370000Y-68570000D01*
X179010000Y-71170000D02*
X181610000Y-71170000D01*
X179010000Y-68570000D02*
X180340000Y-68570000D01*
X179010000Y-73770000D02*
X194370000Y-73770000D01*
X179010000Y-102870000D02*
X181610000Y-102870000D01*
X181610000Y-102870000D02*
X181610000Y-100270000D01*
X181610000Y-100270000D02*
X194370000Y-100270000D01*
X194370000Y-105470000D02*
X194370000Y-100270000D01*
X179010000Y-105470000D02*
X194370000Y-105470000D01*
X179010000Y-100270000D02*
X180340000Y-100270000D01*
X179010000Y-105470000D02*
X179010000Y-102870000D01*
X179010000Y-101600000D02*
X179010000Y-100270000D01*
%LPC*%
D13*
X101600000Y-101600000D03*
D14*
X101600000Y-104140000D03*
X104140000Y-101600000D03*
X104140000Y-104140000D03*
X106680000Y-101600000D03*
X106680000Y-104140000D03*
X109220000Y-101600000D03*
X109220000Y-104140000D03*
X111760000Y-101600000D03*
X111760000Y-104140000D03*
X114300000Y-101600000D03*
X114300000Y-104140000D03*
D13*
X101600000Y-69900000D03*
D14*
X101600000Y-72440000D03*
X104140000Y-69900000D03*
X104140000Y-72440000D03*
X106680000Y-69900000D03*
X106680000Y-72440000D03*
X109220000Y-69900000D03*
X109220000Y-72440000D03*
X111760000Y-69900000D03*
X111760000Y-72440000D03*
X114300000Y-69900000D03*
X114300000Y-72440000D03*
D13*
X180340000Y-133300000D03*
D14*
X180340000Y-135840000D03*
X182880000Y-133300000D03*
X182880000Y-135840000D03*
X185420000Y-133300000D03*
X185420000Y-135840000D03*
X187960000Y-133300000D03*
X187960000Y-135840000D03*
X190500000Y-133300000D03*
X190500000Y-135840000D03*
X193040000Y-133300000D03*
X193040000Y-135840000D03*
D13*
X101600000Y-133300000D03*
D14*
X101600000Y-135840000D03*
X104140000Y-133300000D03*
X104140000Y-135840000D03*
X106680000Y-133300000D03*
X106680000Y-135840000D03*
X109220000Y-133300000D03*
X109220000Y-135840000D03*
X111760000Y-133300000D03*
X111760000Y-135840000D03*
X114300000Y-133300000D03*
X114300000Y-135840000D03*
D13*
X180340000Y-69900000D03*
D14*
X180340000Y-72440000D03*
X182880000Y-69900000D03*
X182880000Y-72440000D03*
X185420000Y-69900000D03*
X185420000Y-72440000D03*
X187960000Y-69900000D03*
X187960000Y-72440000D03*
X190500000Y-69900000D03*
X190500000Y-72440000D03*
X193040000Y-69900000D03*
X193040000Y-72440000D03*
D13*
X180340000Y-101600000D03*
D14*
X180340000Y-104140000D03*
X182880000Y-101600000D03*
X182880000Y-104140000D03*
X185420000Y-101600000D03*
X185420000Y-104140000D03*
X187960000Y-101600000D03*
X187960000Y-104140000D03*
X190500000Y-101600000D03*
X190500000Y-104140000D03*
X193040000Y-101600000D03*
X193040000Y-104140000D03*
D15*
X107950000Y-58470000D03*
D16*
X102870000Y-63550000D03*
X113030000Y-63550000D03*
D15*
X107950000Y-55930000D03*
D16*
X102870000Y-53390000D03*
X113030000Y-53390000D03*
D15*
X186690000Y-58470000D03*
D16*
X181610000Y-63550000D03*
X191770000Y-63550000D03*
X191770000Y-53390000D03*
X181610000Y-53390000D03*
D15*
X186690000Y-55930000D03*
X107950000Y-90170000D03*
D16*
X102870000Y-95250000D03*
X102870000Y-85090000D03*
X113030000Y-85090000D03*
X113030000Y-95250000D03*
D15*
X107950000Y-87630000D03*
X186690000Y-90170000D03*
X186690000Y-87630000D03*
D16*
X191770000Y-95250000D03*
X181610000Y-95250000D03*
X181610000Y-85090000D03*
X191770000Y-85090000D03*
D15*
X186690000Y-121870000D03*
D16*
X181610000Y-116790000D03*
D15*
X186690000Y-119330000D03*
D16*
X191770000Y-116790000D03*
X181610000Y-126950000D03*
X191770000Y-126950000D03*
X113030000Y-116790000D03*
X113030000Y-126950000D03*
D15*
X107950000Y-119330000D03*
D16*
X102870000Y-126950000D03*
X102870000Y-116790000D03*
D15*
X107950000Y-121870000D03*
M02*
