G04 #@! TF.GenerationSoftware,KiCad,Pcbnew,6.0.9-8da3e8f707~116~ubuntu20.04.1*
G04 #@! TF.CreationDate,2023-03-16T00:54:39+01:00*
G04 #@! TF.ProjectId,six_to_six_vertical,7369785f-746f-45f7-9369-785f76657274,rev?*
G04 #@! TF.SameCoordinates,Original*
G04 #@! TF.FileFunction,Soldermask,Bot*
G04 #@! TF.FilePolarity,Negative*
%FSLAX46Y46*%
G04 Gerber Fmt 4.6, Leading zero omitted, Abs format (unit mm)*
G04 Created by KiCad (PCBNEW 6.0.9-8da3e8f707~116~ubuntu20.04.1) date 2023-03-16 00:54:39*
%MOMM*%
%LPD*%
G01*
G04 APERTURE LIST*
%ADD10R,1.700000X1.700000*%
%ADD11O,1.700000X1.700000*%
%ADD12C,2.000000*%
%ADD13C,3.000000*%
G04 APERTURE END LIST*
D10*
X101600000Y-101600000D03*
D11*
X101600000Y-104140000D03*
X104140000Y-101600000D03*
X104140000Y-104140000D03*
X106680000Y-101600000D03*
X106680000Y-104140000D03*
X109220000Y-101600000D03*
X109220000Y-104140000D03*
X111760000Y-101600000D03*
X111760000Y-104140000D03*
X114300000Y-101600000D03*
X114300000Y-104140000D03*
D10*
X101600000Y-71120000D03*
D11*
X101600000Y-73660000D03*
X104140000Y-71120000D03*
X104140000Y-73660000D03*
X106680000Y-71120000D03*
X106680000Y-73660000D03*
X109220000Y-71120000D03*
X109220000Y-73660000D03*
X111760000Y-71120000D03*
X111760000Y-73660000D03*
X114300000Y-71120000D03*
X114300000Y-73660000D03*
D10*
X180340000Y-132080000D03*
D11*
X180340000Y-134620000D03*
X182880000Y-132080000D03*
X182880000Y-134620000D03*
X185420000Y-132080000D03*
X185420000Y-134620000D03*
X187960000Y-132080000D03*
X187960000Y-134620000D03*
X190500000Y-132080000D03*
X190500000Y-134620000D03*
X193040000Y-132080000D03*
X193040000Y-134620000D03*
D10*
X101600000Y-132080000D03*
D11*
X101600000Y-134620000D03*
X104140000Y-132080000D03*
X104140000Y-134620000D03*
X106680000Y-132080000D03*
X106680000Y-134620000D03*
X109220000Y-132080000D03*
X109220000Y-134620000D03*
X111760000Y-132080000D03*
X111760000Y-134620000D03*
X114300000Y-132080000D03*
X114300000Y-134620000D03*
D10*
X180340000Y-71120000D03*
D11*
X180340000Y-73660000D03*
X182880000Y-71120000D03*
X182880000Y-73660000D03*
X185420000Y-71120000D03*
X185420000Y-73660000D03*
X187960000Y-71120000D03*
X187960000Y-73660000D03*
X190500000Y-71120000D03*
X190500000Y-73660000D03*
X193040000Y-71120000D03*
X193040000Y-73660000D03*
D10*
X180340000Y-101600000D03*
D11*
X180340000Y-104140000D03*
X182880000Y-101600000D03*
X182880000Y-104140000D03*
X185420000Y-101600000D03*
X185420000Y-104140000D03*
X187960000Y-101600000D03*
X187960000Y-104140000D03*
X190500000Y-101600000D03*
X190500000Y-104140000D03*
X193040000Y-101600000D03*
X193040000Y-104140000D03*
D12*
X107950000Y-59690000D03*
D13*
X102870000Y-64770000D03*
X113030000Y-64770000D03*
D12*
X107950000Y-57150000D03*
D13*
X102870000Y-54610000D03*
X113030000Y-54610000D03*
D12*
X186690000Y-59690000D03*
D13*
X181610000Y-64770000D03*
X191770000Y-64770000D03*
X191770000Y-54610000D03*
X181610000Y-54610000D03*
D12*
X186690000Y-57150000D03*
X107950000Y-90170000D03*
D13*
X102870000Y-95250000D03*
X102870000Y-85090000D03*
X113030000Y-85090000D03*
X113030000Y-95250000D03*
D12*
X107950000Y-87630000D03*
X186690000Y-90170000D03*
X186690000Y-87630000D03*
D13*
X191770000Y-95250000D03*
X181610000Y-95250000D03*
X181610000Y-85090000D03*
X191770000Y-85090000D03*
D12*
X186690000Y-120650000D03*
D13*
X181610000Y-115570000D03*
D12*
X186690000Y-118110000D03*
D13*
X191770000Y-115570000D03*
X181610000Y-125730000D03*
X191770000Y-125730000D03*
D12*
X107950000Y-120650000D03*
D13*
X102870000Y-115570000D03*
X102870000Y-125730000D03*
D12*
X107950000Y-118110000D03*
D13*
X113030000Y-125730000D03*
X113030000Y-115570000D03*
M02*
