G04 #@! TF.GenerationSoftware,KiCad,Pcbnew,6.0.9-8da3e8f707~116~ubuntu20.04.1*
G04 #@! TF.CreationDate,2023-03-27T15:44:58+02:00*
G04 #@! TF.ProjectId,six_to_six_vertical,7369785f-746f-45f7-9369-785f76657274,rev?*
G04 #@! TF.SameCoordinates,Original*
G04 #@! TF.FileFunction,Legend,Top*
G04 #@! TF.FilePolarity,Positive*
%FSLAX46Y46*%
G04 Gerber Fmt 4.6, Leading zero omitted, Abs format (unit mm)*
G04 Created by KiCad (PCBNEW 6.0.9-8da3e8f707~116~ubuntu20.04.1) date 2023-03-27 15:44:58*
%MOMM*%
%LPD*%
G01*
G04 APERTURE LIST*
%ADD10C,0.150000*%
%ADD11C,0.300000*%
%ADD12C,0.120000*%
%ADD13R,1.700000X1.700000*%
%ADD14O,1.700000X1.700000*%
%ADD15C,2.000000*%
%ADD16C,3.000000*%
G04 APERTURE END LIST*
D10*
X140573333Y-60918595D02*
X140325714Y-60918595D01*
X140201904Y-60980500D01*
X140140000Y-61042404D01*
X140016190Y-61228119D01*
X139954285Y-61475738D01*
X139954285Y-61970976D01*
X140016190Y-62094785D01*
X140078095Y-62156690D01*
X140201904Y-62218595D01*
X140449523Y-62218595D01*
X140573333Y-62156690D01*
X140635238Y-62094785D01*
X140697142Y-61970976D01*
X140697142Y-61661452D01*
X140635238Y-61537642D01*
X140573333Y-61475738D01*
X140449523Y-61413833D01*
X140201904Y-61413833D01*
X140078095Y-61475738D01*
X140016190Y-61537642D01*
X139954285Y-61661452D01*
X142430476Y-62218595D02*
X142306666Y-62156690D01*
X142244761Y-62094785D01*
X142182857Y-61970976D01*
X142182857Y-61599547D01*
X142244761Y-61475738D01*
X142306666Y-61413833D01*
X142430476Y-61351928D01*
X142616190Y-61351928D01*
X142740000Y-61413833D01*
X142801904Y-61475738D01*
X142863809Y-61599547D01*
X142863809Y-61970976D01*
X142801904Y-62094785D01*
X142740000Y-62156690D01*
X142616190Y-62218595D01*
X142430476Y-62218595D01*
X143420952Y-61351928D02*
X143420952Y-62218595D01*
X143420952Y-61475738D02*
X143482857Y-61413833D01*
X143606666Y-61351928D01*
X143792380Y-61351928D01*
X143916190Y-61413833D01*
X143978095Y-61537642D01*
X143978095Y-62218595D01*
X146144761Y-60918595D02*
X145897142Y-60918595D01*
X145773333Y-60980500D01*
X145711428Y-61042404D01*
X145587619Y-61228119D01*
X145525714Y-61475738D01*
X145525714Y-61970976D01*
X145587619Y-62094785D01*
X145649523Y-62156690D01*
X145773333Y-62218595D01*
X146020952Y-62218595D01*
X146144761Y-62156690D01*
X146206666Y-62094785D01*
X146268571Y-61970976D01*
X146268571Y-61661452D01*
X146206666Y-61537642D01*
X146144761Y-61475738D01*
X146020952Y-61413833D01*
X145773333Y-61413833D01*
X145649523Y-61475738D01*
X145587619Y-61537642D01*
X145525714Y-61661452D01*
X148249523Y-61537642D02*
X148435238Y-61599547D01*
X148497142Y-61661452D01*
X148559047Y-61785261D01*
X148559047Y-61970976D01*
X148497142Y-62094785D01*
X148435238Y-62156690D01*
X148311428Y-62218595D01*
X147816190Y-62218595D01*
X147816190Y-60918595D01*
X148249523Y-60918595D01*
X148373333Y-60980500D01*
X148435238Y-61042404D01*
X148497142Y-61166214D01*
X148497142Y-61290023D01*
X148435238Y-61413833D01*
X148373333Y-61475738D01*
X148249523Y-61537642D01*
X147816190Y-61537642D01*
X149673333Y-62218595D02*
X149673333Y-61537642D01*
X149611428Y-61413833D01*
X149487619Y-61351928D01*
X149240000Y-61351928D01*
X149116190Y-61413833D01*
X149673333Y-62156690D02*
X149549523Y-62218595D01*
X149240000Y-62218595D01*
X149116190Y-62156690D01*
X149054285Y-62032880D01*
X149054285Y-61909071D01*
X149116190Y-61785261D01*
X149240000Y-61723357D01*
X149549523Y-61723357D01*
X149673333Y-61661452D01*
X150849523Y-62156690D02*
X150725714Y-62218595D01*
X150478095Y-62218595D01*
X150354285Y-62156690D01*
X150292380Y-62094785D01*
X150230476Y-61970976D01*
X150230476Y-61599547D01*
X150292380Y-61475738D01*
X150354285Y-61413833D01*
X150478095Y-61351928D01*
X150725714Y-61351928D01*
X150849523Y-61413833D01*
X151406666Y-62218595D02*
X151406666Y-60918595D01*
X151530476Y-61723357D02*
X151901904Y-62218595D01*
X151901904Y-61351928D02*
X151406666Y-61847166D01*
X152459047Y-61351928D02*
X152459047Y-62651928D01*
X152459047Y-61413833D02*
X152582857Y-61351928D01*
X152830476Y-61351928D01*
X152954285Y-61413833D01*
X153016190Y-61475738D01*
X153078095Y-61599547D01*
X153078095Y-61970976D01*
X153016190Y-62094785D01*
X152954285Y-62156690D01*
X152830476Y-62218595D01*
X152582857Y-62218595D01*
X152459047Y-62156690D01*
X153820952Y-62218595D02*
X153697142Y-62156690D01*
X153635238Y-62032880D01*
X153635238Y-60918595D01*
X154873333Y-62218595D02*
X154873333Y-61537642D01*
X154811428Y-61413833D01*
X154687619Y-61351928D01*
X154440000Y-61351928D01*
X154316190Y-61413833D01*
X154873333Y-62156690D02*
X154749523Y-62218595D01*
X154440000Y-62218595D01*
X154316190Y-62156690D01*
X154254285Y-62032880D01*
X154254285Y-61909071D01*
X154316190Y-61785261D01*
X154440000Y-61723357D01*
X154749523Y-61723357D01*
X154873333Y-61661452D01*
X155492380Y-61351928D02*
X155492380Y-62218595D01*
X155492380Y-61475738D02*
X155554285Y-61413833D01*
X155678095Y-61351928D01*
X155863809Y-61351928D01*
X155987619Y-61413833D01*
X156049523Y-61537642D01*
X156049523Y-62218595D01*
X157163809Y-62156690D02*
X157040000Y-62218595D01*
X156792380Y-62218595D01*
X156668571Y-62156690D01*
X156606666Y-62032880D01*
X156606666Y-61537642D01*
X156668571Y-61413833D01*
X156792380Y-61351928D01*
X157040000Y-61351928D01*
X157163809Y-61413833D01*
X157225714Y-61537642D01*
X157225714Y-61661452D01*
X156606666Y-61785261D01*
X145092380Y-64311595D02*
X145092380Y-63444928D01*
X145092380Y-63692547D02*
X145154285Y-63568738D01*
X145216190Y-63506833D01*
X145340000Y-63444928D01*
X145463809Y-63444928D01*
X146392380Y-64249690D02*
X146268571Y-64311595D01*
X146020952Y-64311595D01*
X145897142Y-64249690D01*
X145835238Y-64125880D01*
X145835238Y-63630642D01*
X145897142Y-63506833D01*
X146020952Y-63444928D01*
X146268571Y-63444928D01*
X146392380Y-63506833D01*
X146454285Y-63630642D01*
X146454285Y-63754452D01*
X145835238Y-63878261D01*
X146887619Y-63444928D02*
X147197142Y-64311595D01*
X147506666Y-63444928D01*
X148001904Y-64187785D02*
X148063809Y-64249690D01*
X148001904Y-64311595D01*
X147940000Y-64249690D01*
X148001904Y-64187785D01*
X148001904Y-64311595D01*
X148001904Y-63506833D02*
X148063809Y-63568738D01*
X148001904Y-63630642D01*
X147940000Y-63568738D01*
X148001904Y-63506833D01*
X148001904Y-63630642D01*
X150292380Y-64311595D02*
X149549523Y-64311595D01*
X149920952Y-64311595D02*
X149920952Y-63011595D01*
X149797142Y-63197309D01*
X149673333Y-63321119D01*
X149549523Y-63383023D01*
X150849523Y-64187785D02*
X150911428Y-64249690D01*
X150849523Y-64311595D01*
X150787619Y-64249690D01*
X150849523Y-64187785D01*
X150849523Y-64311595D01*
X151716190Y-63011595D02*
X151840000Y-63011595D01*
X151963809Y-63073500D01*
X152025714Y-63135404D01*
X152087619Y-63259214D01*
X152149523Y-63506833D01*
X152149523Y-63816357D01*
X152087619Y-64063976D01*
X152025714Y-64187785D01*
X151963809Y-64249690D01*
X151840000Y-64311595D01*
X151716190Y-64311595D01*
X151592380Y-64249690D01*
X151530476Y-64187785D01*
X151468571Y-64063976D01*
X151406666Y-63816357D01*
X151406666Y-63506833D01*
X151468571Y-63259214D01*
X151530476Y-63135404D01*
X151592380Y-63073500D01*
X151716190Y-63011595D01*
X144009047Y-66404595D02*
X143266190Y-66404595D01*
X143637619Y-66404595D02*
X143637619Y-65104595D01*
X143513809Y-65290309D01*
X143390000Y-65414119D01*
X143266190Y-65476023D01*
X144504285Y-65228404D02*
X144566190Y-65166500D01*
X144690000Y-65104595D01*
X144999523Y-65104595D01*
X145123333Y-65166500D01*
X145185238Y-65228404D01*
X145247142Y-65352214D01*
X145247142Y-65476023D01*
X145185238Y-65661738D01*
X144442380Y-66404595D01*
X145247142Y-66404595D01*
X145804285Y-66280785D02*
X145866190Y-66342690D01*
X145804285Y-66404595D01*
X145742380Y-66342690D01*
X145804285Y-66280785D01*
X145804285Y-66404595D01*
X146670952Y-65104595D02*
X146794761Y-65104595D01*
X146918571Y-65166500D01*
X146980476Y-65228404D01*
X147042380Y-65352214D01*
X147104285Y-65599833D01*
X147104285Y-65909357D01*
X147042380Y-66156976D01*
X146980476Y-66280785D01*
X146918571Y-66342690D01*
X146794761Y-66404595D01*
X146670952Y-66404595D01*
X146547142Y-66342690D01*
X146485238Y-66280785D01*
X146423333Y-66156976D01*
X146361428Y-65909357D01*
X146361428Y-65599833D01*
X146423333Y-65352214D01*
X146485238Y-65228404D01*
X146547142Y-65166500D01*
X146670952Y-65104595D01*
X147537619Y-65104595D02*
X148342380Y-65104595D01*
X147909047Y-65599833D01*
X148094761Y-65599833D01*
X148218571Y-65661738D01*
X148280476Y-65723642D01*
X148342380Y-65847452D01*
X148342380Y-66156976D01*
X148280476Y-66280785D01*
X148218571Y-66342690D01*
X148094761Y-66404595D01*
X147723333Y-66404595D01*
X147599523Y-66342690D01*
X147537619Y-66280785D01*
X148899523Y-66280785D02*
X148961428Y-66342690D01*
X148899523Y-66404595D01*
X148837619Y-66342690D01*
X148899523Y-66280785D01*
X148899523Y-66404595D01*
X149456666Y-65228404D02*
X149518571Y-65166500D01*
X149642380Y-65104595D01*
X149951904Y-65104595D01*
X150075714Y-65166500D01*
X150137619Y-65228404D01*
X150199523Y-65352214D01*
X150199523Y-65476023D01*
X150137619Y-65661738D01*
X149394761Y-66404595D01*
X150199523Y-66404595D01*
X151004285Y-65104595D02*
X151128095Y-65104595D01*
X151251904Y-65166500D01*
X151313809Y-65228404D01*
X151375714Y-65352214D01*
X151437619Y-65599833D01*
X151437619Y-65909357D01*
X151375714Y-66156976D01*
X151313809Y-66280785D01*
X151251904Y-66342690D01*
X151128095Y-66404595D01*
X151004285Y-66404595D01*
X150880476Y-66342690D01*
X150818571Y-66280785D01*
X150756666Y-66156976D01*
X150694761Y-65909357D01*
X150694761Y-65599833D01*
X150756666Y-65352214D01*
X150818571Y-65228404D01*
X150880476Y-65166500D01*
X151004285Y-65104595D01*
X151932857Y-65228404D02*
X151994761Y-65166500D01*
X152118571Y-65104595D01*
X152428095Y-65104595D01*
X152551904Y-65166500D01*
X152613809Y-65228404D01*
X152675714Y-65352214D01*
X152675714Y-65476023D01*
X152613809Y-65661738D01*
X151870952Y-66404595D01*
X152675714Y-66404595D01*
X153109047Y-65104595D02*
X153913809Y-65104595D01*
X153480476Y-65599833D01*
X153666190Y-65599833D01*
X153790000Y-65661738D01*
X153851904Y-65723642D01*
X153913809Y-65847452D01*
X153913809Y-66156976D01*
X153851904Y-66280785D01*
X153790000Y-66342690D01*
X153666190Y-66404595D01*
X153294761Y-66404595D01*
X153170952Y-66342690D01*
X153109047Y-66280785D01*
X142275714Y-68435690D02*
X142461428Y-68497595D01*
X142770952Y-68497595D01*
X142894761Y-68435690D01*
X142956666Y-68373785D01*
X143018571Y-68249976D01*
X143018571Y-68126166D01*
X142956666Y-68002357D01*
X142894761Y-67940452D01*
X142770952Y-67878547D01*
X142523333Y-67816642D01*
X142399523Y-67754738D01*
X142337619Y-67692833D01*
X142275714Y-67569023D01*
X142275714Y-67445214D01*
X142337619Y-67321404D01*
X142399523Y-67259500D01*
X142523333Y-67197595D01*
X142832857Y-67197595D01*
X143018571Y-67259500D01*
X144194761Y-67197595D02*
X143575714Y-67197595D01*
X143513809Y-67816642D01*
X143575714Y-67754738D01*
X143699523Y-67692833D01*
X144009047Y-67692833D01*
X144132857Y-67754738D01*
X144194761Y-67816642D01*
X144256666Y-67940452D01*
X144256666Y-68249976D01*
X144194761Y-68373785D01*
X144132857Y-68435690D01*
X144009047Y-68497595D01*
X143699523Y-68497595D01*
X143575714Y-68435690D01*
X143513809Y-68373785D01*
X144875714Y-68497595D02*
X145123333Y-68497595D01*
X145247142Y-68435690D01*
X145309047Y-68373785D01*
X145432857Y-68188071D01*
X145494761Y-67940452D01*
X145494761Y-67445214D01*
X145432857Y-67321404D01*
X145370952Y-67259500D01*
X145247142Y-67197595D01*
X144999523Y-67197595D01*
X144875714Y-67259500D01*
X144813809Y-67321404D01*
X144751904Y-67445214D01*
X144751904Y-67754738D01*
X144813809Y-67878547D01*
X144875714Y-67940452D01*
X144999523Y-68002357D01*
X145247142Y-68002357D01*
X145370952Y-67940452D01*
X145432857Y-67878547D01*
X145494761Y-67754738D01*
X146051904Y-68497595D02*
X146051904Y-67197595D01*
X146485238Y-68126166D01*
X146918571Y-67197595D01*
X146918571Y-68497595D01*
X147413809Y-67197595D02*
X148280476Y-67197595D01*
X147413809Y-68497595D01*
X148280476Y-68497595D01*
X148837619Y-68435690D02*
X148837619Y-68497595D01*
X148775714Y-68621404D01*
X148713809Y-68683309D01*
X150323333Y-68435690D02*
X150509047Y-68497595D01*
X150818571Y-68497595D01*
X150942380Y-68435690D01*
X151004285Y-68373785D01*
X151066190Y-68249976D01*
X151066190Y-68126166D01*
X151004285Y-68002357D01*
X150942380Y-67940452D01*
X150818571Y-67878547D01*
X150570952Y-67816642D01*
X150447142Y-67754738D01*
X150385238Y-67692833D01*
X150323333Y-67569023D01*
X150323333Y-67445214D01*
X150385238Y-67321404D01*
X150447142Y-67259500D01*
X150570952Y-67197595D01*
X150880476Y-67197595D01*
X151066190Y-67259500D01*
X152242380Y-67197595D02*
X151623333Y-67197595D01*
X151561428Y-67816642D01*
X151623333Y-67754738D01*
X151747142Y-67692833D01*
X152056666Y-67692833D01*
X152180476Y-67754738D01*
X152242380Y-67816642D01*
X152304285Y-67940452D01*
X152304285Y-68249976D01*
X152242380Y-68373785D01*
X152180476Y-68435690D01*
X152056666Y-68497595D01*
X151747142Y-68497595D01*
X151623333Y-68435690D01*
X151561428Y-68373785D01*
X153480476Y-67197595D02*
X152861428Y-67197595D01*
X152799523Y-67816642D01*
X152861428Y-67754738D01*
X152985238Y-67692833D01*
X153294761Y-67692833D01*
X153418571Y-67754738D01*
X153480476Y-67816642D01*
X153542380Y-67940452D01*
X153542380Y-68249976D01*
X153480476Y-68373785D01*
X153418571Y-68435690D01*
X153294761Y-68497595D01*
X152985238Y-68497595D01*
X152861428Y-68435690D01*
X152799523Y-68373785D01*
X154347142Y-67197595D02*
X154594761Y-67197595D01*
X154718571Y-67259500D01*
X154842380Y-67383309D01*
X154904285Y-67630928D01*
X154904285Y-68064261D01*
X154842380Y-68311880D01*
X154718571Y-68435690D01*
X154594761Y-68497595D01*
X154347142Y-68497595D01*
X154223333Y-68435690D01*
X154099523Y-68311880D01*
X154037619Y-68064261D01*
X154037619Y-67630928D01*
X154099523Y-67383309D01*
X154223333Y-67259500D01*
X154347142Y-67197595D01*
D11*
X118713333Y-101774761D02*
X118713333Y-103203333D01*
X118618095Y-103489047D01*
X118427619Y-103679523D01*
X118141904Y-103774761D01*
X117951428Y-103774761D01*
X119475238Y-101774761D02*
X120713333Y-101774761D01*
X120046666Y-102536666D01*
X120332380Y-102536666D01*
X120522857Y-102631904D01*
X120618095Y-102727142D01*
X120713333Y-102917619D01*
X120713333Y-103393809D01*
X120618095Y-103584285D01*
X120522857Y-103679523D01*
X120332380Y-103774761D01*
X119760952Y-103774761D01*
X119570476Y-103679523D01*
X119475238Y-103584285D01*
X118713333Y-70074761D02*
X118713333Y-71503333D01*
X118618095Y-71789047D01*
X118427619Y-71979523D01*
X118141904Y-72074761D01*
X117951428Y-72074761D01*
X120713333Y-72074761D02*
X119570476Y-72074761D01*
X120141904Y-72074761D02*
X120141904Y-70074761D01*
X119951428Y-70360476D01*
X119760952Y-70550952D01*
X119570476Y-70646190D01*
X174593333Y-133474761D02*
X174593333Y-134903333D01*
X174498095Y-135189047D01*
X174307619Y-135379523D01*
X174021904Y-135474761D01*
X173831428Y-135474761D01*
X176402857Y-133474761D02*
X176021904Y-133474761D01*
X175831428Y-133570000D01*
X175736190Y-133665238D01*
X175545714Y-133950952D01*
X175450476Y-134331904D01*
X175450476Y-135093809D01*
X175545714Y-135284285D01*
X175640952Y-135379523D01*
X175831428Y-135474761D01*
X176212380Y-135474761D01*
X176402857Y-135379523D01*
X176498095Y-135284285D01*
X176593333Y-135093809D01*
X176593333Y-134617619D01*
X176498095Y-134427142D01*
X176402857Y-134331904D01*
X176212380Y-134236666D01*
X175831428Y-134236666D01*
X175640952Y-134331904D01*
X175545714Y-134427142D01*
X175450476Y-134617619D01*
X118713333Y-133474761D02*
X118713333Y-134903333D01*
X118618095Y-135189047D01*
X118427619Y-135379523D01*
X118141904Y-135474761D01*
X117951428Y-135474761D01*
X120618095Y-133474761D02*
X119665714Y-133474761D01*
X119570476Y-134427142D01*
X119665714Y-134331904D01*
X119856190Y-134236666D01*
X120332380Y-134236666D01*
X120522857Y-134331904D01*
X120618095Y-134427142D01*
X120713333Y-134617619D01*
X120713333Y-135093809D01*
X120618095Y-135284285D01*
X120522857Y-135379523D01*
X120332380Y-135474761D01*
X119856190Y-135474761D01*
X119665714Y-135379523D01*
X119570476Y-135284285D01*
X174593333Y-70074761D02*
X174593333Y-71503333D01*
X174498095Y-71789047D01*
X174307619Y-71979523D01*
X174021904Y-72074761D01*
X173831428Y-72074761D01*
X175450476Y-70265238D02*
X175545714Y-70170000D01*
X175736190Y-70074761D01*
X176212380Y-70074761D01*
X176402857Y-70170000D01*
X176498095Y-70265238D01*
X176593333Y-70455714D01*
X176593333Y-70646190D01*
X176498095Y-70931904D01*
X175355238Y-72074761D01*
X176593333Y-72074761D01*
X174593333Y-101774761D02*
X174593333Y-103203333D01*
X174498095Y-103489047D01*
X174307619Y-103679523D01*
X174021904Y-103774761D01*
X173831428Y-103774761D01*
X176402857Y-102441428D02*
X176402857Y-103774761D01*
X175926666Y-101679523D02*
X175450476Y-103108095D01*
X176688571Y-103108095D01*
D12*
X100270000Y-100270000D02*
X101600000Y-100270000D01*
X115630000Y-105470000D02*
X115630000Y-100270000D01*
X100270000Y-105470000D02*
X100270000Y-102870000D01*
X100270000Y-101600000D02*
X100270000Y-100270000D01*
X102870000Y-102870000D02*
X102870000Y-100270000D01*
X100270000Y-105470000D02*
X115630000Y-105470000D01*
X100270000Y-102870000D02*
X102870000Y-102870000D01*
X102870000Y-100270000D02*
X115630000Y-100270000D01*
X100270000Y-71170000D02*
X102870000Y-71170000D01*
X102870000Y-68570000D02*
X115630000Y-68570000D01*
X100270000Y-69900000D02*
X100270000Y-68570000D01*
X115630000Y-73770000D02*
X115630000Y-68570000D01*
X100270000Y-73770000D02*
X100270000Y-71170000D01*
X100270000Y-68570000D02*
X101600000Y-68570000D01*
X100270000Y-73770000D02*
X115630000Y-73770000D01*
X102870000Y-71170000D02*
X102870000Y-68570000D01*
X179010000Y-137170000D02*
X194370000Y-137170000D01*
X181610000Y-131970000D02*
X194370000Y-131970000D01*
X194370000Y-137170000D02*
X194370000Y-131970000D01*
X181610000Y-134570000D02*
X181610000Y-131970000D01*
X179010000Y-137170000D02*
X179010000Y-134570000D01*
X179010000Y-133300000D02*
X179010000Y-131970000D01*
X179010000Y-134570000D02*
X181610000Y-134570000D01*
X179010000Y-131970000D02*
X180340000Y-131970000D01*
X100270000Y-137170000D02*
X115630000Y-137170000D01*
X102870000Y-134570000D02*
X102870000Y-131970000D01*
X100270000Y-131970000D02*
X101600000Y-131970000D01*
X100270000Y-134570000D02*
X102870000Y-134570000D01*
X100270000Y-137170000D02*
X100270000Y-134570000D01*
X100270000Y-133300000D02*
X100270000Y-131970000D01*
X102870000Y-131970000D02*
X115630000Y-131970000D01*
X115630000Y-137170000D02*
X115630000Y-131970000D01*
X194370000Y-73770000D02*
X194370000Y-68570000D01*
X179010000Y-69900000D02*
X179010000Y-68570000D01*
X179010000Y-73770000D02*
X179010000Y-71170000D01*
X181610000Y-71170000D02*
X181610000Y-68570000D01*
X181610000Y-68570000D02*
X194370000Y-68570000D01*
X179010000Y-71170000D02*
X181610000Y-71170000D01*
X179010000Y-68570000D02*
X180340000Y-68570000D01*
X179010000Y-73770000D02*
X194370000Y-73770000D01*
X179010000Y-102870000D02*
X181610000Y-102870000D01*
X181610000Y-102870000D02*
X181610000Y-100270000D01*
X181610000Y-100270000D02*
X194370000Y-100270000D01*
X194370000Y-105470000D02*
X194370000Y-100270000D01*
X179010000Y-105470000D02*
X194370000Y-105470000D01*
X179010000Y-100270000D02*
X180340000Y-100270000D01*
X179010000Y-105470000D02*
X179010000Y-102870000D01*
X179010000Y-101600000D02*
X179010000Y-100270000D01*
%LPC*%
D13*
X101600000Y-101600000D03*
D14*
X101600000Y-104140000D03*
X104140000Y-101600000D03*
X104140000Y-104140000D03*
X106680000Y-101600000D03*
X106680000Y-104140000D03*
X109220000Y-101600000D03*
X109220000Y-104140000D03*
X111760000Y-101600000D03*
X111760000Y-104140000D03*
X114300000Y-101600000D03*
X114300000Y-104140000D03*
D13*
X101600000Y-69900000D03*
D14*
X101600000Y-72440000D03*
X104140000Y-69900000D03*
X104140000Y-72440000D03*
X106680000Y-69900000D03*
X106680000Y-72440000D03*
X109220000Y-69900000D03*
X109220000Y-72440000D03*
X111760000Y-69900000D03*
X111760000Y-72440000D03*
X114300000Y-69900000D03*
X114300000Y-72440000D03*
D13*
X180340000Y-133300000D03*
D14*
X180340000Y-135840000D03*
X182880000Y-133300000D03*
X182880000Y-135840000D03*
X185420000Y-133300000D03*
X185420000Y-135840000D03*
X187960000Y-133300000D03*
X187960000Y-135840000D03*
X190500000Y-133300000D03*
X190500000Y-135840000D03*
X193040000Y-133300000D03*
X193040000Y-135840000D03*
D13*
X101600000Y-133300000D03*
D14*
X101600000Y-135840000D03*
X104140000Y-133300000D03*
X104140000Y-135840000D03*
X106680000Y-133300000D03*
X106680000Y-135840000D03*
X109220000Y-133300000D03*
X109220000Y-135840000D03*
X111760000Y-133300000D03*
X111760000Y-135840000D03*
X114300000Y-133300000D03*
X114300000Y-135840000D03*
D13*
X180340000Y-69900000D03*
D14*
X180340000Y-72440000D03*
X182880000Y-69900000D03*
X182880000Y-72440000D03*
X185420000Y-69900000D03*
X185420000Y-72440000D03*
X187960000Y-69900000D03*
X187960000Y-72440000D03*
X190500000Y-69900000D03*
X190500000Y-72440000D03*
X193040000Y-69900000D03*
X193040000Y-72440000D03*
D13*
X180340000Y-101600000D03*
D14*
X180340000Y-104140000D03*
X182880000Y-101600000D03*
X182880000Y-104140000D03*
X185420000Y-101600000D03*
X185420000Y-104140000D03*
X187960000Y-101600000D03*
X187960000Y-104140000D03*
X190500000Y-101600000D03*
X190500000Y-104140000D03*
X193040000Y-101600000D03*
X193040000Y-104140000D03*
D15*
X107950000Y-58470000D03*
D16*
X102870000Y-63550000D03*
X113030000Y-63550000D03*
D15*
X107950000Y-55930000D03*
D16*
X102870000Y-53390000D03*
X113030000Y-53390000D03*
D15*
X186690000Y-58470000D03*
D16*
X181610000Y-63550000D03*
X191770000Y-63550000D03*
X191770000Y-53390000D03*
X181610000Y-53390000D03*
D15*
X186690000Y-55930000D03*
X107950000Y-90170000D03*
D16*
X102870000Y-95250000D03*
X102870000Y-85090000D03*
X113030000Y-85090000D03*
X113030000Y-95250000D03*
D15*
X107950000Y-87630000D03*
X186690000Y-90170000D03*
X186690000Y-87630000D03*
D16*
X191770000Y-95250000D03*
X181610000Y-95250000D03*
X181610000Y-85090000D03*
X191770000Y-85090000D03*
D15*
X186690000Y-121870000D03*
D16*
X181610000Y-116790000D03*
D15*
X186690000Y-119330000D03*
D16*
X191770000Y-116790000D03*
X181610000Y-126950000D03*
X191770000Y-126950000D03*
D15*
X107950000Y-121870000D03*
D16*
X102870000Y-116790000D03*
X102870000Y-126950000D03*
D15*
X107950000Y-119330000D03*
D16*
X113030000Y-126950000D03*
X113030000Y-116790000D03*
M02*
