G04 #@! TF.GenerationSoftware,KiCad,Pcbnew,6.0.9-8da3e8f707~116~ubuntu20.04.1*
G04 #@! TF.CreationDate,2023-03-20T21:31:30+01:00*
G04 #@! TF.ProjectId,six_to_six_vertical,7369785f-746f-45f7-9369-785f76657274,rev?*
G04 #@! TF.SameCoordinates,Original*
G04 #@! TF.FileFunction,Legend,Bot*
G04 #@! TF.FilePolarity,Positive*
%FSLAX46Y46*%
G04 Gerber Fmt 4.6, Leading zero omitted, Abs format (unit mm)*
G04 Created by KiCad (PCBNEW 6.0.9-8da3e8f707~116~ubuntu20.04.1) date 2023-03-20 21:31:30*
%MOMM*%
%LPD*%
G01*
G04 APERTURE LIST*
%ADD10C,0.300000*%
%ADD11C,0.152400*%
%ADD12C,0.120000*%
%ADD13R,1.700000X1.700000*%
%ADD14O,1.700000X1.700000*%
%ADD15C,2.000000*%
%ADD16C,3.000000*%
G04 APERTURE END LIST*
D10*
X124491666Y-57374761D02*
X124491666Y-58803333D01*
X124586904Y-59089047D01*
X124777380Y-59279523D01*
X125063095Y-59374761D01*
X125253571Y-59374761D01*
X123729761Y-57374761D02*
X122396428Y-57374761D01*
X123253571Y-59374761D01*
X173386666Y-57374761D02*
X173386666Y-58803333D01*
X173481904Y-59089047D01*
X173672380Y-59279523D01*
X173958095Y-59374761D01*
X174148571Y-59374761D01*
X172148571Y-58231904D02*
X172339047Y-58136666D01*
X172434285Y-58041428D01*
X172529523Y-57850952D01*
X172529523Y-57755714D01*
X172434285Y-57565238D01*
X172339047Y-57470000D01*
X172148571Y-57374761D01*
X171767619Y-57374761D01*
X171577142Y-57470000D01*
X171481904Y-57565238D01*
X171386666Y-57755714D01*
X171386666Y-57850952D01*
X171481904Y-58041428D01*
X171577142Y-58136666D01*
X171767619Y-58231904D01*
X172148571Y-58231904D01*
X172339047Y-58327142D01*
X172434285Y-58422380D01*
X172529523Y-58612857D01*
X172529523Y-58993809D01*
X172434285Y-59184285D01*
X172339047Y-59279523D01*
X172148571Y-59374761D01*
X171767619Y-59374761D01*
X171577142Y-59279523D01*
X171481904Y-59184285D01*
X171386666Y-58993809D01*
X171386666Y-58612857D01*
X171481904Y-58422380D01*
X171577142Y-58327142D01*
X171767619Y-58231904D01*
X124491666Y-89074761D02*
X124491666Y-90503333D01*
X124586904Y-90789047D01*
X124777380Y-90979523D01*
X125063095Y-91074761D01*
X125253571Y-91074761D01*
X123444047Y-91074761D02*
X123063095Y-91074761D01*
X122872619Y-90979523D01*
X122777380Y-90884285D01*
X122586904Y-90598571D01*
X122491666Y-90217619D01*
X122491666Y-89455714D01*
X122586904Y-89265238D01*
X122682142Y-89170000D01*
X122872619Y-89074761D01*
X123253571Y-89074761D01*
X123444047Y-89170000D01*
X123539285Y-89265238D01*
X123634523Y-89455714D01*
X123634523Y-89931904D01*
X123539285Y-90122380D01*
X123444047Y-90217619D01*
X123253571Y-90312857D01*
X122872619Y-90312857D01*
X122682142Y-90217619D01*
X122586904Y-90122380D01*
X122491666Y-89931904D01*
X173069047Y-89074761D02*
X173069047Y-90503333D01*
X173164285Y-90789047D01*
X173354761Y-90979523D01*
X173640476Y-91074761D01*
X173830952Y-91074761D01*
X171069047Y-91074761D02*
X172211904Y-91074761D01*
X171640476Y-91074761D02*
X171640476Y-89074761D01*
X171830952Y-89360476D01*
X172021428Y-89550952D01*
X172211904Y-89646190D01*
X169830952Y-89074761D02*
X169640476Y-89074761D01*
X169450000Y-89170000D01*
X169354761Y-89265238D01*
X169259523Y-89455714D01*
X169164285Y-89836666D01*
X169164285Y-90312857D01*
X169259523Y-90693809D01*
X169354761Y-90884285D01*
X169450000Y-90979523D01*
X169640476Y-91074761D01*
X169830952Y-91074761D01*
X170021428Y-90979523D01*
X170116666Y-90884285D01*
X170211904Y-90693809D01*
X170307142Y-90312857D01*
X170307142Y-89836666D01*
X170211904Y-89455714D01*
X170116666Y-89265238D01*
X170021428Y-89170000D01*
X169830952Y-89074761D01*
X173069047Y-120774761D02*
X173069047Y-122203333D01*
X173164285Y-122489047D01*
X173354761Y-122679523D01*
X173640476Y-122774761D01*
X173830952Y-122774761D01*
X171069047Y-122774761D02*
X172211904Y-122774761D01*
X171640476Y-122774761D02*
X171640476Y-120774761D01*
X171830952Y-121060476D01*
X172021428Y-121250952D01*
X172211904Y-121346190D01*
X170307142Y-120965238D02*
X170211904Y-120870000D01*
X170021428Y-120774761D01*
X169545238Y-120774761D01*
X169354761Y-120870000D01*
X169259523Y-120965238D01*
X169164285Y-121155714D01*
X169164285Y-121346190D01*
X169259523Y-121631904D01*
X170402380Y-122774761D01*
X169164285Y-122774761D01*
X124174047Y-120774761D02*
X124174047Y-122203333D01*
X124269285Y-122489047D01*
X124459761Y-122679523D01*
X124745476Y-122774761D01*
X124935952Y-122774761D01*
X122174047Y-122774761D02*
X123316904Y-122774761D01*
X122745476Y-122774761D02*
X122745476Y-120774761D01*
X122935952Y-121060476D01*
X123126428Y-121250952D01*
X123316904Y-121346190D01*
X120269285Y-122774761D02*
X121412142Y-122774761D01*
X120840714Y-122774761D02*
X120840714Y-120774761D01*
X121031190Y-121060476D01*
X121221666Y-121250952D01*
X121412142Y-121346190D01*
D11*
X99771200Y-50951600D02*
X116128800Y-50951600D01*
X116128800Y-65988400D02*
X107950000Y-65988400D01*
X116128800Y-50951600D02*
X116128800Y-65988400D01*
X107950000Y-65988400D02*
X99771200Y-65988400D01*
X99771200Y-65988400D02*
X99771200Y-50951600D01*
D12*
X104140000Y-64819999D02*
G75*
G03*
X111252000Y-65074000I3785887J6309808D01*
G01*
X114554001Y-61772000D02*
G75*
G03*
X114300000Y-54660000I-6563798J3326114D01*
G01*
X111760000Y-52120001D02*
G75*
G03*
X104140000Y-52120001I-3810000J-6349999D01*
G01*
X101600001Y-54660000D02*
G75*
G03*
X101600001Y-62280000I6349999J-3810000D01*
G01*
D11*
X178511200Y-50951600D02*
X194868800Y-50951600D01*
X178511200Y-65988400D02*
X178511200Y-50951600D01*
X186690000Y-65988400D02*
X178511200Y-65988400D01*
X194868800Y-65988400D02*
X186690000Y-65988400D01*
X194868800Y-50951600D02*
X194868800Y-65988400D01*
D12*
X180340001Y-54660000D02*
G75*
G03*
X180340001Y-62280000I6349999J-3810000D01*
G01*
X190500000Y-52120001D02*
G75*
G03*
X182880000Y-52120001I-3810000J-6349999D01*
G01*
X193294001Y-61772000D02*
G75*
G03*
X193040000Y-54660000I-6563798J3326114D01*
G01*
X182880000Y-64819999D02*
G75*
G03*
X189992000Y-65074000I3785887J6309808D01*
G01*
D11*
X99771200Y-97688400D02*
X99771200Y-82651600D01*
X99771200Y-82651600D02*
X116128800Y-82651600D01*
X116128800Y-97688400D02*
X107950000Y-97688400D01*
X107950000Y-97688400D02*
X99771200Y-97688400D01*
X116128800Y-82651600D02*
X116128800Y-97688400D01*
D12*
X101600001Y-86360000D02*
G75*
G03*
X101600001Y-93980000I6349999J-3810000D01*
G01*
X111760000Y-83820001D02*
G75*
G03*
X104140000Y-83820001I-3810000J-6349999D01*
G01*
X104140000Y-96519999D02*
G75*
G03*
X111252000Y-96774000I3785887J6309808D01*
G01*
X114554001Y-93472000D02*
G75*
G03*
X114300000Y-86360000I-6563798J3326114D01*
G01*
D11*
X186690000Y-97688400D02*
X178511200Y-97688400D01*
X194868800Y-97688400D02*
X186690000Y-97688400D01*
X178511200Y-82651600D02*
X194868800Y-82651600D01*
X194868800Y-82651600D02*
X194868800Y-97688400D01*
X178511200Y-97688400D02*
X178511200Y-82651600D01*
D12*
X182880000Y-96519999D02*
G75*
G03*
X189992000Y-96774000I3785887J6309808D01*
G01*
X180340001Y-86360000D02*
G75*
G03*
X180340001Y-93980000I6349999J-3810000D01*
G01*
X193294001Y-93472000D02*
G75*
G03*
X193040000Y-86360000I-6563798J3326114D01*
G01*
X190500000Y-83820001D02*
G75*
G03*
X182880000Y-83820001I-3810000J-6349999D01*
G01*
D11*
X194868800Y-129388400D02*
X186690000Y-129388400D01*
X194868800Y-114351600D02*
X194868800Y-129388400D01*
X178511200Y-129388400D02*
X178511200Y-114351600D01*
X178511200Y-114351600D02*
X194868800Y-114351600D01*
X186690000Y-129388400D02*
X178511200Y-129388400D01*
D12*
X193294001Y-125172000D02*
G75*
G03*
X193040000Y-118060000I-6563798J3326114D01*
G01*
X182880000Y-128219999D02*
G75*
G03*
X189992000Y-128474000I3785887J6309808D01*
G01*
X180340001Y-118060000D02*
G75*
G03*
X180340001Y-125680000I6349999J-3810000D01*
G01*
X190500000Y-115520001D02*
G75*
G03*
X182880000Y-115520001I-3810000J-6349999D01*
G01*
X104140000Y-128219999D02*
G75*
G03*
X111252000Y-128474000I3785887J6309808D01*
G01*
X111760000Y-115520001D02*
G75*
G03*
X104140000Y-115520001I-3810000J-6349999D01*
G01*
X114554001Y-125172000D02*
G75*
G03*
X114300000Y-118060000I-6563798J3326114D01*
G01*
X101600001Y-118060000D02*
G75*
G03*
X101600001Y-125680000I6349999J-3810000D01*
G01*
D11*
X116128800Y-129388400D02*
X107950000Y-129388400D01*
X107950000Y-129388400D02*
X99771200Y-129388400D01*
X99771200Y-114351600D02*
X116128800Y-114351600D01*
X99771200Y-129388400D02*
X99771200Y-114351600D01*
X116128800Y-114351600D02*
X116128800Y-129388400D01*
%LPC*%
D13*
X101600000Y-101600000D03*
D14*
X101600000Y-104140000D03*
X104140000Y-101600000D03*
X104140000Y-104140000D03*
X106680000Y-101600000D03*
X106680000Y-104140000D03*
X109220000Y-101600000D03*
X109220000Y-104140000D03*
X111760000Y-101600000D03*
X111760000Y-104140000D03*
X114300000Y-101600000D03*
X114300000Y-104140000D03*
D13*
X101600000Y-69900000D03*
D14*
X101600000Y-72440000D03*
X104140000Y-69900000D03*
X104140000Y-72440000D03*
X106680000Y-69900000D03*
X106680000Y-72440000D03*
X109220000Y-69900000D03*
X109220000Y-72440000D03*
X111760000Y-69900000D03*
X111760000Y-72440000D03*
X114300000Y-69900000D03*
X114300000Y-72440000D03*
D13*
X180340000Y-133300000D03*
D14*
X180340000Y-135840000D03*
X182880000Y-133300000D03*
X182880000Y-135840000D03*
X185420000Y-133300000D03*
X185420000Y-135840000D03*
X187960000Y-133300000D03*
X187960000Y-135840000D03*
X190500000Y-133300000D03*
X190500000Y-135840000D03*
X193040000Y-133300000D03*
X193040000Y-135840000D03*
D13*
X101600000Y-133300000D03*
D14*
X101600000Y-135840000D03*
X104140000Y-133300000D03*
X104140000Y-135840000D03*
X106680000Y-133300000D03*
X106680000Y-135840000D03*
X109220000Y-133300000D03*
X109220000Y-135840000D03*
X111760000Y-133300000D03*
X111760000Y-135840000D03*
X114300000Y-133300000D03*
X114300000Y-135840000D03*
D13*
X180340000Y-69900000D03*
D14*
X180340000Y-72440000D03*
X182880000Y-69900000D03*
X182880000Y-72440000D03*
X185420000Y-69900000D03*
X185420000Y-72440000D03*
X187960000Y-69900000D03*
X187960000Y-72440000D03*
X190500000Y-69900000D03*
X190500000Y-72440000D03*
X193040000Y-69900000D03*
X193040000Y-72440000D03*
D13*
X180340000Y-101600000D03*
D14*
X180340000Y-104140000D03*
X182880000Y-101600000D03*
X182880000Y-104140000D03*
X185420000Y-101600000D03*
X185420000Y-104140000D03*
X187960000Y-101600000D03*
X187960000Y-104140000D03*
X190500000Y-101600000D03*
X190500000Y-104140000D03*
X193040000Y-101600000D03*
X193040000Y-104140000D03*
D15*
X107950000Y-58470000D03*
D16*
X102870000Y-63550000D03*
X113030000Y-63550000D03*
D15*
X107950000Y-55930000D03*
D16*
X102870000Y-53390000D03*
X113030000Y-53390000D03*
D15*
X186690000Y-58470000D03*
D16*
X181610000Y-63550000D03*
X191770000Y-63550000D03*
X191770000Y-53390000D03*
X181610000Y-53390000D03*
D15*
X186690000Y-55930000D03*
X107950000Y-90170000D03*
D16*
X102870000Y-95250000D03*
X102870000Y-85090000D03*
X113030000Y-85090000D03*
X113030000Y-95250000D03*
D15*
X107950000Y-87630000D03*
X186690000Y-90170000D03*
X186690000Y-87630000D03*
D16*
X191770000Y-95250000D03*
X181610000Y-95250000D03*
X181610000Y-85090000D03*
X191770000Y-85090000D03*
D15*
X186690000Y-121870000D03*
D16*
X181610000Y-116790000D03*
D15*
X186690000Y-119330000D03*
D16*
X191770000Y-116790000D03*
X181610000Y-126950000D03*
X191770000Y-126950000D03*
X113030000Y-116790000D03*
X113030000Y-126950000D03*
D15*
X107950000Y-119330000D03*
D16*
X102870000Y-126950000D03*
X102870000Y-116790000D03*
D15*
X107950000Y-121870000D03*
M02*
