%TF.GenerationSoftware,KiCad,Pcbnew,6.0.9-8da3e8f707~116~ubuntu20.04.1*%
%TF.CreationDate,2023-03-16T00:54:46+01:00*%
%TF.ProjectId,six_to_six_vertical,7369785f-746f-45f7-9369-785f76657274,rev?*%
%TF.SameCoordinates,Original*%
%TF.FileFunction,Drillmap*%
%TF.FilePolarity,Positive*%
%FSLAX45Y45*%
G04 Gerber Fmt 4.5, Leading zero omitted, Abs format (unit mm)*
G04 Created by KiCad (PCBNEW 6.0.9-8da3e8f707~116~ubuntu20.04.1) date 2023-03-16 00:54:46*
%MOMM*%
%LPD*%
G01*
G04 APERTURE LIST*
%ADD10C,0.100000*%
%ADD11C,0.200000*%
%ADD12C,0.040000*%
%ADD13C,0.101600*%
%ADD14C,0.150000*%
%ADD15C,0.215900*%
G04 APERTURE END LIST*
D10*
X19685000Y-4508500D02*
G75*
G03*
X19621500Y-4445000I-63500J0D01*
G01*
X9842500Y-4445000D02*
G75*
G03*
X9779000Y-4508500I0J-63500D01*
G01*
X9779000Y-14287500D02*
G75*
G03*
X9842500Y-14351000I63500J0D01*
G01*
X9842500Y-14351000D02*
X19621500Y-14351000D01*
X19685000Y-14287500D02*
X19685000Y-4508500D01*
X19621500Y-4445000D02*
X9842500Y-4445000D01*
X19621500Y-14351000D02*
G75*
G03*
X19685000Y-14287500I0J63500D01*
G01*
X9779000Y-4508500D02*
X9779000Y-14287500D01*
D11*
D12*
X10503270Y-11629910D02*
X10543270Y-11669910D01*
X10543270Y-11629910D02*
X10503270Y-11669910D01*
X11542360Y-9986700D02*
X11582360Y-10026700D01*
X11582360Y-9986700D02*
X11542360Y-10026700D01*
X11609970Y-12045000D02*
X11649970Y-12085000D01*
X11649970Y-12045000D02*
X11609970Y-12085000D01*
X11662750Y-12554320D02*
X11702750Y-12594320D01*
X11702750Y-12554320D02*
X11662750Y-12594320D01*
X11672180Y-7156660D02*
X11712180Y-7196660D01*
X11712180Y-7156660D02*
X11672180Y-7196660D01*
X11727500Y-11410000D02*
X11767500Y-11450000D01*
X11767500Y-11410000D02*
X11727500Y-11450000D01*
X11824170Y-9884120D02*
X11864170Y-9924120D01*
X11864170Y-9884120D02*
X11824170Y-9924120D01*
X11990210Y-7789840D02*
X12030210Y-7829840D01*
X12030210Y-7789840D02*
X11990210Y-7829840D01*
X12489500Y-7219000D02*
X12529500Y-7259000D01*
X12529500Y-7219000D02*
X12489500Y-7259000D01*
X16871000Y-7219000D02*
X16911000Y-7259000D01*
X16911000Y-7219000D02*
X16871000Y-7259000D01*
X17491280Y-12297940D02*
X17531280Y-12337940D01*
X17531280Y-12297940D02*
X17491280Y-12337940D01*
X17638760Y-8997000D02*
X17678760Y-9037000D01*
X17678760Y-8997000D02*
X17638760Y-9037000D01*
X18005080Y-9865750D02*
X18045080Y-9905750D01*
X18045080Y-9865750D02*
X18005080Y-9905750D01*
X18141000Y-9124000D02*
X18181000Y-9164000D01*
X18181000Y-9124000D02*
X18141000Y-9164000D01*
X18339300Y-11308790D02*
X18379300Y-11348790D01*
X18379300Y-11308790D02*
X18339300Y-11348790D01*
X19372280Y-9734280D02*
X19412280Y-9774280D01*
X19412280Y-9734280D02*
X19372280Y-9774280D01*
X19402030Y-7464660D02*
X19442030Y-7504660D01*
X19442030Y-7464660D02*
X19402030Y-7504660D01*
D10*
X10210000Y-7112000D02*
G75*
G03*
X10210000Y-7112000I-50000J0D01*
G01*
X10210000Y-7366000D02*
G75*
G03*
X10210000Y-7366000I-50000J0D01*
G01*
X10210000Y-10160000D02*
G75*
G03*
X10210000Y-10160000I-50000J0D01*
G01*
X10210000Y-10414000D02*
G75*
G03*
X10210000Y-10414000I-50000J0D01*
G01*
X10210000Y-13208000D02*
G75*
G03*
X10210000Y-13208000I-50000J0D01*
G01*
X10210000Y-13462000D02*
G75*
G03*
X10210000Y-13462000I-50000J0D01*
G01*
X10464000Y-7112000D02*
G75*
G03*
X10464000Y-7112000I-50000J0D01*
G01*
X10464000Y-7366000D02*
G75*
G03*
X10464000Y-7366000I-50000J0D01*
G01*
X10464000Y-10160000D02*
G75*
G03*
X10464000Y-10160000I-50000J0D01*
G01*
X10464000Y-10414000D02*
G75*
G03*
X10464000Y-10414000I-50000J0D01*
G01*
X10464000Y-13208000D02*
G75*
G03*
X10464000Y-13208000I-50000J0D01*
G01*
X10464000Y-13462000D02*
G75*
G03*
X10464000Y-13462000I-50000J0D01*
G01*
X10718000Y-7112000D02*
G75*
G03*
X10718000Y-7112000I-50000J0D01*
G01*
X10718000Y-7366000D02*
G75*
G03*
X10718000Y-7366000I-50000J0D01*
G01*
X10718000Y-10160000D02*
G75*
G03*
X10718000Y-10160000I-50000J0D01*
G01*
X10718000Y-10414000D02*
G75*
G03*
X10718000Y-10414000I-50000J0D01*
G01*
X10718000Y-13208000D02*
G75*
G03*
X10718000Y-13208000I-50000J0D01*
G01*
X10718000Y-13462000D02*
G75*
G03*
X10718000Y-13462000I-50000J0D01*
G01*
X10972000Y-7112000D02*
G75*
G03*
X10972000Y-7112000I-50000J0D01*
G01*
X10972000Y-7366000D02*
G75*
G03*
X10972000Y-7366000I-50000J0D01*
G01*
X10972000Y-10160000D02*
G75*
G03*
X10972000Y-10160000I-50000J0D01*
G01*
X10972000Y-10414000D02*
G75*
G03*
X10972000Y-10414000I-50000J0D01*
G01*
X10972000Y-13208000D02*
G75*
G03*
X10972000Y-13208000I-50000J0D01*
G01*
X10972000Y-13462000D02*
G75*
G03*
X10972000Y-13462000I-50000J0D01*
G01*
X11226000Y-7112000D02*
G75*
G03*
X11226000Y-7112000I-50000J0D01*
G01*
X11226000Y-7366000D02*
G75*
G03*
X11226000Y-7366000I-50000J0D01*
G01*
X11226000Y-10160000D02*
G75*
G03*
X11226000Y-10160000I-50000J0D01*
G01*
X11226000Y-10414000D02*
G75*
G03*
X11226000Y-10414000I-50000J0D01*
G01*
X11226000Y-13208000D02*
G75*
G03*
X11226000Y-13208000I-50000J0D01*
G01*
X11226000Y-13462000D02*
G75*
G03*
X11226000Y-13462000I-50000J0D01*
G01*
X11480000Y-7112000D02*
G75*
G03*
X11480000Y-7112000I-50000J0D01*
G01*
X11480000Y-7366000D02*
G75*
G03*
X11480000Y-7366000I-50000J0D01*
G01*
X11480000Y-10160000D02*
G75*
G03*
X11480000Y-10160000I-50000J0D01*
G01*
X11480000Y-10414000D02*
G75*
G03*
X11480000Y-10414000I-50000J0D01*
G01*
X11480000Y-13208000D02*
G75*
G03*
X11480000Y-13208000I-50000J0D01*
G01*
X11480000Y-13462000D02*
G75*
G03*
X11480000Y-13462000I-50000J0D01*
G01*
X18084000Y-7112000D02*
G75*
G03*
X18084000Y-7112000I-50000J0D01*
G01*
X18084000Y-7366000D02*
G75*
G03*
X18084000Y-7366000I-50000J0D01*
G01*
X18084000Y-10160000D02*
G75*
G03*
X18084000Y-10160000I-50000J0D01*
G01*
X18084000Y-10414000D02*
G75*
G03*
X18084000Y-10414000I-50000J0D01*
G01*
X18084000Y-13208000D02*
G75*
G03*
X18084000Y-13208000I-50000J0D01*
G01*
X18084000Y-13462000D02*
G75*
G03*
X18084000Y-13462000I-50000J0D01*
G01*
X18338000Y-7112000D02*
G75*
G03*
X18338000Y-7112000I-50000J0D01*
G01*
X18338000Y-7366000D02*
G75*
G03*
X18338000Y-7366000I-50000J0D01*
G01*
X18338000Y-10160000D02*
G75*
G03*
X18338000Y-10160000I-50000J0D01*
G01*
X18338000Y-10414000D02*
G75*
G03*
X18338000Y-10414000I-50000J0D01*
G01*
X18338000Y-13208000D02*
G75*
G03*
X18338000Y-13208000I-50000J0D01*
G01*
X18338000Y-13462000D02*
G75*
G03*
X18338000Y-13462000I-50000J0D01*
G01*
X18592000Y-7112000D02*
G75*
G03*
X18592000Y-7112000I-50000J0D01*
G01*
X18592000Y-7366000D02*
G75*
G03*
X18592000Y-7366000I-50000J0D01*
G01*
X18592000Y-10160000D02*
G75*
G03*
X18592000Y-10160000I-50000J0D01*
G01*
X18592000Y-10414000D02*
G75*
G03*
X18592000Y-10414000I-50000J0D01*
G01*
X18592000Y-13208000D02*
G75*
G03*
X18592000Y-13208000I-50000J0D01*
G01*
X18592000Y-13462000D02*
G75*
G03*
X18592000Y-13462000I-50000J0D01*
G01*
X18846000Y-7112000D02*
G75*
G03*
X18846000Y-7112000I-50000J0D01*
G01*
X18846000Y-7366000D02*
G75*
G03*
X18846000Y-7366000I-50000J0D01*
G01*
X18846000Y-10160000D02*
G75*
G03*
X18846000Y-10160000I-50000J0D01*
G01*
X18846000Y-10414000D02*
G75*
G03*
X18846000Y-10414000I-50000J0D01*
G01*
X18846000Y-13208000D02*
G75*
G03*
X18846000Y-13208000I-50000J0D01*
G01*
X18846000Y-13462000D02*
G75*
G03*
X18846000Y-13462000I-50000J0D01*
G01*
X19100000Y-7112000D02*
G75*
G03*
X19100000Y-7112000I-50000J0D01*
G01*
X19100000Y-7366000D02*
G75*
G03*
X19100000Y-7366000I-50000J0D01*
G01*
X19100000Y-10160000D02*
G75*
G03*
X19100000Y-10160000I-50000J0D01*
G01*
X19100000Y-10414000D02*
G75*
G03*
X19100000Y-10414000I-50000J0D01*
G01*
X19100000Y-13208000D02*
G75*
G03*
X19100000Y-13208000I-50000J0D01*
G01*
X19100000Y-13462000D02*
G75*
G03*
X19100000Y-13462000I-50000J0D01*
G01*
X19354000Y-7112000D02*
G75*
G03*
X19354000Y-7112000I-50000J0D01*
G01*
X19354000Y-7366000D02*
G75*
G03*
X19354000Y-7366000I-50000J0D01*
G01*
X19354000Y-10160000D02*
G75*
G03*
X19354000Y-10160000I-50000J0D01*
G01*
X19354000Y-10414000D02*
G75*
G03*
X19354000Y-10414000I-50000J0D01*
G01*
X19354000Y-13208000D02*
G75*
G03*
X19354000Y-13208000I-50000J0D01*
G01*
X19354000Y-13462000D02*
G75*
G03*
X19354000Y-13462000I-50000J0D01*
G01*
D13*
X10795000Y-5664200D02*
X10795000Y-5765800D01*
X10744200Y-5715000D02*
X10845800Y-5715000D01*
X10795000Y-5918200D02*
X10795000Y-6019800D01*
X10744200Y-5969000D02*
X10845800Y-5969000D01*
X10795000Y-8712200D02*
X10795000Y-8813800D01*
X10744200Y-8763000D02*
X10845800Y-8763000D01*
X10795000Y-8966200D02*
X10795000Y-9067800D01*
X10744200Y-9017000D02*
X10845800Y-9017000D01*
X10795000Y-11760200D02*
X10795000Y-11861800D01*
X10744200Y-11811000D02*
X10845800Y-11811000D01*
X10795000Y-12014200D02*
X10795000Y-12115800D01*
X10744200Y-12065000D02*
X10845800Y-12065000D01*
X18669000Y-5664200D02*
X18669000Y-5765800D01*
X18618200Y-5715000D02*
X18719800Y-5715000D01*
X18669000Y-5918200D02*
X18669000Y-6019800D01*
X18618200Y-5969000D02*
X18719800Y-5969000D01*
X18669000Y-8712200D02*
X18669000Y-8813800D01*
X18618200Y-8763000D02*
X18719800Y-8763000D01*
X18669000Y-8966200D02*
X18669000Y-9067800D01*
X18618200Y-9017000D02*
X18719800Y-9017000D01*
X18669000Y-11760200D02*
X18669000Y-11861800D01*
X18618200Y-11811000D02*
X18719800Y-11811000D01*
X18669000Y-12014200D02*
X18669000Y-12115800D01*
X18618200Y-12065000D02*
X18719800Y-12065000D01*
D14*
X10340034Y-5514034D02*
X10340034Y-5407967D01*
X10233967Y-5407967D01*
X10233967Y-5514034D01*
X10340034Y-5514034D01*
X10340034Y-8562034D02*
X10340034Y-8455967D01*
X10233967Y-8455967D01*
X10233967Y-8562034D01*
X10340034Y-8562034D01*
X10340034Y-11610033D02*
X10340034Y-11503966D01*
X10233967Y-11503966D01*
X10233967Y-11610033D01*
X10340034Y-11610033D01*
X11356033Y-6530033D02*
X11356033Y-6423966D01*
X11249966Y-6423966D01*
X11249966Y-6530033D01*
X11356033Y-6530033D01*
X11356033Y-9578034D02*
X11356033Y-9471967D01*
X11249966Y-9471967D01*
X11249966Y-9578034D01*
X11356033Y-9578034D01*
X11356033Y-12626033D02*
X11356033Y-12519966D01*
X11249966Y-12519966D01*
X11249966Y-12626033D01*
X11356033Y-12626033D01*
X18214034Y-5514034D02*
X18214034Y-5407967D01*
X18107967Y-5407967D01*
X18107967Y-5514034D01*
X18214034Y-5514034D01*
X18214034Y-8562034D02*
X18214034Y-8455967D01*
X18107967Y-8455967D01*
X18107967Y-8562034D01*
X18214034Y-8562034D01*
X18214034Y-11610033D02*
X18214034Y-11503966D01*
X18107967Y-11503966D01*
X18107967Y-11610033D01*
X18214034Y-11610033D01*
X19230034Y-6530033D02*
X19230034Y-6423966D01*
X19123967Y-6423966D01*
X19123967Y-6530033D01*
X19230034Y-6530033D01*
X19230034Y-9578034D02*
X19230034Y-9471967D01*
X19123967Y-9471967D01*
X19123967Y-9578034D01*
X19230034Y-9578034D01*
X19230034Y-12626033D02*
X19230034Y-12519966D01*
X19123967Y-12519966D01*
X19123967Y-12626033D01*
X19230034Y-12626033D01*
D15*
X10287000Y-6584950D02*
X10394950Y-6477000D01*
X10287000Y-6369050D01*
X10179050Y-6477000D01*
X10287000Y-6584950D01*
X10287000Y-9632950D02*
X10394950Y-9525000D01*
X10287000Y-9417050D01*
X10179050Y-9525000D01*
X10287000Y-9632950D01*
X10287000Y-12680950D02*
X10394950Y-12573000D01*
X10287000Y-12465050D01*
X10179050Y-12573000D01*
X10287000Y-12680950D01*
X11303000Y-5568950D02*
X11410950Y-5461000D01*
X11303000Y-5353050D01*
X11195050Y-5461000D01*
X11303000Y-5568950D01*
X11303000Y-8616950D02*
X11410950Y-8509000D01*
X11303000Y-8401050D01*
X11195050Y-8509000D01*
X11303000Y-8616950D01*
X11303000Y-11664950D02*
X11410950Y-11557000D01*
X11303000Y-11449050D01*
X11195050Y-11557000D01*
X11303000Y-11664950D01*
X18161000Y-6584950D02*
X18268950Y-6477000D01*
X18161000Y-6369050D01*
X18053050Y-6477000D01*
X18161000Y-6584950D01*
X18161000Y-9632950D02*
X18268950Y-9525000D01*
X18161000Y-9417050D01*
X18053050Y-9525000D01*
X18161000Y-9632950D01*
X18161000Y-12680950D02*
X18268950Y-12573000D01*
X18161000Y-12465050D01*
X18053050Y-12573000D01*
X18161000Y-12680950D01*
X19177000Y-5568950D02*
X19284950Y-5461000D01*
X19177000Y-5353050D01*
X19069050Y-5461000D01*
X19177000Y-5568950D01*
X19177000Y-8616950D02*
X19284950Y-8509000D01*
X19177000Y-8401050D01*
X19069050Y-8509000D01*
X19177000Y-8616950D01*
X19177000Y-11664950D02*
X19284950Y-11557000D01*
X19177000Y-11449050D01*
X19069050Y-11557000D01*
X19177000Y-11664950D01*
D11*
X10031619Y-14666476D02*
X10031619Y-14466476D01*
X10079238Y-14466476D01*
X10107810Y-14476000D01*
X10126857Y-14495048D01*
X10136381Y-14514095D01*
X10145905Y-14552190D01*
X10145905Y-14580762D01*
X10136381Y-14618857D01*
X10126857Y-14637905D01*
X10107810Y-14656952D01*
X10079238Y-14666476D01*
X10031619Y-14666476D01*
X10231619Y-14666476D02*
X10231619Y-14533143D01*
X10231619Y-14571238D02*
X10241143Y-14552190D01*
X10250667Y-14542667D01*
X10269714Y-14533143D01*
X10288762Y-14533143D01*
X10355429Y-14666476D02*
X10355429Y-14533143D01*
X10355429Y-14466476D02*
X10345905Y-14476000D01*
X10355429Y-14485524D01*
X10364952Y-14476000D01*
X10355429Y-14466476D01*
X10355429Y-14485524D01*
X10479238Y-14666476D02*
X10460190Y-14656952D01*
X10450667Y-14637905D01*
X10450667Y-14466476D01*
X10584000Y-14666476D02*
X10564952Y-14656952D01*
X10555429Y-14637905D01*
X10555429Y-14466476D01*
X10812571Y-14666476D02*
X10812571Y-14466476D01*
X10879238Y-14609333D01*
X10945905Y-14466476D01*
X10945905Y-14666476D01*
X11126857Y-14666476D02*
X11126857Y-14561714D01*
X11117333Y-14542667D01*
X11098286Y-14533143D01*
X11060190Y-14533143D01*
X11041143Y-14542667D01*
X11126857Y-14656952D02*
X11107810Y-14666476D01*
X11060190Y-14666476D01*
X11041143Y-14656952D01*
X11031619Y-14637905D01*
X11031619Y-14618857D01*
X11041143Y-14599809D01*
X11060190Y-14590286D01*
X11107810Y-14590286D01*
X11126857Y-14580762D01*
X11222095Y-14533143D02*
X11222095Y-14733143D01*
X11222095Y-14542667D02*
X11241143Y-14533143D01*
X11279238Y-14533143D01*
X11298286Y-14542667D01*
X11307809Y-14552190D01*
X11317333Y-14571238D01*
X11317333Y-14628381D01*
X11307809Y-14647428D01*
X11298286Y-14656952D01*
X11279238Y-14666476D01*
X11241143Y-14666476D01*
X11222095Y-14656952D01*
X11403048Y-14647428D02*
X11412571Y-14656952D01*
X11403048Y-14666476D01*
X11393524Y-14656952D01*
X11403048Y-14647428D01*
X11403048Y-14666476D01*
X11403048Y-14542667D02*
X11412571Y-14552190D01*
X11403048Y-14561714D01*
X11393524Y-14552190D01*
X11403048Y-14542667D01*
X11403048Y-14561714D01*
D12*
X9734000Y-14976000D02*
X9774000Y-15016000D01*
X9774000Y-14976000D02*
X9734000Y-15016000D01*
D11*
X10069714Y-14886476D02*
X10088762Y-14886476D01*
X10107810Y-14896000D01*
X10117333Y-14905524D01*
X10126857Y-14924571D01*
X10136381Y-14962667D01*
X10136381Y-15010286D01*
X10126857Y-15048381D01*
X10117333Y-15067428D01*
X10107810Y-15076952D01*
X10088762Y-15086476D01*
X10069714Y-15086476D01*
X10050667Y-15076952D01*
X10041143Y-15067428D01*
X10031619Y-15048381D01*
X10022095Y-15010286D01*
X10022095Y-14962667D01*
X10031619Y-14924571D01*
X10041143Y-14905524D01*
X10050667Y-14896000D01*
X10069714Y-14886476D01*
X10222095Y-15067428D02*
X10231619Y-15076952D01*
X10222095Y-15086476D01*
X10212571Y-15076952D01*
X10222095Y-15067428D01*
X10222095Y-15086476D01*
X10403048Y-14953143D02*
X10403048Y-15086476D01*
X10355429Y-14876952D02*
X10307810Y-15019809D01*
X10431619Y-15019809D01*
X10545905Y-14886476D02*
X10564952Y-14886476D01*
X10584000Y-14896000D01*
X10593524Y-14905524D01*
X10603048Y-14924571D01*
X10612571Y-14962667D01*
X10612571Y-15010286D01*
X10603048Y-15048381D01*
X10593524Y-15067428D01*
X10584000Y-15076952D01*
X10564952Y-15086476D01*
X10545905Y-15086476D01*
X10526857Y-15076952D01*
X10517333Y-15067428D01*
X10507810Y-15048381D01*
X10498286Y-15010286D01*
X10498286Y-14962667D01*
X10507810Y-14924571D01*
X10517333Y-14905524D01*
X10526857Y-14896000D01*
X10545905Y-14886476D01*
X10736381Y-14886476D02*
X10755429Y-14886476D01*
X10774476Y-14896000D01*
X10784000Y-14905524D01*
X10793524Y-14924571D01*
X10803048Y-14962667D01*
X10803048Y-15010286D01*
X10793524Y-15048381D01*
X10784000Y-15067428D01*
X10774476Y-15076952D01*
X10755429Y-15086476D01*
X10736381Y-15086476D01*
X10717333Y-15076952D01*
X10707810Y-15067428D01*
X10698286Y-15048381D01*
X10688762Y-15010286D01*
X10688762Y-14962667D01*
X10698286Y-14924571D01*
X10707810Y-14905524D01*
X10717333Y-14896000D01*
X10736381Y-14886476D01*
X10888762Y-15086476D02*
X10888762Y-14953143D01*
X10888762Y-14972190D02*
X10898286Y-14962667D01*
X10917333Y-14953143D01*
X10945905Y-14953143D01*
X10964952Y-14962667D01*
X10974476Y-14981714D01*
X10974476Y-15086476D01*
X10974476Y-14981714D02*
X10984000Y-14962667D01*
X11003048Y-14953143D01*
X11031619Y-14953143D01*
X11050667Y-14962667D01*
X11060190Y-14981714D01*
X11060190Y-15086476D01*
X11155429Y-15086476D02*
X11155429Y-14953143D01*
X11155429Y-14972190D02*
X11164952Y-14962667D01*
X11184000Y-14953143D01*
X11212571Y-14953143D01*
X11231619Y-14962667D01*
X11241143Y-14981714D01*
X11241143Y-15086476D01*
X11241143Y-14981714D02*
X11250667Y-14962667D01*
X11269714Y-14953143D01*
X11298286Y-14953143D01*
X11317333Y-14962667D01*
X11326857Y-14981714D01*
X11326857Y-15086476D01*
X11717333Y-14876952D02*
X11545905Y-15134095D01*
X11974476Y-14886476D02*
X11993524Y-14886476D01*
X12012571Y-14896000D01*
X12022095Y-14905524D01*
X12031619Y-14924571D01*
X12041143Y-14962667D01*
X12041143Y-15010286D01*
X12031619Y-15048381D01*
X12022095Y-15067428D01*
X12012571Y-15076952D01*
X11993524Y-15086476D01*
X11974476Y-15086476D01*
X11955428Y-15076952D01*
X11945905Y-15067428D01*
X11936381Y-15048381D01*
X11926857Y-15010286D01*
X11926857Y-14962667D01*
X11936381Y-14924571D01*
X11945905Y-14905524D01*
X11955428Y-14896000D01*
X11974476Y-14886476D01*
X12126857Y-15067428D02*
X12136381Y-15076952D01*
X12126857Y-15086476D01*
X12117333Y-15076952D01*
X12126857Y-15067428D01*
X12126857Y-15086476D01*
X12260190Y-14886476D02*
X12279238Y-14886476D01*
X12298286Y-14896000D01*
X12307809Y-14905524D01*
X12317333Y-14924571D01*
X12326857Y-14962667D01*
X12326857Y-15010286D01*
X12317333Y-15048381D01*
X12307809Y-15067428D01*
X12298286Y-15076952D01*
X12279238Y-15086476D01*
X12260190Y-15086476D01*
X12241143Y-15076952D01*
X12231619Y-15067428D01*
X12222095Y-15048381D01*
X12212571Y-15010286D01*
X12212571Y-14962667D01*
X12222095Y-14924571D01*
X12231619Y-14905524D01*
X12241143Y-14896000D01*
X12260190Y-14886476D01*
X12517333Y-15086476D02*
X12403048Y-15086476D01*
X12460190Y-15086476D02*
X12460190Y-14886476D01*
X12441143Y-14915048D01*
X12422095Y-14934095D01*
X12403048Y-14943619D01*
X12698286Y-14886476D02*
X12603048Y-14886476D01*
X12593524Y-14981714D01*
X12603048Y-14972190D01*
X12622095Y-14962667D01*
X12669714Y-14962667D01*
X12688762Y-14972190D01*
X12698286Y-14981714D01*
X12707809Y-15000762D01*
X12707809Y-15048381D01*
X12698286Y-15067428D01*
X12688762Y-15076952D01*
X12669714Y-15086476D01*
X12622095Y-15086476D01*
X12603048Y-15076952D01*
X12593524Y-15067428D01*
X12774476Y-14886476D02*
X12907809Y-14886476D01*
X12822095Y-15086476D01*
X12974476Y-14886476D02*
X12974476Y-14924571D01*
X13050667Y-14886476D02*
X13050667Y-14924571D01*
X13345905Y-15162667D02*
X13336381Y-15153143D01*
X13317333Y-15124571D01*
X13307809Y-15105524D01*
X13298286Y-15076952D01*
X13288762Y-15029333D01*
X13288762Y-14991238D01*
X13298286Y-14943619D01*
X13307809Y-14915048D01*
X13317333Y-14896000D01*
X13336381Y-14867428D01*
X13345905Y-14857905D01*
X13526857Y-15086476D02*
X13412571Y-15086476D01*
X13469714Y-15086476D02*
X13469714Y-14886476D01*
X13450667Y-14915048D01*
X13431619Y-14934095D01*
X13412571Y-14943619D01*
X13593524Y-14886476D02*
X13726857Y-14886476D01*
X13641143Y-15086476D01*
X13955428Y-15086476D02*
X13955428Y-14886476D01*
X14041143Y-15086476D02*
X14041143Y-14981714D01*
X14031619Y-14962667D01*
X14012571Y-14953143D01*
X13984000Y-14953143D01*
X13964952Y-14962667D01*
X13955428Y-14972190D01*
X14164952Y-15086476D02*
X14145905Y-15076952D01*
X14136381Y-15067428D01*
X14126857Y-15048381D01*
X14126857Y-14991238D01*
X14136381Y-14972190D01*
X14145905Y-14962667D01*
X14164952Y-14953143D01*
X14193524Y-14953143D01*
X14212571Y-14962667D01*
X14222095Y-14972190D01*
X14231619Y-14991238D01*
X14231619Y-15048381D01*
X14222095Y-15067428D01*
X14212571Y-15076952D01*
X14193524Y-15086476D01*
X14164952Y-15086476D01*
X14345905Y-15086476D02*
X14326857Y-15076952D01*
X14317333Y-15057905D01*
X14317333Y-14886476D01*
X14498286Y-15076952D02*
X14479238Y-15086476D01*
X14441143Y-15086476D01*
X14422095Y-15076952D01*
X14412571Y-15057905D01*
X14412571Y-14981714D01*
X14422095Y-14962667D01*
X14441143Y-14953143D01*
X14479238Y-14953143D01*
X14498286Y-14962667D01*
X14507809Y-14981714D01*
X14507809Y-15000762D01*
X14412571Y-15019809D01*
X14584000Y-15076952D02*
X14603048Y-15086476D01*
X14641143Y-15086476D01*
X14660190Y-15076952D01*
X14669714Y-15057905D01*
X14669714Y-15048381D01*
X14660190Y-15029333D01*
X14641143Y-15019809D01*
X14612571Y-15019809D01*
X14593524Y-15010286D01*
X14584000Y-14991238D01*
X14584000Y-14981714D01*
X14593524Y-14962667D01*
X14612571Y-14953143D01*
X14641143Y-14953143D01*
X14660190Y-14962667D01*
X14736381Y-15162667D02*
X14745905Y-15153143D01*
X14764952Y-15124571D01*
X14774476Y-15105524D01*
X14784000Y-15076952D01*
X14793524Y-15029333D01*
X14793524Y-14991238D01*
X14784000Y-14943619D01*
X14774476Y-14915048D01*
X14764952Y-14896000D01*
X14745905Y-14867428D01*
X14736381Y-14857905D01*
D10*
X9774000Y-15260000D02*
G75*
G03*
X9774000Y-15260000I-50000J0D01*
G01*
D11*
X10136381Y-15350476D02*
X10022095Y-15350476D01*
X10079238Y-15350476D02*
X10079238Y-15150476D01*
X10060190Y-15179048D01*
X10041143Y-15198095D01*
X10022095Y-15207619D01*
X10222095Y-15331428D02*
X10231619Y-15340952D01*
X10222095Y-15350476D01*
X10212571Y-15340952D01*
X10222095Y-15331428D01*
X10222095Y-15350476D01*
X10355429Y-15150476D02*
X10374476Y-15150476D01*
X10393524Y-15160000D01*
X10403048Y-15169524D01*
X10412571Y-15188571D01*
X10422095Y-15226667D01*
X10422095Y-15274286D01*
X10412571Y-15312381D01*
X10403048Y-15331428D01*
X10393524Y-15340952D01*
X10374476Y-15350476D01*
X10355429Y-15350476D01*
X10336381Y-15340952D01*
X10326857Y-15331428D01*
X10317333Y-15312381D01*
X10307810Y-15274286D01*
X10307810Y-15226667D01*
X10317333Y-15188571D01*
X10326857Y-15169524D01*
X10336381Y-15160000D01*
X10355429Y-15150476D01*
X10545905Y-15150476D02*
X10564952Y-15150476D01*
X10584000Y-15160000D01*
X10593524Y-15169524D01*
X10603048Y-15188571D01*
X10612571Y-15226667D01*
X10612571Y-15274286D01*
X10603048Y-15312381D01*
X10593524Y-15331428D01*
X10584000Y-15340952D01*
X10564952Y-15350476D01*
X10545905Y-15350476D01*
X10526857Y-15340952D01*
X10517333Y-15331428D01*
X10507810Y-15312381D01*
X10498286Y-15274286D01*
X10498286Y-15226667D01*
X10507810Y-15188571D01*
X10517333Y-15169524D01*
X10526857Y-15160000D01*
X10545905Y-15150476D01*
X10736381Y-15150476D02*
X10755429Y-15150476D01*
X10774476Y-15160000D01*
X10784000Y-15169524D01*
X10793524Y-15188571D01*
X10803048Y-15226667D01*
X10803048Y-15274286D01*
X10793524Y-15312381D01*
X10784000Y-15331428D01*
X10774476Y-15340952D01*
X10755429Y-15350476D01*
X10736381Y-15350476D01*
X10717333Y-15340952D01*
X10707810Y-15331428D01*
X10698286Y-15312381D01*
X10688762Y-15274286D01*
X10688762Y-15226667D01*
X10698286Y-15188571D01*
X10707810Y-15169524D01*
X10717333Y-15160000D01*
X10736381Y-15150476D01*
X10888762Y-15350476D02*
X10888762Y-15217143D01*
X10888762Y-15236190D02*
X10898286Y-15226667D01*
X10917333Y-15217143D01*
X10945905Y-15217143D01*
X10964952Y-15226667D01*
X10974476Y-15245714D01*
X10974476Y-15350476D01*
X10974476Y-15245714D02*
X10984000Y-15226667D01*
X11003048Y-15217143D01*
X11031619Y-15217143D01*
X11050667Y-15226667D01*
X11060190Y-15245714D01*
X11060190Y-15350476D01*
X11155429Y-15350476D02*
X11155429Y-15217143D01*
X11155429Y-15236190D02*
X11164952Y-15226667D01*
X11184000Y-15217143D01*
X11212571Y-15217143D01*
X11231619Y-15226667D01*
X11241143Y-15245714D01*
X11241143Y-15350476D01*
X11241143Y-15245714D02*
X11250667Y-15226667D01*
X11269714Y-15217143D01*
X11298286Y-15217143D01*
X11317333Y-15226667D01*
X11326857Y-15245714D01*
X11326857Y-15350476D01*
X11717333Y-15140952D02*
X11545905Y-15398095D01*
X11974476Y-15150476D02*
X11993524Y-15150476D01*
X12012571Y-15160000D01*
X12022095Y-15169524D01*
X12031619Y-15188571D01*
X12041143Y-15226667D01*
X12041143Y-15274286D01*
X12031619Y-15312381D01*
X12022095Y-15331428D01*
X12012571Y-15340952D01*
X11993524Y-15350476D01*
X11974476Y-15350476D01*
X11955428Y-15340952D01*
X11945905Y-15331428D01*
X11936381Y-15312381D01*
X11926857Y-15274286D01*
X11926857Y-15226667D01*
X11936381Y-15188571D01*
X11945905Y-15169524D01*
X11955428Y-15160000D01*
X11974476Y-15150476D01*
X12126857Y-15331428D02*
X12136381Y-15340952D01*
X12126857Y-15350476D01*
X12117333Y-15340952D01*
X12126857Y-15331428D01*
X12126857Y-15350476D01*
X12260190Y-15150476D02*
X12279238Y-15150476D01*
X12298286Y-15160000D01*
X12307809Y-15169524D01*
X12317333Y-15188571D01*
X12326857Y-15226667D01*
X12326857Y-15274286D01*
X12317333Y-15312381D01*
X12307809Y-15331428D01*
X12298286Y-15340952D01*
X12279238Y-15350476D01*
X12260190Y-15350476D01*
X12241143Y-15340952D01*
X12231619Y-15331428D01*
X12222095Y-15312381D01*
X12212571Y-15274286D01*
X12212571Y-15226667D01*
X12222095Y-15188571D01*
X12231619Y-15169524D01*
X12241143Y-15160000D01*
X12260190Y-15150476D01*
X12393524Y-15150476D02*
X12517333Y-15150476D01*
X12450667Y-15226667D01*
X12479238Y-15226667D01*
X12498286Y-15236190D01*
X12507809Y-15245714D01*
X12517333Y-15264762D01*
X12517333Y-15312381D01*
X12507809Y-15331428D01*
X12498286Y-15340952D01*
X12479238Y-15350476D01*
X12422095Y-15350476D01*
X12403048Y-15340952D01*
X12393524Y-15331428D01*
X12612571Y-15350476D02*
X12650667Y-15350476D01*
X12669714Y-15340952D01*
X12679238Y-15331428D01*
X12698286Y-15302857D01*
X12707809Y-15264762D01*
X12707809Y-15188571D01*
X12698286Y-15169524D01*
X12688762Y-15160000D01*
X12669714Y-15150476D01*
X12631619Y-15150476D01*
X12612571Y-15160000D01*
X12603048Y-15169524D01*
X12593524Y-15188571D01*
X12593524Y-15236190D01*
X12603048Y-15255238D01*
X12612571Y-15264762D01*
X12631619Y-15274286D01*
X12669714Y-15274286D01*
X12688762Y-15264762D01*
X12698286Y-15255238D01*
X12707809Y-15236190D01*
X12879238Y-15217143D02*
X12879238Y-15350476D01*
X12831619Y-15140952D02*
X12784000Y-15283809D01*
X12907809Y-15283809D01*
X12974476Y-15150476D02*
X12974476Y-15188571D01*
X13050667Y-15150476D02*
X13050667Y-15188571D01*
X13345905Y-15426667D02*
X13336381Y-15417143D01*
X13317333Y-15388571D01*
X13307809Y-15369524D01*
X13298286Y-15340952D01*
X13288762Y-15293333D01*
X13288762Y-15255238D01*
X13298286Y-15207619D01*
X13307809Y-15179048D01*
X13317333Y-15160000D01*
X13336381Y-15131428D01*
X13345905Y-15121905D01*
X13403048Y-15150476D02*
X13536381Y-15150476D01*
X13450667Y-15350476D01*
X13603048Y-15169524D02*
X13612571Y-15160000D01*
X13631619Y-15150476D01*
X13679238Y-15150476D01*
X13698286Y-15160000D01*
X13707809Y-15169524D01*
X13717333Y-15188571D01*
X13717333Y-15207619D01*
X13707809Y-15236190D01*
X13593524Y-15350476D01*
X13717333Y-15350476D01*
X13955428Y-15350476D02*
X13955428Y-15150476D01*
X14041143Y-15350476D02*
X14041143Y-15245714D01*
X14031619Y-15226667D01*
X14012571Y-15217143D01*
X13984000Y-15217143D01*
X13964952Y-15226667D01*
X13955428Y-15236190D01*
X14164952Y-15350476D02*
X14145905Y-15340952D01*
X14136381Y-15331428D01*
X14126857Y-15312381D01*
X14126857Y-15255238D01*
X14136381Y-15236190D01*
X14145905Y-15226667D01*
X14164952Y-15217143D01*
X14193524Y-15217143D01*
X14212571Y-15226667D01*
X14222095Y-15236190D01*
X14231619Y-15255238D01*
X14231619Y-15312381D01*
X14222095Y-15331428D01*
X14212571Y-15340952D01*
X14193524Y-15350476D01*
X14164952Y-15350476D01*
X14345905Y-15350476D02*
X14326857Y-15340952D01*
X14317333Y-15321905D01*
X14317333Y-15150476D01*
X14498286Y-15340952D02*
X14479238Y-15350476D01*
X14441143Y-15350476D01*
X14422095Y-15340952D01*
X14412571Y-15321905D01*
X14412571Y-15245714D01*
X14422095Y-15226667D01*
X14441143Y-15217143D01*
X14479238Y-15217143D01*
X14498286Y-15226667D01*
X14507809Y-15245714D01*
X14507809Y-15264762D01*
X14412571Y-15283809D01*
X14584000Y-15340952D02*
X14603048Y-15350476D01*
X14641143Y-15350476D01*
X14660190Y-15340952D01*
X14669714Y-15321905D01*
X14669714Y-15312381D01*
X14660190Y-15293333D01*
X14641143Y-15283809D01*
X14612571Y-15283809D01*
X14593524Y-15274286D01*
X14584000Y-15255238D01*
X14584000Y-15245714D01*
X14593524Y-15226667D01*
X14612571Y-15217143D01*
X14641143Y-15217143D01*
X14660190Y-15226667D01*
X14736381Y-15426667D02*
X14745905Y-15417143D01*
X14764952Y-15388571D01*
X14774476Y-15369524D01*
X14784000Y-15340952D01*
X14793524Y-15293333D01*
X14793524Y-15255238D01*
X14784000Y-15207619D01*
X14774476Y-15179048D01*
X14764952Y-15160000D01*
X14745905Y-15131428D01*
X14736381Y-15121905D01*
D13*
X9723200Y-15473200D02*
X9723200Y-15574800D01*
X9672400Y-15524000D02*
X9774000Y-15524000D01*
D11*
X10136381Y-15614476D02*
X10022095Y-15614476D01*
X10079238Y-15614476D02*
X10079238Y-15414476D01*
X10060190Y-15443048D01*
X10041143Y-15462095D01*
X10022095Y-15471619D01*
X10222095Y-15595428D02*
X10231619Y-15604952D01*
X10222095Y-15614476D01*
X10212571Y-15604952D01*
X10222095Y-15595428D01*
X10222095Y-15614476D01*
X10355429Y-15414476D02*
X10374476Y-15414476D01*
X10393524Y-15424000D01*
X10403048Y-15433524D01*
X10412571Y-15452571D01*
X10422095Y-15490667D01*
X10422095Y-15538286D01*
X10412571Y-15576381D01*
X10403048Y-15595428D01*
X10393524Y-15604952D01*
X10374476Y-15614476D01*
X10355429Y-15614476D01*
X10336381Y-15604952D01*
X10326857Y-15595428D01*
X10317333Y-15576381D01*
X10307810Y-15538286D01*
X10307810Y-15490667D01*
X10317333Y-15452571D01*
X10326857Y-15433524D01*
X10336381Y-15424000D01*
X10355429Y-15414476D01*
X10612571Y-15614476D02*
X10498286Y-15614476D01*
X10555429Y-15614476D02*
X10555429Y-15414476D01*
X10536381Y-15443048D01*
X10517333Y-15462095D01*
X10498286Y-15471619D01*
X10784000Y-15414476D02*
X10745905Y-15414476D01*
X10726857Y-15424000D01*
X10717333Y-15433524D01*
X10698286Y-15462095D01*
X10688762Y-15500190D01*
X10688762Y-15576381D01*
X10698286Y-15595428D01*
X10707810Y-15604952D01*
X10726857Y-15614476D01*
X10764952Y-15614476D01*
X10784000Y-15604952D01*
X10793524Y-15595428D01*
X10803048Y-15576381D01*
X10803048Y-15528762D01*
X10793524Y-15509714D01*
X10784000Y-15500190D01*
X10764952Y-15490667D01*
X10726857Y-15490667D01*
X10707810Y-15500190D01*
X10698286Y-15509714D01*
X10688762Y-15528762D01*
X10888762Y-15614476D02*
X10888762Y-15481143D01*
X10888762Y-15500190D02*
X10898286Y-15490667D01*
X10917333Y-15481143D01*
X10945905Y-15481143D01*
X10964952Y-15490667D01*
X10974476Y-15509714D01*
X10974476Y-15614476D01*
X10974476Y-15509714D02*
X10984000Y-15490667D01*
X11003048Y-15481143D01*
X11031619Y-15481143D01*
X11050667Y-15490667D01*
X11060190Y-15509714D01*
X11060190Y-15614476D01*
X11155429Y-15614476D02*
X11155429Y-15481143D01*
X11155429Y-15500190D02*
X11164952Y-15490667D01*
X11184000Y-15481143D01*
X11212571Y-15481143D01*
X11231619Y-15490667D01*
X11241143Y-15509714D01*
X11241143Y-15614476D01*
X11241143Y-15509714D02*
X11250667Y-15490667D01*
X11269714Y-15481143D01*
X11298286Y-15481143D01*
X11317333Y-15490667D01*
X11326857Y-15509714D01*
X11326857Y-15614476D01*
X11717333Y-15404952D02*
X11545905Y-15662095D01*
X11974476Y-15414476D02*
X11993524Y-15414476D01*
X12012571Y-15424000D01*
X12022095Y-15433524D01*
X12031619Y-15452571D01*
X12041143Y-15490667D01*
X12041143Y-15538286D01*
X12031619Y-15576381D01*
X12022095Y-15595428D01*
X12012571Y-15604952D01*
X11993524Y-15614476D01*
X11974476Y-15614476D01*
X11955428Y-15604952D01*
X11945905Y-15595428D01*
X11936381Y-15576381D01*
X11926857Y-15538286D01*
X11926857Y-15490667D01*
X11936381Y-15452571D01*
X11945905Y-15433524D01*
X11955428Y-15424000D01*
X11974476Y-15414476D01*
X12126857Y-15595428D02*
X12136381Y-15604952D01*
X12126857Y-15614476D01*
X12117333Y-15604952D01*
X12126857Y-15595428D01*
X12126857Y-15614476D01*
X12260190Y-15414476D02*
X12279238Y-15414476D01*
X12298286Y-15424000D01*
X12307809Y-15433524D01*
X12317333Y-15452571D01*
X12326857Y-15490667D01*
X12326857Y-15538286D01*
X12317333Y-15576381D01*
X12307809Y-15595428D01*
X12298286Y-15604952D01*
X12279238Y-15614476D01*
X12260190Y-15614476D01*
X12241143Y-15604952D01*
X12231619Y-15595428D01*
X12222095Y-15576381D01*
X12212571Y-15538286D01*
X12212571Y-15490667D01*
X12222095Y-15452571D01*
X12231619Y-15433524D01*
X12241143Y-15424000D01*
X12260190Y-15414476D01*
X12498286Y-15481143D02*
X12498286Y-15614476D01*
X12450667Y-15404952D02*
X12403048Y-15547809D01*
X12526857Y-15547809D01*
X12641143Y-15414476D02*
X12660190Y-15414476D01*
X12679238Y-15424000D01*
X12688762Y-15433524D01*
X12698286Y-15452571D01*
X12707809Y-15490667D01*
X12707809Y-15538286D01*
X12698286Y-15576381D01*
X12688762Y-15595428D01*
X12679238Y-15604952D01*
X12660190Y-15614476D01*
X12641143Y-15614476D01*
X12622095Y-15604952D01*
X12612571Y-15595428D01*
X12603048Y-15576381D01*
X12593524Y-15538286D01*
X12593524Y-15490667D01*
X12603048Y-15452571D01*
X12612571Y-15433524D01*
X12622095Y-15424000D01*
X12641143Y-15414476D01*
X12831619Y-15414476D02*
X12850667Y-15414476D01*
X12869714Y-15424000D01*
X12879238Y-15433524D01*
X12888762Y-15452571D01*
X12898286Y-15490667D01*
X12898286Y-15538286D01*
X12888762Y-15576381D01*
X12879238Y-15595428D01*
X12869714Y-15604952D01*
X12850667Y-15614476D01*
X12831619Y-15614476D01*
X12812571Y-15604952D01*
X12803048Y-15595428D01*
X12793524Y-15576381D01*
X12784000Y-15538286D01*
X12784000Y-15490667D01*
X12793524Y-15452571D01*
X12803048Y-15433524D01*
X12812571Y-15424000D01*
X12831619Y-15414476D01*
X12974476Y-15414476D02*
X12974476Y-15452571D01*
X13050667Y-15414476D02*
X13050667Y-15452571D01*
X13345905Y-15690667D02*
X13336381Y-15681143D01*
X13317333Y-15652571D01*
X13307809Y-15633524D01*
X13298286Y-15604952D01*
X13288762Y-15557333D01*
X13288762Y-15519238D01*
X13298286Y-15471619D01*
X13307809Y-15443048D01*
X13317333Y-15424000D01*
X13336381Y-15395428D01*
X13345905Y-15385905D01*
X13526857Y-15614476D02*
X13412571Y-15614476D01*
X13469714Y-15614476D02*
X13469714Y-15414476D01*
X13450667Y-15443048D01*
X13431619Y-15462095D01*
X13412571Y-15471619D01*
X13603048Y-15433524D02*
X13612571Y-15424000D01*
X13631619Y-15414476D01*
X13679238Y-15414476D01*
X13698286Y-15424000D01*
X13707809Y-15433524D01*
X13717333Y-15452571D01*
X13717333Y-15471619D01*
X13707809Y-15500190D01*
X13593524Y-15614476D01*
X13717333Y-15614476D01*
X13955428Y-15614476D02*
X13955428Y-15414476D01*
X14041143Y-15614476D02*
X14041143Y-15509714D01*
X14031619Y-15490667D01*
X14012571Y-15481143D01*
X13984000Y-15481143D01*
X13964952Y-15490667D01*
X13955428Y-15500190D01*
X14164952Y-15614476D02*
X14145905Y-15604952D01*
X14136381Y-15595428D01*
X14126857Y-15576381D01*
X14126857Y-15519238D01*
X14136381Y-15500190D01*
X14145905Y-15490667D01*
X14164952Y-15481143D01*
X14193524Y-15481143D01*
X14212571Y-15490667D01*
X14222095Y-15500190D01*
X14231619Y-15519238D01*
X14231619Y-15576381D01*
X14222095Y-15595428D01*
X14212571Y-15604952D01*
X14193524Y-15614476D01*
X14164952Y-15614476D01*
X14345905Y-15614476D02*
X14326857Y-15604952D01*
X14317333Y-15585905D01*
X14317333Y-15414476D01*
X14498286Y-15604952D02*
X14479238Y-15614476D01*
X14441143Y-15614476D01*
X14422095Y-15604952D01*
X14412571Y-15585905D01*
X14412571Y-15509714D01*
X14422095Y-15490667D01*
X14441143Y-15481143D01*
X14479238Y-15481143D01*
X14498286Y-15490667D01*
X14507809Y-15509714D01*
X14507809Y-15528762D01*
X14412571Y-15547809D01*
X14584000Y-15604952D02*
X14603048Y-15614476D01*
X14641143Y-15614476D01*
X14660190Y-15604952D01*
X14669714Y-15585905D01*
X14669714Y-15576381D01*
X14660190Y-15557333D01*
X14641143Y-15547809D01*
X14612571Y-15547809D01*
X14593524Y-15538286D01*
X14584000Y-15519238D01*
X14584000Y-15509714D01*
X14593524Y-15490667D01*
X14612571Y-15481143D01*
X14641143Y-15481143D01*
X14660190Y-15490667D01*
X14736381Y-15690667D02*
X14745905Y-15681143D01*
X14764952Y-15652571D01*
X14774476Y-15633524D01*
X14784000Y-15604952D01*
X14793524Y-15557333D01*
X14793524Y-15519238D01*
X14784000Y-15471619D01*
X14774476Y-15443048D01*
X14764952Y-15424000D01*
X14745905Y-15395428D01*
X14736381Y-15385905D01*
D14*
X9752034Y-15841033D02*
X9752034Y-15734966D01*
X9645967Y-15734966D01*
X9645967Y-15841033D01*
X9752034Y-15841033D01*
D11*
X10136381Y-15878476D02*
X10022095Y-15878476D01*
X10079238Y-15878476D02*
X10079238Y-15678476D01*
X10060190Y-15707048D01*
X10041143Y-15726095D01*
X10022095Y-15735619D01*
X10222095Y-15859428D02*
X10231619Y-15868952D01*
X10222095Y-15878476D01*
X10212571Y-15868952D01*
X10222095Y-15859428D01*
X10222095Y-15878476D01*
X10412571Y-15678476D02*
X10317333Y-15678476D01*
X10307810Y-15773714D01*
X10317333Y-15764190D01*
X10336381Y-15754667D01*
X10384000Y-15754667D01*
X10403048Y-15764190D01*
X10412571Y-15773714D01*
X10422095Y-15792762D01*
X10422095Y-15840381D01*
X10412571Y-15859428D01*
X10403048Y-15868952D01*
X10384000Y-15878476D01*
X10336381Y-15878476D01*
X10317333Y-15868952D01*
X10307810Y-15859428D01*
X10545905Y-15678476D02*
X10564952Y-15678476D01*
X10584000Y-15688000D01*
X10593524Y-15697524D01*
X10603048Y-15716571D01*
X10612571Y-15754667D01*
X10612571Y-15802286D01*
X10603048Y-15840381D01*
X10593524Y-15859428D01*
X10584000Y-15868952D01*
X10564952Y-15878476D01*
X10545905Y-15878476D01*
X10526857Y-15868952D01*
X10517333Y-15859428D01*
X10507810Y-15840381D01*
X10498286Y-15802286D01*
X10498286Y-15754667D01*
X10507810Y-15716571D01*
X10517333Y-15697524D01*
X10526857Y-15688000D01*
X10545905Y-15678476D01*
X10736381Y-15678476D02*
X10755429Y-15678476D01*
X10774476Y-15688000D01*
X10784000Y-15697524D01*
X10793524Y-15716571D01*
X10803048Y-15754667D01*
X10803048Y-15802286D01*
X10793524Y-15840381D01*
X10784000Y-15859428D01*
X10774476Y-15868952D01*
X10755429Y-15878476D01*
X10736381Y-15878476D01*
X10717333Y-15868952D01*
X10707810Y-15859428D01*
X10698286Y-15840381D01*
X10688762Y-15802286D01*
X10688762Y-15754667D01*
X10698286Y-15716571D01*
X10707810Y-15697524D01*
X10717333Y-15688000D01*
X10736381Y-15678476D01*
X10888762Y-15878476D02*
X10888762Y-15745143D01*
X10888762Y-15764190D02*
X10898286Y-15754667D01*
X10917333Y-15745143D01*
X10945905Y-15745143D01*
X10964952Y-15754667D01*
X10974476Y-15773714D01*
X10974476Y-15878476D01*
X10974476Y-15773714D02*
X10984000Y-15754667D01*
X11003048Y-15745143D01*
X11031619Y-15745143D01*
X11050667Y-15754667D01*
X11060190Y-15773714D01*
X11060190Y-15878476D01*
X11155429Y-15878476D02*
X11155429Y-15745143D01*
X11155429Y-15764190D02*
X11164952Y-15754667D01*
X11184000Y-15745143D01*
X11212571Y-15745143D01*
X11231619Y-15754667D01*
X11241143Y-15773714D01*
X11241143Y-15878476D01*
X11241143Y-15773714D02*
X11250667Y-15754667D01*
X11269714Y-15745143D01*
X11298286Y-15745143D01*
X11317333Y-15754667D01*
X11326857Y-15773714D01*
X11326857Y-15878476D01*
X11717333Y-15668952D02*
X11545905Y-15926095D01*
X11974476Y-15678476D02*
X11993524Y-15678476D01*
X12012571Y-15688000D01*
X12022095Y-15697524D01*
X12031619Y-15716571D01*
X12041143Y-15754667D01*
X12041143Y-15802286D01*
X12031619Y-15840381D01*
X12022095Y-15859428D01*
X12012571Y-15868952D01*
X11993524Y-15878476D01*
X11974476Y-15878476D01*
X11955428Y-15868952D01*
X11945905Y-15859428D01*
X11936381Y-15840381D01*
X11926857Y-15802286D01*
X11926857Y-15754667D01*
X11936381Y-15716571D01*
X11945905Y-15697524D01*
X11955428Y-15688000D01*
X11974476Y-15678476D01*
X12126857Y-15859428D02*
X12136381Y-15868952D01*
X12126857Y-15878476D01*
X12117333Y-15868952D01*
X12126857Y-15859428D01*
X12126857Y-15878476D01*
X12260190Y-15678476D02*
X12279238Y-15678476D01*
X12298286Y-15688000D01*
X12307809Y-15697524D01*
X12317333Y-15716571D01*
X12326857Y-15754667D01*
X12326857Y-15802286D01*
X12317333Y-15840381D01*
X12307809Y-15859428D01*
X12298286Y-15868952D01*
X12279238Y-15878476D01*
X12260190Y-15878476D01*
X12241143Y-15868952D01*
X12231619Y-15859428D01*
X12222095Y-15840381D01*
X12212571Y-15802286D01*
X12212571Y-15754667D01*
X12222095Y-15716571D01*
X12231619Y-15697524D01*
X12241143Y-15688000D01*
X12260190Y-15678476D01*
X12507809Y-15678476D02*
X12412571Y-15678476D01*
X12403048Y-15773714D01*
X12412571Y-15764190D01*
X12431619Y-15754667D01*
X12479238Y-15754667D01*
X12498286Y-15764190D01*
X12507809Y-15773714D01*
X12517333Y-15792762D01*
X12517333Y-15840381D01*
X12507809Y-15859428D01*
X12498286Y-15868952D01*
X12479238Y-15878476D01*
X12431619Y-15878476D01*
X12412571Y-15868952D01*
X12403048Y-15859428D01*
X12612571Y-15878476D02*
X12650667Y-15878476D01*
X12669714Y-15868952D01*
X12679238Y-15859428D01*
X12698286Y-15830857D01*
X12707809Y-15792762D01*
X12707809Y-15716571D01*
X12698286Y-15697524D01*
X12688762Y-15688000D01*
X12669714Y-15678476D01*
X12631619Y-15678476D01*
X12612571Y-15688000D01*
X12603048Y-15697524D01*
X12593524Y-15716571D01*
X12593524Y-15764190D01*
X12603048Y-15783238D01*
X12612571Y-15792762D01*
X12631619Y-15802286D01*
X12669714Y-15802286D01*
X12688762Y-15792762D01*
X12698286Y-15783238D01*
X12707809Y-15764190D01*
X12898286Y-15878476D02*
X12784000Y-15878476D01*
X12841143Y-15878476D02*
X12841143Y-15678476D01*
X12822095Y-15707048D01*
X12803048Y-15726095D01*
X12784000Y-15735619D01*
X12974476Y-15678476D02*
X12974476Y-15716571D01*
X13050667Y-15678476D02*
X13050667Y-15716571D01*
X13345905Y-15954667D02*
X13336381Y-15945143D01*
X13317333Y-15916571D01*
X13307809Y-15897524D01*
X13298286Y-15868952D01*
X13288762Y-15821333D01*
X13288762Y-15783238D01*
X13298286Y-15735619D01*
X13307809Y-15707048D01*
X13317333Y-15688000D01*
X13336381Y-15659428D01*
X13345905Y-15649905D01*
X13526857Y-15878476D02*
X13412571Y-15878476D01*
X13469714Y-15878476D02*
X13469714Y-15678476D01*
X13450667Y-15707048D01*
X13431619Y-15726095D01*
X13412571Y-15735619D01*
X13603048Y-15697524D02*
X13612571Y-15688000D01*
X13631619Y-15678476D01*
X13679238Y-15678476D01*
X13698286Y-15688000D01*
X13707809Y-15697524D01*
X13717333Y-15716571D01*
X13717333Y-15735619D01*
X13707809Y-15764190D01*
X13593524Y-15878476D01*
X13717333Y-15878476D01*
X13955428Y-15878476D02*
X13955428Y-15678476D01*
X14041143Y-15878476D02*
X14041143Y-15773714D01*
X14031619Y-15754667D01*
X14012571Y-15745143D01*
X13984000Y-15745143D01*
X13964952Y-15754667D01*
X13955428Y-15764190D01*
X14164952Y-15878476D02*
X14145905Y-15868952D01*
X14136381Y-15859428D01*
X14126857Y-15840381D01*
X14126857Y-15783238D01*
X14136381Y-15764190D01*
X14145905Y-15754667D01*
X14164952Y-15745143D01*
X14193524Y-15745143D01*
X14212571Y-15754667D01*
X14222095Y-15764190D01*
X14231619Y-15783238D01*
X14231619Y-15840381D01*
X14222095Y-15859428D01*
X14212571Y-15868952D01*
X14193524Y-15878476D01*
X14164952Y-15878476D01*
X14345905Y-15878476D02*
X14326857Y-15868952D01*
X14317333Y-15849905D01*
X14317333Y-15678476D01*
X14498286Y-15868952D02*
X14479238Y-15878476D01*
X14441143Y-15878476D01*
X14422095Y-15868952D01*
X14412571Y-15849905D01*
X14412571Y-15773714D01*
X14422095Y-15754667D01*
X14441143Y-15745143D01*
X14479238Y-15745143D01*
X14498286Y-15754667D01*
X14507809Y-15773714D01*
X14507809Y-15792762D01*
X14412571Y-15811809D01*
X14584000Y-15868952D02*
X14603048Y-15878476D01*
X14641143Y-15878476D01*
X14660190Y-15868952D01*
X14669714Y-15849905D01*
X14669714Y-15840381D01*
X14660190Y-15821333D01*
X14641143Y-15811809D01*
X14612571Y-15811809D01*
X14593524Y-15802286D01*
X14584000Y-15783238D01*
X14584000Y-15773714D01*
X14593524Y-15754667D01*
X14612571Y-15745143D01*
X14641143Y-15745143D01*
X14660190Y-15754667D01*
X14736381Y-15954667D02*
X14745905Y-15945143D01*
X14764952Y-15916571D01*
X14774476Y-15897524D01*
X14784000Y-15868952D01*
X14793524Y-15821333D01*
X14793524Y-15783238D01*
X14784000Y-15735619D01*
X14774476Y-15707048D01*
X14764952Y-15688000D01*
X14745905Y-15659428D01*
X14736381Y-15649905D01*
X9674000Y-16158000D02*
X9774000Y-16058000D01*
X9674000Y-15958000D01*
X9574000Y-16058000D01*
X9674000Y-16158000D01*
X10022095Y-15967524D02*
X10031619Y-15958000D01*
X10050667Y-15948476D01*
X10098286Y-15948476D01*
X10117333Y-15958000D01*
X10126857Y-15967524D01*
X10136381Y-15986571D01*
X10136381Y-16005619D01*
X10126857Y-16034190D01*
X10012571Y-16148476D01*
X10136381Y-16148476D01*
X10222095Y-16129428D02*
X10231619Y-16138952D01*
X10222095Y-16148476D01*
X10212571Y-16138952D01*
X10222095Y-16129428D01*
X10222095Y-16148476D01*
X10422095Y-16148476D02*
X10307810Y-16148476D01*
X10364952Y-16148476D02*
X10364952Y-15948476D01*
X10345905Y-15977048D01*
X10326857Y-15996095D01*
X10307810Y-16005619D01*
X10603048Y-15948476D02*
X10507810Y-15948476D01*
X10498286Y-16043714D01*
X10507810Y-16034190D01*
X10526857Y-16024667D01*
X10574476Y-16024667D01*
X10593524Y-16034190D01*
X10603048Y-16043714D01*
X10612571Y-16062762D01*
X10612571Y-16110381D01*
X10603048Y-16129428D01*
X10593524Y-16138952D01*
X10574476Y-16148476D01*
X10526857Y-16148476D01*
X10507810Y-16138952D01*
X10498286Y-16129428D01*
X10707810Y-16148476D02*
X10745905Y-16148476D01*
X10764952Y-16138952D01*
X10774476Y-16129428D01*
X10793524Y-16100857D01*
X10803048Y-16062762D01*
X10803048Y-15986571D01*
X10793524Y-15967524D01*
X10784000Y-15958000D01*
X10764952Y-15948476D01*
X10726857Y-15948476D01*
X10707810Y-15958000D01*
X10698286Y-15967524D01*
X10688762Y-15986571D01*
X10688762Y-16034190D01*
X10698286Y-16053238D01*
X10707810Y-16062762D01*
X10726857Y-16072286D01*
X10764952Y-16072286D01*
X10784000Y-16062762D01*
X10793524Y-16053238D01*
X10803048Y-16034190D01*
X10888762Y-16148476D02*
X10888762Y-16015143D01*
X10888762Y-16034190D02*
X10898286Y-16024667D01*
X10917333Y-16015143D01*
X10945905Y-16015143D01*
X10964952Y-16024667D01*
X10974476Y-16043714D01*
X10974476Y-16148476D01*
X10974476Y-16043714D02*
X10984000Y-16024667D01*
X11003048Y-16015143D01*
X11031619Y-16015143D01*
X11050667Y-16024667D01*
X11060190Y-16043714D01*
X11060190Y-16148476D01*
X11155429Y-16148476D02*
X11155429Y-16015143D01*
X11155429Y-16034190D02*
X11164952Y-16024667D01*
X11184000Y-16015143D01*
X11212571Y-16015143D01*
X11231619Y-16024667D01*
X11241143Y-16043714D01*
X11241143Y-16148476D01*
X11241143Y-16043714D02*
X11250667Y-16024667D01*
X11269714Y-16015143D01*
X11298286Y-16015143D01*
X11317333Y-16024667D01*
X11326857Y-16043714D01*
X11326857Y-16148476D01*
X11717333Y-15938952D02*
X11545905Y-16196095D01*
X11974476Y-15948476D02*
X11993524Y-15948476D01*
X12012571Y-15958000D01*
X12022095Y-15967524D01*
X12031619Y-15986571D01*
X12041143Y-16024667D01*
X12041143Y-16072286D01*
X12031619Y-16110381D01*
X12022095Y-16129428D01*
X12012571Y-16138952D01*
X11993524Y-16148476D01*
X11974476Y-16148476D01*
X11955428Y-16138952D01*
X11945905Y-16129428D01*
X11936381Y-16110381D01*
X11926857Y-16072286D01*
X11926857Y-16024667D01*
X11936381Y-15986571D01*
X11945905Y-15967524D01*
X11955428Y-15958000D01*
X11974476Y-15948476D01*
X12126857Y-16129428D02*
X12136381Y-16138952D01*
X12126857Y-16148476D01*
X12117333Y-16138952D01*
X12126857Y-16129428D01*
X12126857Y-16148476D01*
X12260190Y-15948476D02*
X12279238Y-15948476D01*
X12298286Y-15958000D01*
X12307809Y-15967524D01*
X12317333Y-15986571D01*
X12326857Y-16024667D01*
X12326857Y-16072286D01*
X12317333Y-16110381D01*
X12307809Y-16129428D01*
X12298286Y-16138952D01*
X12279238Y-16148476D01*
X12260190Y-16148476D01*
X12241143Y-16138952D01*
X12231619Y-16129428D01*
X12222095Y-16110381D01*
X12212571Y-16072286D01*
X12212571Y-16024667D01*
X12222095Y-15986571D01*
X12231619Y-15967524D01*
X12241143Y-15958000D01*
X12260190Y-15948476D01*
X12441143Y-16034190D02*
X12422095Y-16024667D01*
X12412571Y-16015143D01*
X12403048Y-15996095D01*
X12403048Y-15986571D01*
X12412571Y-15967524D01*
X12422095Y-15958000D01*
X12441143Y-15948476D01*
X12479238Y-15948476D01*
X12498286Y-15958000D01*
X12507809Y-15967524D01*
X12517333Y-15986571D01*
X12517333Y-15996095D01*
X12507809Y-16015143D01*
X12498286Y-16024667D01*
X12479238Y-16034190D01*
X12441143Y-16034190D01*
X12422095Y-16043714D01*
X12412571Y-16053238D01*
X12403048Y-16072286D01*
X12403048Y-16110381D01*
X12412571Y-16129428D01*
X12422095Y-16138952D01*
X12441143Y-16148476D01*
X12479238Y-16148476D01*
X12498286Y-16138952D01*
X12507809Y-16129428D01*
X12517333Y-16110381D01*
X12517333Y-16072286D01*
X12507809Y-16053238D01*
X12498286Y-16043714D01*
X12479238Y-16034190D01*
X12698286Y-15948476D02*
X12603048Y-15948476D01*
X12593524Y-16043714D01*
X12603048Y-16034190D01*
X12622095Y-16024667D01*
X12669714Y-16024667D01*
X12688762Y-16034190D01*
X12698286Y-16043714D01*
X12707809Y-16062762D01*
X12707809Y-16110381D01*
X12698286Y-16129428D01*
X12688762Y-16138952D01*
X12669714Y-16148476D01*
X12622095Y-16148476D01*
X12603048Y-16138952D01*
X12593524Y-16129428D01*
X12831619Y-15948476D02*
X12850667Y-15948476D01*
X12869714Y-15958000D01*
X12879238Y-15967524D01*
X12888762Y-15986571D01*
X12898286Y-16024667D01*
X12898286Y-16072286D01*
X12888762Y-16110381D01*
X12879238Y-16129428D01*
X12869714Y-16138952D01*
X12850667Y-16148476D01*
X12831619Y-16148476D01*
X12812571Y-16138952D01*
X12803048Y-16129428D01*
X12793524Y-16110381D01*
X12784000Y-16072286D01*
X12784000Y-16024667D01*
X12793524Y-15986571D01*
X12803048Y-15967524D01*
X12812571Y-15958000D01*
X12831619Y-15948476D01*
X12974476Y-15948476D02*
X12974476Y-15986571D01*
X13050667Y-15948476D02*
X13050667Y-15986571D01*
X13345905Y-16224667D02*
X13336381Y-16215143D01*
X13317333Y-16186571D01*
X13307809Y-16167524D01*
X13298286Y-16138952D01*
X13288762Y-16091333D01*
X13288762Y-16053238D01*
X13298286Y-16005619D01*
X13307809Y-15977048D01*
X13317333Y-15958000D01*
X13336381Y-15929428D01*
X13345905Y-15919905D01*
X13526857Y-16148476D02*
X13412571Y-16148476D01*
X13469714Y-16148476D02*
X13469714Y-15948476D01*
X13450667Y-15977048D01*
X13431619Y-15996095D01*
X13412571Y-16005619D01*
X13603048Y-15967524D02*
X13612571Y-15958000D01*
X13631619Y-15948476D01*
X13679238Y-15948476D01*
X13698286Y-15958000D01*
X13707809Y-15967524D01*
X13717333Y-15986571D01*
X13717333Y-16005619D01*
X13707809Y-16034190D01*
X13593524Y-16148476D01*
X13717333Y-16148476D01*
X13955428Y-16148476D02*
X13955428Y-15948476D01*
X14041143Y-16148476D02*
X14041143Y-16043714D01*
X14031619Y-16024667D01*
X14012571Y-16015143D01*
X13984000Y-16015143D01*
X13964952Y-16024667D01*
X13955428Y-16034190D01*
X14164952Y-16148476D02*
X14145905Y-16138952D01*
X14136381Y-16129428D01*
X14126857Y-16110381D01*
X14126857Y-16053238D01*
X14136381Y-16034190D01*
X14145905Y-16024667D01*
X14164952Y-16015143D01*
X14193524Y-16015143D01*
X14212571Y-16024667D01*
X14222095Y-16034190D01*
X14231619Y-16053238D01*
X14231619Y-16110381D01*
X14222095Y-16129428D01*
X14212571Y-16138952D01*
X14193524Y-16148476D01*
X14164952Y-16148476D01*
X14345905Y-16148476D02*
X14326857Y-16138952D01*
X14317333Y-16119905D01*
X14317333Y-15948476D01*
X14498286Y-16138952D02*
X14479238Y-16148476D01*
X14441143Y-16148476D01*
X14422095Y-16138952D01*
X14412571Y-16119905D01*
X14412571Y-16043714D01*
X14422095Y-16024667D01*
X14441143Y-16015143D01*
X14479238Y-16015143D01*
X14498286Y-16024667D01*
X14507809Y-16043714D01*
X14507809Y-16062762D01*
X14412571Y-16081809D01*
X14584000Y-16138952D02*
X14603048Y-16148476D01*
X14641143Y-16148476D01*
X14660190Y-16138952D01*
X14669714Y-16119905D01*
X14669714Y-16110381D01*
X14660190Y-16091333D01*
X14641143Y-16081809D01*
X14612571Y-16081809D01*
X14593524Y-16072286D01*
X14584000Y-16053238D01*
X14584000Y-16043714D01*
X14593524Y-16024667D01*
X14612571Y-16015143D01*
X14641143Y-16015143D01*
X14660190Y-16024667D01*
X14736381Y-16224667D02*
X14745905Y-16215143D01*
X14764952Y-16186571D01*
X14774476Y-16167524D01*
X14784000Y-16138952D01*
X14793524Y-16091333D01*
X14793524Y-16053238D01*
X14784000Y-16005619D01*
X14774476Y-15977048D01*
X14764952Y-15958000D01*
X14745905Y-15929428D01*
X14736381Y-15919905D01*
M02*
