M48
; DRILL file {KiCad 6.0.9-8da3e8f707~116~ubuntu20.04.1} date pon 20 mar 2023 21:31:36
; FORMAT={-:-/ absolute / metric / decimal}
; #@! TF.CreationDate,2023-03-20T21:31:36+01:00
; #@! TF.GenerationSoftware,Kicad,Pcbnew,6.0.9-8da3e8f707~116~ubuntu20.04.1
; #@! TF.FileFunction,Plated,1,2,PTH
FMAT,2
METRIC
; #@! TA.AperFunction,Plated,PTH,ViaDrill
T1C0.400
; #@! TA.AperFunction,Plated,PTH,ComponentDrill
T2C1.000
; #@! TA.AperFunction,Plated,PTH,ComponentDrill
T3C1.016
; #@! TA.AperFunction,Plated,PTH,ComponentDrill
T4C1.500
; #@! TA.AperFunction,Plated,PTH,ComponentDrill
T5C2.159
%
G90
G05
T1
X101.6Y-97.997
X107.95Y-64.77
X115.316Y-98.475
X116.718Y-81.837
X116.927Y-101.9
X176.818Y-101.6
X177.574Y-98.278
X178.84Y-131.012
X178.942Y-98.791
X179.414Y-74.127
X182.982Y-81.837
T2
X101.6Y-69.9
X101.6Y-72.44
X101.6Y-101.6
X101.6Y-104.14
X101.6Y-133.3
X101.6Y-135.84
X104.14Y-69.9
X104.14Y-72.44
X104.14Y-101.6
X104.14Y-104.14
X104.14Y-133.3
X104.14Y-135.84
X106.68Y-69.9
X106.68Y-72.44
X106.68Y-101.6
X106.68Y-104.14
X106.68Y-133.3
X106.68Y-135.84
X109.22Y-69.9
X109.22Y-72.44
X109.22Y-101.6
X109.22Y-104.14
X109.22Y-133.3
X109.22Y-135.84
X111.76Y-69.9
X111.76Y-72.44
X111.76Y-101.6
X111.76Y-104.14
X111.76Y-133.3
X111.76Y-135.84
X114.3Y-69.9
X114.3Y-72.44
X114.3Y-101.6
X114.3Y-104.14
X114.3Y-133.3
X114.3Y-135.84
X180.34Y-69.9
X180.34Y-72.44
X180.34Y-101.6
X180.34Y-104.14
X180.34Y-133.3
X180.34Y-135.84
X182.88Y-69.9
X182.88Y-72.44
X182.88Y-101.6
X182.88Y-104.14
X182.88Y-133.3
X182.88Y-135.84
X185.42Y-69.9
X185.42Y-72.44
X185.42Y-101.6
X185.42Y-104.14
X185.42Y-133.3
X185.42Y-135.84
X187.96Y-69.9
X187.96Y-72.44
X187.96Y-101.6
X187.96Y-104.14
X187.96Y-133.3
X187.96Y-135.84
X190.5Y-69.9
X190.5Y-72.44
X190.5Y-101.6
X190.5Y-104.14
X190.5Y-133.3
X190.5Y-135.84
X193.04Y-69.9
X193.04Y-72.44
X193.04Y-101.6
X193.04Y-104.14
X193.04Y-133.3
X193.04Y-135.84
T3
X107.95Y-55.93
X107.95Y-58.47
X107.95Y-87.63
X107.95Y-90.17
X107.95Y-119.33
X107.95Y-121.87
X186.69Y-55.93
X186.69Y-58.47
X186.69Y-87.63
X186.69Y-90.17
X186.69Y-119.33
X186.69Y-121.87
T4
X102.87Y-53.39
X102.87Y-85.09
X102.87Y-116.79
X113.03Y-63.55
X113.03Y-95.25
X113.03Y-126.95
X181.61Y-53.39
X181.61Y-85.09
X181.61Y-116.79
X191.77Y-63.55
X191.77Y-95.25
X191.77Y-126.95
T5
X102.87Y-63.55
X102.87Y-95.25
X102.87Y-126.95
X113.03Y-53.39
X113.03Y-85.09
X113.03Y-116.79
X181.61Y-63.55
X181.61Y-95.25
X181.61Y-126.95
X191.77Y-53.39
X191.77Y-85.09
X191.77Y-116.79
T0
M30
