%TF.GenerationSoftware,KiCad,Pcbnew,6.0.9-8da3e8f707~116~ubuntu20.04.1*%
%TF.CreationDate,2023-03-20T21:31:38+01:00*%
%TF.ProjectId,six_to_six_vertical,7369785f-746f-45f7-9369-785f76657274,rev?*%
%TF.SameCoordinates,Original*%
%TF.FileFunction,Drillmap*%
%TF.FilePolarity,Positive*%
%FSLAX45Y45*%
G04 Gerber Fmt 4.5, Leading zero omitted, Abs format (unit mm)*
G04 Created by KiCad (PCBNEW 6.0.9-8da3e8f707~116~ubuntu20.04.1) date 2023-03-20 21:31:38*
%MOMM*%
%LPD*%
G01*
G04 APERTURE LIST*
%ADD10C,0.100000*%
%ADD11C,0.200000*%
G04 APERTURE END LIST*
D10*
X9842500Y-4445000D02*
G75*
G03*
X9779000Y-4508500I0J-63500D01*
G01*
X9779000Y-14287500D02*
G75*
G03*
X9842500Y-14351000I63500J0D01*
G01*
X9842500Y-14351000D02*
X19621500Y-14351000D01*
X19685000Y-4508500D02*
G75*
G03*
X19621500Y-4445000I-63500J0D01*
G01*
X19685000Y-14287500D02*
X19685000Y-4508500D01*
X19621500Y-4445000D02*
X9842500Y-4445000D01*
X19621500Y-14351000D02*
G75*
G03*
X19685000Y-14287500I0J63500D01*
G01*
X9779000Y-4508500D02*
X9779000Y-14287500D01*
D11*
X10031619Y-14666476D02*
X10031619Y-14466476D01*
X10079238Y-14466476D01*
X10107810Y-14476000D01*
X10126857Y-14495048D01*
X10136381Y-14514095D01*
X10145905Y-14552190D01*
X10145905Y-14580762D01*
X10136381Y-14618857D01*
X10126857Y-14637905D01*
X10107810Y-14656952D01*
X10079238Y-14666476D01*
X10031619Y-14666476D01*
X10231619Y-14666476D02*
X10231619Y-14533143D01*
X10231619Y-14571238D02*
X10241143Y-14552190D01*
X10250667Y-14542667D01*
X10269714Y-14533143D01*
X10288762Y-14533143D01*
X10355429Y-14666476D02*
X10355429Y-14533143D01*
X10355429Y-14466476D02*
X10345905Y-14476000D01*
X10355429Y-14485524D01*
X10364952Y-14476000D01*
X10355429Y-14466476D01*
X10355429Y-14485524D01*
X10479238Y-14666476D02*
X10460190Y-14656952D01*
X10450667Y-14637905D01*
X10450667Y-14466476D01*
X10584000Y-14666476D02*
X10564952Y-14656952D01*
X10555429Y-14637905D01*
X10555429Y-14466476D01*
X10812571Y-14666476D02*
X10812571Y-14466476D01*
X10879238Y-14609333D01*
X10945905Y-14466476D01*
X10945905Y-14666476D01*
X11126857Y-14666476D02*
X11126857Y-14561714D01*
X11117333Y-14542667D01*
X11098286Y-14533143D01*
X11060190Y-14533143D01*
X11041143Y-14542667D01*
X11126857Y-14656952D02*
X11107810Y-14666476D01*
X11060190Y-14666476D01*
X11041143Y-14656952D01*
X11031619Y-14637905D01*
X11031619Y-14618857D01*
X11041143Y-14599809D01*
X11060190Y-14590286D01*
X11107810Y-14590286D01*
X11126857Y-14580762D01*
X11222095Y-14533143D02*
X11222095Y-14733143D01*
X11222095Y-14542667D02*
X11241143Y-14533143D01*
X11279238Y-14533143D01*
X11298286Y-14542667D01*
X11307809Y-14552190D01*
X11317333Y-14571238D01*
X11317333Y-14628381D01*
X11307809Y-14647428D01*
X11298286Y-14656952D01*
X11279238Y-14666476D01*
X11241143Y-14666476D01*
X11222095Y-14656952D01*
X11403048Y-14647428D02*
X11412571Y-14656952D01*
X11403048Y-14666476D01*
X11393524Y-14656952D01*
X11403048Y-14647428D01*
X11403048Y-14666476D01*
X11403048Y-14542667D02*
X11412571Y-14552190D01*
X11403048Y-14561714D01*
X11393524Y-14552190D01*
X11403048Y-14542667D01*
X11403048Y-14561714D01*
M02*
