G04 #@! TF.GenerationSoftware,KiCad,Pcbnew,6.0.9-8da3e8f707~116~ubuntu20.04.1*
G04 #@! TF.CreationDate,2023-03-16T00:54:39+01:00*
G04 #@! TF.ProjectId,six_to_six_vertical,7369785f-746f-45f7-9369-785f76657274,rev?*
G04 #@! TF.SameCoordinates,Original*
G04 #@! TF.FileFunction,Legend,Top*
G04 #@! TF.FilePolarity,Positive*
%FSLAX46Y46*%
G04 Gerber Fmt 4.6, Leading zero omitted, Abs format (unit mm)*
G04 Created by KiCad (PCBNEW 6.0.9-8da3e8f707~116~ubuntu20.04.1) date 2023-03-16 00:54:39*
%MOMM*%
%LPD*%
G01*
G04 APERTURE LIST*
%ADD10C,0.150000*%
%ADD11C,0.300000*%
%ADD12C,0.120000*%
%ADD13R,1.700000X1.700000*%
%ADD14O,1.700000X1.700000*%
%ADD15C,2.000000*%
%ADD16C,3.000000*%
G04 APERTURE END LIST*
D10*
X138869285Y-54737714D02*
X138983571Y-54794857D01*
X139212142Y-54794857D01*
X139326428Y-54737714D01*
X139383571Y-54623428D01*
X139383571Y-54566285D01*
X139326428Y-54452000D01*
X139212142Y-54394857D01*
X139040714Y-54394857D01*
X138926428Y-54337714D01*
X138869285Y-54223428D01*
X138869285Y-54166285D01*
X138926428Y-54052000D01*
X139040714Y-53994857D01*
X139212142Y-53994857D01*
X139326428Y-54052000D01*
X139897857Y-54794857D02*
X139897857Y-53994857D01*
X139897857Y-53594857D02*
X139840714Y-53652000D01*
X139897857Y-53709142D01*
X139955000Y-53652000D01*
X139897857Y-53594857D01*
X139897857Y-53709142D01*
X140355000Y-54794857D02*
X140983571Y-53994857D01*
X140355000Y-53994857D02*
X140983571Y-54794857D01*
X142183571Y-53994857D02*
X142640714Y-53994857D01*
X142355000Y-53594857D02*
X142355000Y-54623428D01*
X142412142Y-54737714D01*
X142526428Y-54794857D01*
X142640714Y-54794857D01*
X143212142Y-54794857D02*
X143097857Y-54737714D01*
X143040714Y-54680571D01*
X142983571Y-54566285D01*
X142983571Y-54223428D01*
X143040714Y-54109142D01*
X143097857Y-54052000D01*
X143212142Y-53994857D01*
X143383571Y-53994857D01*
X143497857Y-54052000D01*
X143555000Y-54109142D01*
X143612142Y-54223428D01*
X143612142Y-54566285D01*
X143555000Y-54680571D01*
X143497857Y-54737714D01*
X143383571Y-54794857D01*
X143212142Y-54794857D01*
X144983571Y-54737714D02*
X145097857Y-54794857D01*
X145326428Y-54794857D01*
X145440714Y-54737714D01*
X145497857Y-54623428D01*
X145497857Y-54566285D01*
X145440714Y-54452000D01*
X145326428Y-54394857D01*
X145155000Y-54394857D01*
X145040714Y-54337714D01*
X144983571Y-54223428D01*
X144983571Y-54166285D01*
X145040714Y-54052000D01*
X145155000Y-53994857D01*
X145326428Y-53994857D01*
X145440714Y-54052000D01*
X146012142Y-54794857D02*
X146012142Y-53994857D01*
X146012142Y-53594857D02*
X145955000Y-53652000D01*
X146012142Y-53709142D01*
X146069285Y-53652000D01*
X146012142Y-53594857D01*
X146012142Y-53709142D01*
X146469285Y-54794857D02*
X147097857Y-53994857D01*
X146469285Y-53994857D02*
X147097857Y-54794857D01*
X148469285Y-54794857D02*
X148469285Y-53594857D01*
X148469285Y-54052000D02*
X148583571Y-53994857D01*
X148812142Y-53994857D01*
X148926428Y-54052000D01*
X148983571Y-54109142D01*
X149040714Y-54223428D01*
X149040714Y-54566285D01*
X148983571Y-54680571D01*
X148926428Y-54737714D01*
X148812142Y-54794857D01*
X148583571Y-54794857D01*
X148469285Y-54737714D01*
X150069285Y-54794857D02*
X150069285Y-54166285D01*
X150012142Y-54052000D01*
X149897857Y-53994857D01*
X149669285Y-53994857D01*
X149555000Y-54052000D01*
X150069285Y-54737714D02*
X149955000Y-54794857D01*
X149669285Y-54794857D01*
X149555000Y-54737714D01*
X149497857Y-54623428D01*
X149497857Y-54509142D01*
X149555000Y-54394857D01*
X149669285Y-54337714D01*
X149955000Y-54337714D01*
X150069285Y-54280571D01*
X151155000Y-54737714D02*
X151040714Y-54794857D01*
X150812142Y-54794857D01*
X150697857Y-54737714D01*
X150640714Y-54680571D01*
X150583571Y-54566285D01*
X150583571Y-54223428D01*
X150640714Y-54109142D01*
X150697857Y-54052000D01*
X150812142Y-53994857D01*
X151040714Y-53994857D01*
X151155000Y-54052000D01*
X151669285Y-54794857D02*
X151669285Y-53594857D01*
X151783571Y-54337714D02*
X152126428Y-54794857D01*
X152126428Y-53994857D02*
X151669285Y-54452000D01*
X152640714Y-53994857D02*
X152640714Y-55194857D01*
X152640714Y-54052000D02*
X152755000Y-53994857D01*
X152983571Y-53994857D01*
X153097857Y-54052000D01*
X153155000Y-54109142D01*
X153212142Y-54223428D01*
X153212142Y-54566285D01*
X153155000Y-54680571D01*
X153097857Y-54737714D01*
X152983571Y-54794857D01*
X152755000Y-54794857D01*
X152640714Y-54737714D01*
X153897857Y-54794857D02*
X153783571Y-54737714D01*
X153726428Y-54623428D01*
X153726428Y-53594857D01*
X154869285Y-54794857D02*
X154869285Y-54166285D01*
X154812142Y-54052000D01*
X154697857Y-53994857D01*
X154469285Y-53994857D01*
X154355000Y-54052000D01*
X154869285Y-54737714D02*
X154755000Y-54794857D01*
X154469285Y-54794857D01*
X154355000Y-54737714D01*
X154297857Y-54623428D01*
X154297857Y-54509142D01*
X154355000Y-54394857D01*
X154469285Y-54337714D01*
X154755000Y-54337714D01*
X154869285Y-54280571D01*
X155440714Y-53994857D02*
X155440714Y-54794857D01*
X155440714Y-54109142D02*
X155497857Y-54052000D01*
X155612142Y-53994857D01*
X155783571Y-53994857D01*
X155897857Y-54052000D01*
X155955000Y-54166285D01*
X155955000Y-54794857D01*
X156983571Y-54737714D02*
X156869285Y-54794857D01*
X156640714Y-54794857D01*
X156526428Y-54737714D01*
X156469285Y-54623428D01*
X156469285Y-54166285D01*
X156526428Y-54052000D01*
X156640714Y-53994857D01*
X156869285Y-53994857D01*
X156983571Y-54052000D01*
X157040714Y-54166285D01*
X157040714Y-54280571D01*
X156469285Y-54394857D01*
X144726428Y-56726857D02*
X144726428Y-55926857D01*
X144726428Y-56155428D02*
X144783571Y-56041142D01*
X144840714Y-55984000D01*
X144955000Y-55926857D01*
X145069285Y-55926857D01*
X145926428Y-56669714D02*
X145812142Y-56726857D01*
X145583571Y-56726857D01*
X145469285Y-56669714D01*
X145412142Y-56555428D01*
X145412142Y-56098285D01*
X145469285Y-55984000D01*
X145583571Y-55926857D01*
X145812142Y-55926857D01*
X145926428Y-55984000D01*
X145983571Y-56098285D01*
X145983571Y-56212571D01*
X145412142Y-56326857D01*
X146383571Y-55926857D02*
X146669285Y-56726857D01*
X146955000Y-55926857D01*
X147412142Y-56612571D02*
X147469285Y-56669714D01*
X147412142Y-56726857D01*
X147355000Y-56669714D01*
X147412142Y-56612571D01*
X147412142Y-56726857D01*
X147412142Y-55984000D02*
X147469285Y-56041142D01*
X147412142Y-56098285D01*
X147355000Y-56041142D01*
X147412142Y-55984000D01*
X147412142Y-56098285D01*
X149526428Y-56726857D02*
X148840714Y-56726857D01*
X149183571Y-56726857D02*
X149183571Y-55526857D01*
X149069285Y-55698285D01*
X148955000Y-55812571D01*
X148840714Y-55869714D01*
X150040714Y-56612571D02*
X150097857Y-56669714D01*
X150040714Y-56726857D01*
X149983571Y-56669714D01*
X150040714Y-56612571D01*
X150040714Y-56726857D01*
X150840714Y-55526857D02*
X150955000Y-55526857D01*
X151069285Y-55584000D01*
X151126428Y-55641142D01*
X151183571Y-55755428D01*
X151240714Y-55984000D01*
X151240714Y-56269714D01*
X151183571Y-56498285D01*
X151126428Y-56612571D01*
X151069285Y-56669714D01*
X150955000Y-56726857D01*
X150840714Y-56726857D01*
X150726428Y-56669714D01*
X150669285Y-56612571D01*
X150612142Y-56498285D01*
X150555000Y-56269714D01*
X150555000Y-55984000D01*
X150612142Y-55755428D01*
X150669285Y-55641142D01*
X150726428Y-55584000D01*
X150840714Y-55526857D01*
X143726428Y-58658857D02*
X143040714Y-58658857D01*
X143383571Y-58658857D02*
X143383571Y-57458857D01*
X143269285Y-57630285D01*
X143155000Y-57744571D01*
X143040714Y-57801714D01*
X144183571Y-57573142D02*
X144240714Y-57516000D01*
X144355000Y-57458857D01*
X144640714Y-57458857D01*
X144755000Y-57516000D01*
X144812142Y-57573142D01*
X144869285Y-57687428D01*
X144869285Y-57801714D01*
X144812142Y-57973142D01*
X144126428Y-58658857D01*
X144869285Y-58658857D01*
X145383571Y-58544571D02*
X145440714Y-58601714D01*
X145383571Y-58658857D01*
X145326428Y-58601714D01*
X145383571Y-58544571D01*
X145383571Y-58658857D01*
X146183571Y-57458857D02*
X146297857Y-57458857D01*
X146412142Y-57516000D01*
X146469285Y-57573142D01*
X146526428Y-57687428D01*
X146583571Y-57916000D01*
X146583571Y-58201714D01*
X146526428Y-58430285D01*
X146469285Y-58544571D01*
X146412142Y-58601714D01*
X146297857Y-58658857D01*
X146183571Y-58658857D01*
X146069285Y-58601714D01*
X146012142Y-58544571D01*
X145955000Y-58430285D01*
X145897857Y-58201714D01*
X145897857Y-57916000D01*
X145955000Y-57687428D01*
X146012142Y-57573142D01*
X146069285Y-57516000D01*
X146183571Y-57458857D01*
X146983571Y-57458857D02*
X147726428Y-57458857D01*
X147326428Y-57916000D01*
X147497857Y-57916000D01*
X147612142Y-57973142D01*
X147669285Y-58030285D01*
X147726428Y-58144571D01*
X147726428Y-58430285D01*
X147669285Y-58544571D01*
X147612142Y-58601714D01*
X147497857Y-58658857D01*
X147155000Y-58658857D01*
X147040714Y-58601714D01*
X146983571Y-58544571D01*
X148240714Y-58544571D02*
X148297857Y-58601714D01*
X148240714Y-58658857D01*
X148183571Y-58601714D01*
X148240714Y-58544571D01*
X148240714Y-58658857D01*
X148755000Y-57573142D02*
X148812142Y-57516000D01*
X148926428Y-57458857D01*
X149212142Y-57458857D01*
X149326428Y-57516000D01*
X149383571Y-57573142D01*
X149440714Y-57687428D01*
X149440714Y-57801714D01*
X149383571Y-57973142D01*
X148697857Y-58658857D01*
X149440714Y-58658857D01*
X150183571Y-57458857D02*
X150297857Y-57458857D01*
X150412142Y-57516000D01*
X150469285Y-57573142D01*
X150526428Y-57687428D01*
X150583571Y-57916000D01*
X150583571Y-58201714D01*
X150526428Y-58430285D01*
X150469285Y-58544571D01*
X150412142Y-58601714D01*
X150297857Y-58658857D01*
X150183571Y-58658857D01*
X150069285Y-58601714D01*
X150012142Y-58544571D01*
X149955000Y-58430285D01*
X149897857Y-58201714D01*
X149897857Y-57916000D01*
X149955000Y-57687428D01*
X150012142Y-57573142D01*
X150069285Y-57516000D01*
X150183571Y-57458857D01*
X151040714Y-57573142D02*
X151097857Y-57516000D01*
X151212142Y-57458857D01*
X151497857Y-57458857D01*
X151612142Y-57516000D01*
X151669285Y-57573142D01*
X151726428Y-57687428D01*
X151726428Y-57801714D01*
X151669285Y-57973142D01*
X150983571Y-58658857D01*
X151726428Y-58658857D01*
X152126428Y-57458857D02*
X152869285Y-57458857D01*
X152469285Y-57916000D01*
X152640714Y-57916000D01*
X152755000Y-57973142D01*
X152812142Y-58030285D01*
X152869285Y-58144571D01*
X152869285Y-58430285D01*
X152812142Y-58544571D01*
X152755000Y-58601714D01*
X152640714Y-58658857D01*
X152297857Y-58658857D01*
X152183571Y-58601714D01*
X152126428Y-58544571D01*
X139612142Y-60590857D02*
X139612142Y-59390857D01*
X139612142Y-60533714D02*
X139497857Y-60590857D01*
X139269285Y-60590857D01*
X139155000Y-60533714D01*
X139097857Y-60476571D01*
X139040714Y-60362285D01*
X139040714Y-60019428D01*
X139097857Y-59905142D01*
X139155000Y-59848000D01*
X139269285Y-59790857D01*
X139497857Y-59790857D01*
X139612142Y-59848000D01*
X140640714Y-60533714D02*
X140526428Y-60590857D01*
X140297857Y-60590857D01*
X140183571Y-60533714D01*
X140126428Y-60419428D01*
X140126428Y-59962285D01*
X140183571Y-59848000D01*
X140297857Y-59790857D01*
X140526428Y-59790857D01*
X140640714Y-59848000D01*
X140697857Y-59962285D01*
X140697857Y-60076571D01*
X140126428Y-60190857D01*
X141155000Y-60533714D02*
X141269285Y-60590857D01*
X141497857Y-60590857D01*
X141612142Y-60533714D01*
X141669285Y-60419428D01*
X141669285Y-60362285D01*
X141612142Y-60248000D01*
X141497857Y-60190857D01*
X141326428Y-60190857D01*
X141212142Y-60133714D01*
X141155000Y-60019428D01*
X141155000Y-59962285D01*
X141212142Y-59848000D01*
X141326428Y-59790857D01*
X141497857Y-59790857D01*
X141612142Y-59848000D01*
X142183571Y-60590857D02*
X142183571Y-59790857D01*
X142183571Y-59390857D02*
X142126428Y-59448000D01*
X142183571Y-59505142D01*
X142240714Y-59448000D01*
X142183571Y-59390857D01*
X142183571Y-59505142D01*
X143269285Y-59790857D02*
X143269285Y-60762285D01*
X143212142Y-60876571D01*
X143155000Y-60933714D01*
X143040714Y-60990857D01*
X142869285Y-60990857D01*
X142755000Y-60933714D01*
X143269285Y-60533714D02*
X143155000Y-60590857D01*
X142926428Y-60590857D01*
X142812142Y-60533714D01*
X142755000Y-60476571D01*
X142697857Y-60362285D01*
X142697857Y-60019428D01*
X142755000Y-59905142D01*
X142812142Y-59848000D01*
X142926428Y-59790857D01*
X143155000Y-59790857D01*
X143269285Y-59848000D01*
X143840714Y-59790857D02*
X143840714Y-60590857D01*
X143840714Y-59905142D02*
X143897857Y-59848000D01*
X144012142Y-59790857D01*
X144183571Y-59790857D01*
X144297857Y-59848000D01*
X144355000Y-59962285D01*
X144355000Y-60590857D01*
X145383571Y-60533714D02*
X145269285Y-60590857D01*
X145040714Y-60590857D01*
X144926428Y-60533714D01*
X144869285Y-60419428D01*
X144869285Y-59962285D01*
X144926428Y-59848000D01*
X145040714Y-59790857D01*
X145269285Y-59790857D01*
X145383571Y-59848000D01*
X145440714Y-59962285D01*
X145440714Y-60076571D01*
X144869285Y-60190857D01*
X146469285Y-60590857D02*
X146469285Y-59390857D01*
X146469285Y-60533714D02*
X146355000Y-60590857D01*
X146126428Y-60590857D01*
X146012142Y-60533714D01*
X145955000Y-60476571D01*
X145897857Y-60362285D01*
X145897857Y-60019428D01*
X145955000Y-59905142D01*
X146012142Y-59848000D01*
X146126428Y-59790857D01*
X146355000Y-59790857D01*
X146469285Y-59848000D01*
X147955000Y-60590857D02*
X147955000Y-59390857D01*
X147955000Y-59848000D02*
X148069285Y-59790857D01*
X148297857Y-59790857D01*
X148412142Y-59848000D01*
X148469285Y-59905142D01*
X148526428Y-60019428D01*
X148526428Y-60362285D01*
X148469285Y-60476571D01*
X148412142Y-60533714D01*
X148297857Y-60590857D01*
X148069285Y-60590857D01*
X147955000Y-60533714D01*
X148926428Y-59790857D02*
X149212142Y-60590857D01*
X149497857Y-59790857D02*
X149212142Y-60590857D01*
X149097857Y-60876571D01*
X149040714Y-60933714D01*
X148926428Y-60990857D01*
X149955000Y-60476571D02*
X150012142Y-60533714D01*
X149955000Y-60590857D01*
X149897857Y-60533714D01*
X149955000Y-60476571D01*
X149955000Y-60590857D01*
X149955000Y-59848000D02*
X150012142Y-59905142D01*
X149955000Y-59962285D01*
X149897857Y-59905142D01*
X149955000Y-59848000D01*
X149955000Y-59962285D01*
X151383571Y-60533714D02*
X151555000Y-60590857D01*
X151840714Y-60590857D01*
X151955000Y-60533714D01*
X152012142Y-60476571D01*
X152069285Y-60362285D01*
X152069285Y-60248000D01*
X152012142Y-60133714D01*
X151955000Y-60076571D01*
X151840714Y-60019428D01*
X151612142Y-59962285D01*
X151497857Y-59905142D01*
X151440714Y-59848000D01*
X151383571Y-59733714D01*
X151383571Y-59619428D01*
X151440714Y-59505142D01*
X151497857Y-59448000D01*
X151612142Y-59390857D01*
X151897857Y-59390857D01*
X152069285Y-59448000D01*
X153155000Y-59390857D02*
X152583571Y-59390857D01*
X152526428Y-59962285D01*
X152583571Y-59905142D01*
X152697857Y-59848000D01*
X152983571Y-59848000D01*
X153097857Y-59905142D01*
X153155000Y-59962285D01*
X153212142Y-60076571D01*
X153212142Y-60362285D01*
X153155000Y-60476571D01*
X153097857Y-60533714D01*
X152983571Y-60590857D01*
X152697857Y-60590857D01*
X152583571Y-60533714D01*
X152526428Y-60476571D01*
X153783571Y-60590857D02*
X154012142Y-60590857D01*
X154126428Y-60533714D01*
X154183571Y-60476571D01*
X154297857Y-60305142D01*
X154355000Y-60076571D01*
X154355000Y-59619428D01*
X154297857Y-59505142D01*
X154240714Y-59448000D01*
X154126428Y-59390857D01*
X153897857Y-59390857D01*
X153783571Y-59448000D01*
X153726428Y-59505142D01*
X153669285Y-59619428D01*
X153669285Y-59905142D01*
X153726428Y-60019428D01*
X153783571Y-60076571D01*
X153897857Y-60133714D01*
X154126428Y-60133714D01*
X154240714Y-60076571D01*
X154297857Y-60019428D01*
X154355000Y-59905142D01*
X154869285Y-60590857D02*
X154869285Y-59390857D01*
X155269285Y-60248000D01*
X155669285Y-59390857D01*
X155669285Y-60590857D01*
X156126428Y-59390857D02*
X156926428Y-59390857D01*
X156126428Y-60590857D01*
X156926428Y-60590857D01*
D11*
X118713333Y-101774761D02*
X118713333Y-103203333D01*
X118618095Y-103489047D01*
X118427619Y-103679523D01*
X118141904Y-103774761D01*
X117951428Y-103774761D01*
X119475238Y-101774761D02*
X120713333Y-101774761D01*
X120046666Y-102536666D01*
X120332380Y-102536666D01*
X120522857Y-102631904D01*
X120618095Y-102727142D01*
X120713333Y-102917619D01*
X120713333Y-103393809D01*
X120618095Y-103584285D01*
X120522857Y-103679523D01*
X120332380Y-103774761D01*
X119760952Y-103774761D01*
X119570476Y-103679523D01*
X119475238Y-103584285D01*
X118713333Y-71294761D02*
X118713333Y-72723333D01*
X118618095Y-73009047D01*
X118427619Y-73199523D01*
X118141904Y-73294761D01*
X117951428Y-73294761D01*
X120713333Y-73294761D02*
X119570476Y-73294761D01*
X120141904Y-73294761D02*
X120141904Y-71294761D01*
X119951428Y-71580476D01*
X119760952Y-71770952D01*
X119570476Y-71866190D01*
X174593333Y-132254761D02*
X174593333Y-133683333D01*
X174498095Y-133969047D01*
X174307619Y-134159523D01*
X174021904Y-134254761D01*
X173831428Y-134254761D01*
X176402857Y-132254761D02*
X176021904Y-132254761D01*
X175831428Y-132350000D01*
X175736190Y-132445238D01*
X175545714Y-132730952D01*
X175450476Y-133111904D01*
X175450476Y-133873809D01*
X175545714Y-134064285D01*
X175640952Y-134159523D01*
X175831428Y-134254761D01*
X176212380Y-134254761D01*
X176402857Y-134159523D01*
X176498095Y-134064285D01*
X176593333Y-133873809D01*
X176593333Y-133397619D01*
X176498095Y-133207142D01*
X176402857Y-133111904D01*
X176212380Y-133016666D01*
X175831428Y-133016666D01*
X175640952Y-133111904D01*
X175545714Y-133207142D01*
X175450476Y-133397619D01*
X118713333Y-132254761D02*
X118713333Y-133683333D01*
X118618095Y-133969047D01*
X118427619Y-134159523D01*
X118141904Y-134254761D01*
X117951428Y-134254761D01*
X120618095Y-132254761D02*
X119665714Y-132254761D01*
X119570476Y-133207142D01*
X119665714Y-133111904D01*
X119856190Y-133016666D01*
X120332380Y-133016666D01*
X120522857Y-133111904D01*
X120618095Y-133207142D01*
X120713333Y-133397619D01*
X120713333Y-133873809D01*
X120618095Y-134064285D01*
X120522857Y-134159523D01*
X120332380Y-134254761D01*
X119856190Y-134254761D01*
X119665714Y-134159523D01*
X119570476Y-134064285D01*
X174593333Y-71294761D02*
X174593333Y-72723333D01*
X174498095Y-73009047D01*
X174307619Y-73199523D01*
X174021904Y-73294761D01*
X173831428Y-73294761D01*
X175450476Y-71485238D02*
X175545714Y-71390000D01*
X175736190Y-71294761D01*
X176212380Y-71294761D01*
X176402857Y-71390000D01*
X176498095Y-71485238D01*
X176593333Y-71675714D01*
X176593333Y-71866190D01*
X176498095Y-72151904D01*
X175355238Y-73294761D01*
X176593333Y-73294761D01*
X174593333Y-101774761D02*
X174593333Y-103203333D01*
X174498095Y-103489047D01*
X174307619Y-103679523D01*
X174021904Y-103774761D01*
X173831428Y-103774761D01*
X176402857Y-102441428D02*
X176402857Y-103774761D01*
X175926666Y-101679523D02*
X175450476Y-103108095D01*
X176688571Y-103108095D01*
D12*
X100270000Y-100270000D02*
X101600000Y-100270000D01*
X115630000Y-105470000D02*
X115630000Y-100270000D01*
X100270000Y-105470000D02*
X100270000Y-102870000D01*
X100270000Y-101600000D02*
X100270000Y-100270000D01*
X102870000Y-102870000D02*
X102870000Y-100270000D01*
X100270000Y-105470000D02*
X115630000Y-105470000D01*
X100270000Y-102870000D02*
X102870000Y-102870000D01*
X102870000Y-100270000D02*
X115630000Y-100270000D01*
X100270000Y-72390000D02*
X102870000Y-72390000D01*
X102870000Y-69790000D02*
X115630000Y-69790000D01*
X100270000Y-71120000D02*
X100270000Y-69790000D01*
X115630000Y-74990000D02*
X115630000Y-69790000D01*
X100270000Y-74990000D02*
X100270000Y-72390000D01*
X100270000Y-69790000D02*
X101600000Y-69790000D01*
X100270000Y-74990000D02*
X115630000Y-74990000D01*
X102870000Y-72390000D02*
X102870000Y-69790000D01*
X179010000Y-135950000D02*
X194370000Y-135950000D01*
X181610000Y-130750000D02*
X194370000Y-130750000D01*
X194370000Y-135950000D02*
X194370000Y-130750000D01*
X181610000Y-133350000D02*
X181610000Y-130750000D01*
X179010000Y-135950000D02*
X179010000Y-133350000D01*
X179010000Y-132080000D02*
X179010000Y-130750000D01*
X179010000Y-133350000D02*
X181610000Y-133350000D01*
X179010000Y-130750000D02*
X180340000Y-130750000D01*
X100270000Y-135950000D02*
X115630000Y-135950000D01*
X102870000Y-133350000D02*
X102870000Y-130750000D01*
X100270000Y-130750000D02*
X101600000Y-130750000D01*
X100270000Y-133350000D02*
X102870000Y-133350000D01*
X100270000Y-135950000D02*
X100270000Y-133350000D01*
X100270000Y-132080000D02*
X100270000Y-130750000D01*
X102870000Y-130750000D02*
X115630000Y-130750000D01*
X115630000Y-135950000D02*
X115630000Y-130750000D01*
X194370000Y-74990000D02*
X194370000Y-69790000D01*
X179010000Y-71120000D02*
X179010000Y-69790000D01*
X179010000Y-74990000D02*
X179010000Y-72390000D01*
X181610000Y-72390000D02*
X181610000Y-69790000D01*
X181610000Y-69790000D02*
X194370000Y-69790000D01*
X179010000Y-72390000D02*
X181610000Y-72390000D01*
X179010000Y-69790000D02*
X180340000Y-69790000D01*
X179010000Y-74990000D02*
X194370000Y-74990000D01*
X179010000Y-102870000D02*
X181610000Y-102870000D01*
X181610000Y-102870000D02*
X181610000Y-100270000D01*
X181610000Y-100270000D02*
X194370000Y-100270000D01*
X194370000Y-105470000D02*
X194370000Y-100270000D01*
X179010000Y-105470000D02*
X194370000Y-105470000D01*
X179010000Y-100270000D02*
X180340000Y-100270000D01*
X179010000Y-105470000D02*
X179010000Y-102870000D01*
X179010000Y-101600000D02*
X179010000Y-100270000D01*
%LPC*%
D13*
X101600000Y-101600000D03*
D14*
X101600000Y-104140000D03*
X104140000Y-101600000D03*
X104140000Y-104140000D03*
X106680000Y-101600000D03*
X106680000Y-104140000D03*
X109220000Y-101600000D03*
X109220000Y-104140000D03*
X111760000Y-101600000D03*
X111760000Y-104140000D03*
X114300000Y-101600000D03*
X114300000Y-104140000D03*
D13*
X101600000Y-71120000D03*
D14*
X101600000Y-73660000D03*
X104140000Y-71120000D03*
X104140000Y-73660000D03*
X106680000Y-71120000D03*
X106680000Y-73660000D03*
X109220000Y-71120000D03*
X109220000Y-73660000D03*
X111760000Y-71120000D03*
X111760000Y-73660000D03*
X114300000Y-71120000D03*
X114300000Y-73660000D03*
D13*
X180340000Y-132080000D03*
D14*
X180340000Y-134620000D03*
X182880000Y-132080000D03*
X182880000Y-134620000D03*
X185420000Y-132080000D03*
X185420000Y-134620000D03*
X187960000Y-132080000D03*
X187960000Y-134620000D03*
X190500000Y-132080000D03*
X190500000Y-134620000D03*
X193040000Y-132080000D03*
X193040000Y-134620000D03*
D13*
X101600000Y-132080000D03*
D14*
X101600000Y-134620000D03*
X104140000Y-132080000D03*
X104140000Y-134620000D03*
X106680000Y-132080000D03*
X106680000Y-134620000D03*
X109220000Y-132080000D03*
X109220000Y-134620000D03*
X111760000Y-132080000D03*
X111760000Y-134620000D03*
X114300000Y-132080000D03*
X114300000Y-134620000D03*
D13*
X180340000Y-71120000D03*
D14*
X180340000Y-73660000D03*
X182880000Y-71120000D03*
X182880000Y-73660000D03*
X185420000Y-71120000D03*
X185420000Y-73660000D03*
X187960000Y-71120000D03*
X187960000Y-73660000D03*
X190500000Y-71120000D03*
X190500000Y-73660000D03*
X193040000Y-71120000D03*
X193040000Y-73660000D03*
D13*
X180340000Y-101600000D03*
D14*
X180340000Y-104140000D03*
X182880000Y-101600000D03*
X182880000Y-104140000D03*
X185420000Y-101600000D03*
X185420000Y-104140000D03*
X187960000Y-101600000D03*
X187960000Y-104140000D03*
X190500000Y-101600000D03*
X190500000Y-104140000D03*
X193040000Y-101600000D03*
X193040000Y-104140000D03*
D15*
X107950000Y-59690000D03*
D16*
X102870000Y-64770000D03*
X113030000Y-64770000D03*
D15*
X107950000Y-57150000D03*
D16*
X102870000Y-54610000D03*
X113030000Y-54610000D03*
D15*
X186690000Y-59690000D03*
D16*
X181610000Y-64770000D03*
X191770000Y-64770000D03*
X191770000Y-54610000D03*
X181610000Y-54610000D03*
D15*
X186690000Y-57150000D03*
X107950000Y-90170000D03*
D16*
X102870000Y-95250000D03*
X102870000Y-85090000D03*
X113030000Y-85090000D03*
X113030000Y-95250000D03*
D15*
X107950000Y-87630000D03*
X186690000Y-90170000D03*
X186690000Y-87630000D03*
D16*
X191770000Y-95250000D03*
X181610000Y-95250000D03*
X181610000Y-85090000D03*
X191770000Y-85090000D03*
D15*
X186690000Y-120650000D03*
D16*
X181610000Y-115570000D03*
D15*
X186690000Y-118110000D03*
D16*
X191770000Y-115570000D03*
X181610000Y-125730000D03*
X191770000Y-125730000D03*
D15*
X107950000Y-120650000D03*
D16*
X102870000Y-115570000D03*
X102870000Y-125730000D03*
D15*
X107950000Y-118110000D03*
D16*
X113030000Y-125730000D03*
X113030000Y-115570000D03*
M02*
